M48
; DRILL file {KiCad 8.0.4} date 2026-02-03T00:17:52+0100
; FORMAT={-:-/ absolute / inch / decimal}
; #@! TF.CreationDate,2026-02-03T00:17:52+01:00
; #@! TF.GenerationSoftware,Kicad,Pcbnew,8.0.4
; #@! TF.FileFunction,Plated,1,2,PTH
FMAT,2
INCH
; #@! TA.AperFunction,Plated,PTH,ComponentDrill
T1C0.0300
; #@! TA.AperFunction,Plated,PTH,ComponentDrill
T2C0.0315
; #@! TA.AperFunction,Plated,PTH,ComponentDrill
T3C0.0350
; #@! TA.AperFunction,Plated,PTH,ComponentDrill
T4C0.0394
; #@! TA.AperFunction,Plated,PTH,ComponentDrill
T5C0.1260
%
G90
G05
T1
X3.0423Y-2.6978
X3.0423Y-3.0128
X3.3268Y-1.2559
X3.3268Y-1.6732
X3.4252Y-1.2559
X3.4252Y-1.6732
X3.5236Y-1.2559
X3.5236Y-1.6732
X3.5541Y-2.6978
X3.5541Y-3.0128
X3.622Y-1.2559
X3.622Y-1.6732
X3.7205Y-1.2559
X3.7205Y-1.6732
X3.8189Y-1.2559
X3.8189Y-1.6732
T2
X2.7756Y-2.874
X2.7756Y-2.9724
T3
X2.9252Y-1.8803
X2.9252Y-2.4803
X3.0252Y-1.8803
X3.0252Y-2.4803
X3.1252Y-1.8803
X3.1252Y-2.4803
X3.2252Y-1.8803
X3.2252Y-2.4803
X3.3252Y-1.8803
X3.3252Y-2.4803
X3.4252Y-1.8803
X3.4252Y-2.4803
X3.5252Y-1.8803
X3.5252Y-2.4803
T4
X2.6772Y-1.2598
X2.6772Y-1.4567
X2.6772Y-1.6535
X2.6772Y-1.8504
X2.6772Y-2.0866
X2.6772Y-2.2835
X2.6772Y-2.4803
X3.7795Y-2.5197
X3.7795Y-2.7165
T5
X2.9921Y-1.2598
X3.7795Y-2.9921
M30
