%TF.GenerationSoftware,KiCad,Pcbnew,8.0.4*%
%TF.CreationDate,2026-02-03T00:17:50+01:00*%
%TF.ProjectId,bob,626f622e-6b69-4636-9164-5f7063625858,rev?*%
%TF.SameCoordinates,Original*%
%TF.FileFunction,Copper,L1,Top*%
%TF.FilePolarity,Positive*%
%FSLAX46Y46*%
G04 Gerber Fmt 4.6, Leading zero omitted, Abs format (unit mm)*
G04 Created by KiCad (PCBNEW 8.0.4) date 2026-02-03 00:17:50*
%MOMM*%
%LPD*%
G01*
G04 APERTURE LIST*
G04 Aperture macros list*
%AMRoundRect*
0 Rectangle with rounded corners*
0 $1 Rounding radius*
0 $2 $3 $4 $5 $6 $7 $8 $9 X,Y pos of 4 corners*
0 Add a 4 corners polygon primitive as box body*
4,1,4,$2,$3,$4,$5,$6,$7,$8,$9,$2,$3,0*
0 Add four circle primitives for the rounded corners*
1,1,$1+$1,$2,$3*
1,1,$1+$1,$4,$5*
1,1,$1+$1,$6,$7*
1,1,$1+$1,$8,$9*
0 Add four rect primitives between the rounded corners*
20,1,$1+$1,$2,$3,$4,$5,0*
20,1,$1+$1,$4,$5,$6,$7,0*
20,1,$1+$1,$6,$7,$8,$9,0*
20,1,$1+$1,$8,$9,$2,$3,0*%
G04 Aperture macros list end*
%TA.AperFunction,ComponentPad*%
%ADD10C,5.600000*%
%TD*%
%TA.AperFunction,ComponentPad*%
%ADD11R,2.000000X2.000000*%
%TD*%
%TA.AperFunction,ComponentPad*%
%ADD12C,1.524000*%
%TD*%
%TA.AperFunction,ComponentPad*%
%ADD13C,1.600000*%
%TD*%
%TA.AperFunction,ComponentPad*%
%ADD14R,1.600000X1.600000*%
%TD*%
%TA.AperFunction,SMDPad,CuDef*%
%ADD15RoundRect,0.152400X-0.609600X1.063600X-0.609600X-1.063600X0.609600X-1.063600X0.609600X1.063600X0*%
%TD*%
%TA.AperFunction,SMDPad,CuDef*%
%ADD16RoundRect,0.152400X0.609600X-1.063600X0.609600X1.063600X-0.609600X1.063600X-0.609600X-1.063600X0*%
%TD*%
%TA.AperFunction,Conductor*%
%ADD17C,1.000000*%
%TD*%
%TA.AperFunction,Conductor*%
%ADD18C,0.200000*%
%TD*%
G04 APERTURE END LIST*
D10*
%TO.P,REF\u002A\u002A,1*%
%TO.N,N/C*%
X96000000Y-76000000D03*
%TD*%
D11*
%TO.P,GND,1,1*%
%TO.N,GND 5V*%
X68000000Y-63000000D03*
%TD*%
%TO.P,GND,1,1*%
%TO.N,GND 5V*%
X68000000Y-58000000D03*
%TD*%
%TO.P,GND,1,1*%
%TO.N,GND 24V*%
X96000000Y-69000000D03*
%TD*%
%TO.P,24V,1,1*%
%TO.N,+24V*%
X96000000Y-64000000D03*
%TD*%
%TO.P,5V,1,1*%
%TO.N,VDD 5V*%
X68000000Y-53000000D03*
%TD*%
D10*
%TO.P,REF\u002A\u002A,1*%
%TO.N,N/C*%
X76000000Y-32000000D03*
%TD*%
D12*
%TO.P,STEP DOWN 5V,1,24V*%
%TO.N,+24V*%
X90275000Y-68525000D03*
%TO.P,STEP DOWN 5V,2,GND*%
%TO.N,GND 24V*%
X90275000Y-76525000D03*
%TO.P,STEP DOWN 5V,3,5V*%
%TO.N,VDD 5V*%
X77275000Y-68525000D03*
%TO.P,STEP DOWN 5V,4,GND*%
%TO.N,GND 5V*%
X77275000Y-76525000D03*
%TD*%
%TO.P,LOGIC LEVEL CONV.,1,HV1*%
%TO.N,Net-(U2-HV1)*%
X84500000Y-31900000D03*
%TO.P,LOGIC LEVEL CONV.,2,HV2*%
%TO.N,Net-(U2-HV2)*%
X87000000Y-31900000D03*
%TO.P,LOGIC LEVEL CONV.,3,HV*%
%TO.N,VDD 5V*%
X89500000Y-31900000D03*
%TO.P,LOGIC LEVEL CONV.,4,GND*%
%TO.N,GND 5V*%
X92000000Y-31900000D03*
%TO.P,LOGIC LEVEL CONV.,5,HV3*%
%TO.N,Net-(U2-HV3)*%
X94500000Y-31900000D03*
%TO.P,LOGIC LEVEL CONV.,6,HV4*%
%TO.N,Net-(U2-HV4)*%
X97000000Y-31900000D03*
%TO.P,LOGIC LEVEL CONV.,7,LV1*%
%TO.N,Net-(U1-GPIO3{slash}D2{slash}A2)*%
X84500000Y-42500000D03*
%TO.P,LOGIC LEVEL CONV.,8,LV2*%
%TO.N,Net-(U1-GPIO4{slash}D3{slash}A3)*%
X87000000Y-42500000D03*
%TO.P,LOGIC LEVEL CONV.,9,LV*%
%TO.N,Net-(U1-VCC_3V3)*%
X89500000Y-42500000D03*
%TO.P,LOGIC LEVEL CONV.,10,GND*%
%TO.N,GND 5V*%
X92000000Y-42500000D03*
%TO.P,LOGIC LEVEL CONV.,11,LV3*%
%TO.N,Net-(U1-GPIO5{slash}D4{slash}I2C_SDA)*%
X94500000Y-42500000D03*
%TO.P,LOGIC LEVEL CONV.,12,LV4*%
%TO.N,Net-(U1-GPIO9{slash}D5{slash}I2C_SCL)*%
X97000000Y-42500000D03*
%TD*%
D11*
%TO.P,D5,1,1*%
%TO.N,Net-(U2-HV4)*%
X68000000Y-47000000D03*
%TD*%
%TO.P,D4,1,1*%
%TO.N,Net-(U2-HV3)*%
X68000000Y-42000000D03*
%TD*%
%TO.P,D3,1,1*%
%TO.N,Net-(U2-HV2)*%
X68000000Y-37000000D03*
%TD*%
%TO.P,D2,1,1*%
%TO.N,Net-(U2-HV1)*%
X68000000Y-32000000D03*
%TD*%
D13*
%TO.P,100\u00B5F 25V,2*%
%TO.N,GND 5V*%
X70500000Y-75500000D03*
D14*
%TO.P,100\u00B5F 25V,1*%
%TO.N,VDD 5V*%
X70500000Y-73000000D03*
%TD*%
D15*
%TO.P,ESP32 S3,14,VBUS*%
%TO.N,VDD 5V*%
X89540000Y-63835000D03*
D12*
X89540000Y-63000000D03*
D15*
%TO.P,ESP32 S3,13,GND*%
%TO.N,GND 5V*%
X87000000Y-63835000D03*
D12*
X87000000Y-63000000D03*
D15*
%TO.P,ESP32 S3,12,VCC_3V3*%
%TO.N,Net-(U1-VCC_3V3)*%
X84460000Y-63835000D03*
D12*
X84460000Y-63000000D03*
D15*
%TO.P,ESP32 S3,11,GPIO9/D10/A10/MOSI*%
%TO.N,unconnected-(U1-GPIO9{slash}D10{slash}A10{slash}MOSI-Pad11)*%
X81920000Y-63835000D03*
D12*
X81920000Y-63000000D03*
D15*
%TO.P,ESP32 S3,10,GPIO8/D9/A9/MISO*%
%TO.N,unconnected-(U1-GPIO8{slash}D9{slash}A9{slash}MISO-Pad10)*%
X79380000Y-63835000D03*
D12*
X79380000Y-63000000D03*
D15*
%TO.P,ESP32 S3,9,GPIO7/D8/A8/SCK*%
%TO.N,unconnected-(U1-GPIO7{slash}D8{slash}A8{slash}SCK-Pad9)*%
X76840000Y-63835000D03*
D12*
X76840000Y-63000000D03*
D15*
%TO.P,ESP32 S3,8,U0RXD/D7/RX*%
%TO.N,unconnected-(U1-U0RXD{slash}D7{slash}RX-Pad8)*%
X74300000Y-63835000D03*
D12*
X74300000Y-63000000D03*
%TO.P,ESP32 S3,7,U0TXD/D6/TX*%
%TO.N,unconnected-(U1-U0TXD{slash}D6{slash}TX-Pad7)*%
X74300000Y-47760000D03*
D16*
X74300000Y-46925000D03*
D12*
%TO.P,ESP32 S3,6,GPIO9/D5/I2C_SCL*%
%TO.N,Net-(U1-GPIO9{slash}D5{slash}I2C_SCL)*%
X76840000Y-47760000D03*
D16*
X76840000Y-46925000D03*
D12*
%TO.P,ESP32 S3,5,GPIO5/D4/I2C_SDA*%
%TO.N,Net-(U1-GPIO5{slash}D4{slash}I2C_SDA)*%
X79380000Y-47760000D03*
D16*
X79380000Y-46925000D03*
D12*
%TO.P,ESP32 S3,4,GPIO4/D3/A3*%
%TO.N,Net-(U1-GPIO4{slash}D3{slash}A3)*%
X81920000Y-47760000D03*
D16*
X81920000Y-46925000D03*
D12*
%TO.P,ESP32 S3,3,GPIO3/D2/A2*%
%TO.N,Net-(U1-GPIO3{slash}D2{slash}A2)*%
X84460000Y-47760000D03*
D16*
X84460000Y-46925000D03*
D12*
%TO.P,ESP32 S3,2,GPIO2/DA/A1*%
%TO.N,unconnected-(U1-GPIO2{slash}DA{slash}A1-Pad2)*%
X87000000Y-47760000D03*
D16*
X87000000Y-46925000D03*
D12*
%TO.P,ESP32 S3,1,GPIO1/D0/A0*%
%TO.N,unconnected-(U1-GPIO1{slash}D0{slash}A0-Pad1)*%
X89540000Y-47760000D03*
D16*
X89540000Y-46925000D03*
%TD*%
D17*
%TO.N,Net-(U2-HV1)*%
X68000000Y-32000000D02*
X72000000Y-36000000D01*
X72000000Y-36000000D02*
X80400000Y-36000000D01*
X80400000Y-36000000D02*
X84500000Y-31900000D01*
%TO.N,Net-(U2-HV2)*%
X70600000Y-37600000D02*
X84000000Y-37600000D01*
X70000000Y-37000000D02*
X70600000Y-37600000D01*
X84000000Y-37600000D02*
X87000000Y-34600000D01*
X68000000Y-37000000D02*
X70000000Y-37000000D01*
X87000000Y-34600000D02*
X87000000Y-31900000D01*
%TO.N,Net-(U2-HV3)*%
X68000000Y-42000000D02*
X71302944Y-42000000D01*
X71302944Y-42000000D02*
X74502944Y-38800000D01*
X74502944Y-38800000D02*
X90200000Y-38800000D01*
X90200000Y-38800000D02*
X94500000Y-34500000D01*
X94500000Y-34500000D02*
X94500000Y-31900000D01*
%TO.N,GND 24V*%
X90275000Y-76525000D02*
X90275000Y-74725000D01*
X90275000Y-74725000D02*
X96000000Y-69000000D01*
%TO.N,+24V*%
X96000000Y-64000000D02*
X94800000Y-64000000D01*
X94800000Y-64000000D02*
X90275000Y-68525000D01*
%TO.N,Net-(U2-HV4)*%
X75000000Y-40000000D02*
X91000000Y-40000000D01*
X68000000Y-47000000D02*
X75000000Y-40000000D01*
X91000000Y-40000000D02*
X97000000Y-34000000D01*
X97000000Y-34000000D02*
X97000000Y-31900000D01*
%TO.N,VDD 5V*%
X68000000Y-53000000D02*
X70500000Y-55500000D01*
X70500000Y-55500000D02*
X70500000Y-73000000D01*
%TO.N,GND 5V*%
X68000000Y-63000000D02*
X68000000Y-74000000D01*
X68000000Y-74000000D02*
X69500000Y-75500000D01*
X69500000Y-75500000D02*
X70500000Y-75500000D01*
X68000000Y-58000000D02*
X68000000Y-63000000D01*
X69368630Y-75500000D02*
X70500000Y-75500000D01*
X93200000Y-43700000D02*
X93200000Y-45000000D01*
X93200000Y-45000000D02*
X93200000Y-51800000D01*
X93200000Y-51800000D02*
X87000000Y-58000000D01*
X92000000Y-42500000D02*
X93200000Y-43700000D01*
X87000000Y-58000000D02*
X87000000Y-63000000D01*
%TO.N,Net-(U1-VCC_3V3)*%
X92000000Y-45000000D02*
X92000000Y-51000000D01*
X89500000Y-42500000D02*
X92000000Y-45000000D01*
X92000000Y-51000000D02*
X84460000Y-58540000D01*
X84460000Y-58540000D02*
X84460000Y-63000000D01*
%TO.N,Net-(U1-GPIO3{slash}D2{slash}A2)*%
X84500000Y-42500000D02*
X84500000Y-47720000D01*
X84500000Y-47720000D02*
X84460000Y-47760000D01*
%TO.N,VDD 5V*%
X77275000Y-68525000D02*
X86066000Y-68525000D01*
X86066000Y-68525000D02*
X89540000Y-65051000D01*
X89540000Y-65051000D02*
X89540000Y-63000000D01*
X70500000Y-73000000D02*
X72800000Y-73000000D01*
X72800000Y-73000000D02*
X77275000Y-68525000D01*
D18*
X89540000Y-64077630D02*
X89540000Y-63000000D01*
X70500000Y-73000000D02*
X71000000Y-73000000D01*
D17*
%TO.N,GND 5V*%
X70500000Y-75500000D02*
X76250000Y-75500000D01*
X76250000Y-75500000D02*
X77275000Y-76525000D01*
%TD*%
M02*
