%TF.GenerationSoftware,KiCad,Pcbnew,8.0.4*%
%TF.CreationDate,2026-02-03T00:17:50+01:00*%
%TF.ProjectId,bob,626f622e-6b69-4636-9164-5f7063625858,rev?*%
%TF.SameCoordinates,Original*%
%TF.FileFunction,Legend,Bot*%
%TF.FilePolarity,Positive*%
%FSLAX46Y46*%
G04 Gerber Fmt 4.6, Leading zero omitted, Abs format (unit mm)*
G04 Created by KiCad (PCBNEW 8.0.4) date 2026-02-03 00:17:50*
%MOMM*%
%LPD*%
G01*
G04 APERTURE LIST*
%ADD10C,0.300000*%
G04 APERTURE END LIST*
D10*
G36*
X97986685Y-51328216D02*
G01*
X98027688Y-51432582D01*
X98068555Y-51537068D01*
X98109140Y-51641277D01*
X98149298Y-51744810D01*
X98188884Y-51847267D01*
X98227751Y-51948251D01*
X98265755Y-52047363D01*
X98302750Y-52144203D01*
X98338591Y-52238374D01*
X98373132Y-52329476D01*
X98406227Y-52417110D01*
X98437732Y-52500879D01*
X98467501Y-52580382D01*
X98495388Y-52655222D01*
X98521249Y-52725000D01*
X98166242Y-52725000D01*
X98031786Y-52373290D01*
X97464654Y-52373290D01*
X97435799Y-52451570D01*
X97406921Y-52528329D01*
X97377997Y-52604463D01*
X97349004Y-52680870D01*
X97332397Y-52725000D01*
X96971161Y-52725000D01*
X97204643Y-52100348D01*
X97559176Y-52100348D01*
X97939462Y-52100348D01*
X97914859Y-52025775D01*
X97890123Y-51950889D01*
X97865499Y-51875960D01*
X97841231Y-51801258D01*
X97817564Y-51727054D01*
X97794743Y-51653619D01*
X97773012Y-51581222D01*
X97752616Y-51510136D01*
X97748220Y-51510136D01*
X97722399Y-51594876D01*
X97695829Y-51678697D01*
X97668082Y-51764115D01*
X97644749Y-51835289D01*
X97620170Y-51910383D01*
X97594125Y-51990685D01*
X97566397Y-52077483D01*
X97559176Y-52100348D01*
X97204643Y-52100348D01*
X97532065Y-51224371D01*
X97945690Y-51224371D01*
X97986685Y-51328216D01*
G37*
G36*
X96275069Y-52454623D02*
G01*
X96360534Y-52442439D01*
X96429726Y-52405840D01*
X96481907Y-52344752D01*
X96511863Y-52275088D01*
X96529065Y-52188325D01*
X96533356Y-52106577D01*
X96533356Y-51224371D01*
X96877739Y-51224371D01*
X96877739Y-52117201D01*
X96874845Y-52201735D01*
X96866180Y-52278809D01*
X96848200Y-52362207D01*
X96821990Y-52436563D01*
X96787594Y-52502805D01*
X96760136Y-52542916D01*
X96708317Y-52601271D01*
X96647411Y-52650165D01*
X96577559Y-52689423D01*
X96498904Y-52718868D01*
X96411589Y-52738324D01*
X96335597Y-52746579D01*
X96275069Y-52748447D01*
X96195037Y-52745130D01*
X96120401Y-52735241D01*
X96034806Y-52713772D01*
X95957900Y-52682351D01*
X95889826Y-52641152D01*
X95830726Y-52590351D01*
X95790003Y-52542916D01*
X95744473Y-52470641D01*
X95714175Y-52400458D01*
X95692025Y-52321696D01*
X95679853Y-52248840D01*
X95673451Y-52168847D01*
X95672400Y-52117201D01*
X95672400Y-51224371D01*
X96016782Y-51224371D01*
X96016782Y-52106577D01*
X96021074Y-52188325D01*
X96038276Y-52275088D01*
X96068232Y-52344752D01*
X96120413Y-52405840D01*
X96189605Y-52442439D01*
X96275069Y-52454623D01*
G37*
G36*
X94688346Y-51200924D02*
G01*
X94774162Y-51204556D01*
X94855896Y-51215294D01*
X94933347Y-51232904D01*
X95006315Y-51257150D01*
X95074600Y-51287797D01*
X95137999Y-51324611D01*
X95223500Y-51390879D01*
X95296882Y-51469699D01*
X95357466Y-51560278D01*
X95390412Y-51626804D01*
X95417168Y-51697969D01*
X95437534Y-51773538D01*
X95451310Y-51853275D01*
X95458294Y-51936944D01*
X95459176Y-51980181D01*
X95455866Y-52063674D01*
X95446089Y-52143624D01*
X95430078Y-52219776D01*
X95408063Y-52291877D01*
X95364289Y-52391874D01*
X95308308Y-52481324D01*
X95240900Y-52559367D01*
X95162847Y-52625147D01*
X95074928Y-52677803D01*
X94977925Y-52716477D01*
X94872617Y-52740311D01*
X94798185Y-52747532D01*
X94759787Y-52748447D01*
X94681222Y-52744543D01*
X94607866Y-52733357D01*
X94523997Y-52710339D01*
X94449428Y-52678721D01*
X94384804Y-52640046D01*
X94321292Y-52586492D01*
X94295603Y-52557571D01*
X94293405Y-52557571D01*
X94295459Y-52631063D01*
X94295603Y-52646231D01*
X94295603Y-52725000D01*
X93974302Y-52725000D01*
X93974302Y-51904344D01*
X94776639Y-51904344D01*
X94776639Y-52183879D01*
X94507728Y-52183879D01*
X94433887Y-52183764D01*
X94357417Y-52182831D01*
X94314654Y-52181681D01*
X94342355Y-52263564D01*
X94386956Y-52335971D01*
X94450674Y-52394988D01*
X94519975Y-52431120D01*
X94605375Y-52452973D01*
X94686147Y-52458653D01*
X94778724Y-52450001D01*
X94860726Y-52424678D01*
X94931608Y-52383633D01*
X94990825Y-52327815D01*
X95037832Y-52258172D01*
X95072084Y-52175653D01*
X95093034Y-52081208D01*
X95099691Y-52003118D01*
X95100139Y-51975785D01*
X95096189Y-51897064D01*
X95084500Y-51823648D01*
X95057286Y-51734931D01*
X95017305Y-51657854D01*
X94965121Y-51593679D01*
X94901303Y-51543667D01*
X94826417Y-51509081D01*
X94741029Y-51491183D01*
X94694574Y-51488886D01*
X94619144Y-51494971D01*
X94539632Y-51517835D01*
X94471740Y-51556825D01*
X94415064Y-51611045D01*
X94369198Y-51679595D01*
X94350191Y-51718963D01*
X93974302Y-51716765D01*
X94005101Y-51629543D01*
X94044153Y-51549441D01*
X94091189Y-51476777D01*
X94145940Y-51411870D01*
X94208140Y-51355038D01*
X94277519Y-51306602D01*
X94353810Y-51266878D01*
X94436745Y-51236187D01*
X94526055Y-51214846D01*
X94621473Y-51203175D01*
X94688346Y-51200924D01*
G37*
G36*
X93716748Y-52725000D02*
G01*
X93385188Y-52725000D01*
X93385188Y-52011688D01*
X93385200Y-51938313D01*
X93385326Y-51855516D01*
X93385709Y-51780073D01*
X93386708Y-51695388D01*
X93388529Y-51612606D01*
X93391416Y-51526988D01*
X93387020Y-51526988D01*
X93369663Y-51598914D01*
X93350847Y-51671159D01*
X93331035Y-51744267D01*
X93307680Y-51827692D01*
X93286582Y-51900971D01*
X93269417Y-51959298D01*
X93040439Y-52725000D01*
X92681402Y-52725000D01*
X92450593Y-51942445D01*
X92428278Y-51867496D01*
X92406905Y-51794787D01*
X92382998Y-51711911D01*
X92361565Y-51635449D01*
X92340496Y-51556669D01*
X92332990Y-51526988D01*
X92328593Y-51526988D01*
X92330613Y-51601042D01*
X92332496Y-51675808D01*
X92334157Y-51751732D01*
X92335513Y-51829257D01*
X92336480Y-51908828D01*
X92336973Y-51990889D01*
X92337020Y-52024511D01*
X92337020Y-52725000D01*
X92013520Y-52725000D01*
X92013520Y-51224371D01*
X92545115Y-51224371D01*
X92719138Y-51837665D01*
X92741809Y-51916338D01*
X92762643Y-51987703D01*
X92786285Y-52067745D01*
X92807478Y-52138936D01*
X92830009Y-52214688D01*
X92852806Y-52292837D01*
X92855792Y-52303314D01*
X92857990Y-52303314D01*
X92876829Y-52229976D01*
X92895852Y-52157472D01*
X92914977Y-52086044D01*
X92937940Y-52002095D01*
X92960784Y-51920466D01*
X92979623Y-51854518D01*
X93164637Y-51224371D01*
X93716748Y-51224371D01*
X93716748Y-52725000D01*
G37*
G36*
X91363224Y-52115369D02*
G01*
X90768614Y-52115369D01*
X90768614Y-51825575D01*
X91363224Y-51825575D01*
X91363224Y-51518562D01*
X90716224Y-51518562D01*
X90716224Y-51224371D01*
X91703210Y-51224371D01*
X91703210Y-52725000D01*
X90707798Y-52725000D01*
X90707798Y-52431175D01*
X91363224Y-52431175D01*
X91363224Y-52115369D01*
G37*
G36*
X89162107Y-51224371D02*
G01*
X89479378Y-51224371D01*
X89479378Y-51887857D01*
X89479217Y-51962630D01*
X89478599Y-52049536D01*
X89477517Y-52132885D01*
X89475972Y-52212169D01*
X89473962Y-52286882D01*
X89472784Y-52322365D01*
X89474982Y-52322365D01*
X89507537Y-52248876D01*
X89539050Y-52177377D01*
X89570853Y-52107409D01*
X89607462Y-52030467D01*
X89634717Y-51975785D01*
X90016835Y-51224371D01*
X90461967Y-51224371D01*
X90461967Y-52725000D01*
X90145062Y-52725000D01*
X90145062Y-52112438D01*
X90145078Y-52036866D01*
X90145185Y-51957629D01*
X90145477Y-51877504D01*
X90146046Y-51799265D01*
X90146984Y-51725688D01*
X90148726Y-51647459D01*
X90149092Y-51635799D01*
X90146894Y-51635799D01*
X90118046Y-51705191D01*
X90083235Y-51781138D01*
X90048099Y-51854325D01*
X90008190Y-51935121D01*
X89973328Y-52004365D01*
X89936272Y-52076982D01*
X89926709Y-52095586D01*
X89601011Y-52725000D01*
X89162107Y-52725000D01*
X89162107Y-51224371D01*
G37*
G36*
X88219452Y-52725000D02*
G01*
X88219452Y-51520760D01*
X87822313Y-51520760D01*
X87822313Y-51224371D01*
X88960607Y-51224371D01*
X88960607Y-51520760D01*
X88563834Y-51520760D01*
X88563834Y-52725000D01*
X88219452Y-52725000D01*
G37*
G36*
X87281926Y-52115369D02*
G01*
X86687316Y-52115369D01*
X86687316Y-51825575D01*
X87281926Y-51825575D01*
X87281926Y-51518562D01*
X86634926Y-51518562D01*
X86634926Y-51224371D01*
X87621912Y-51224371D01*
X87621912Y-52725000D01*
X86626500Y-52725000D01*
X86626500Y-52431175D01*
X87281926Y-52431175D01*
X87281926Y-52115369D01*
G37*
G36*
X86380669Y-52725000D02*
G01*
X86011008Y-52725000D01*
X85935109Y-52724703D01*
X85839844Y-52722780D01*
X85750850Y-52718020D01*
X85667568Y-52709234D01*
X85589440Y-52695233D01*
X85515908Y-52674827D01*
X85446414Y-52646827D01*
X85380400Y-52610044D01*
X85364375Y-52599337D01*
X85297648Y-52553823D01*
X85237979Y-52494545D01*
X85185936Y-52423641D01*
X85142083Y-52343248D01*
X85106990Y-52255505D01*
X85081221Y-52162550D01*
X85065344Y-52066521D01*
X85060049Y-51971755D01*
X85422993Y-51971755D01*
X85427400Y-52058735D01*
X85440521Y-52135777D01*
X85468958Y-52218554D01*
X85510498Y-52286842D01*
X85564859Y-52341220D01*
X85631754Y-52382268D01*
X85694103Y-52405896D01*
X85768607Y-52422962D01*
X85847270Y-52431325D01*
X85918684Y-52433374D01*
X86036287Y-52433374D01*
X86036287Y-51514532D01*
X85897801Y-51514532D01*
X85819879Y-51517508D01*
X85744508Y-51528112D01*
X85694103Y-51541643D01*
X85618119Y-51574550D01*
X85553949Y-51620074D01*
X85502028Y-51678274D01*
X85462792Y-51749208D01*
X85436678Y-51832934D01*
X85425528Y-51909165D01*
X85422993Y-51971755D01*
X85060049Y-51971755D01*
X85059926Y-51969556D01*
X85063240Y-51885687D01*
X85073059Y-51806418D01*
X85089198Y-51731834D01*
X85111475Y-51662016D01*
X85155993Y-51566414D01*
X85213284Y-51482009D01*
X85282726Y-51409085D01*
X85363697Y-51347925D01*
X85455577Y-51298811D01*
X85557745Y-51262025D01*
X85631265Y-51244490D01*
X85708897Y-51232644D01*
X85790457Y-51226570D01*
X85866218Y-51224993D01*
X85940909Y-51224439D01*
X86006978Y-51224371D01*
X86380669Y-51224371D01*
X86380669Y-52725000D01*
G37*
G36*
X84003698Y-52115369D02*
G01*
X83409089Y-52115369D01*
X83409089Y-51825575D01*
X84003698Y-51825575D01*
X84003698Y-51518562D01*
X83356699Y-51518562D01*
X83356699Y-51224371D01*
X84343684Y-51224371D01*
X84343684Y-52725000D01*
X83348272Y-52725000D01*
X83348272Y-52431175D01*
X84003698Y-52431175D01*
X84003698Y-52115369D01*
G37*
G36*
X82101535Y-52252756D02*
G01*
X82143732Y-52317574D01*
X82195063Y-52370833D01*
X82266821Y-52417066D01*
X82338786Y-52441952D01*
X82420665Y-52452206D01*
X82435293Y-52452424D01*
X82524993Y-52443819D01*
X82604656Y-52418685D01*
X82673688Y-52378043D01*
X82731498Y-52322915D01*
X82777493Y-52254323D01*
X82811079Y-52173289D01*
X82831666Y-52080835D01*
X82838218Y-52004615D01*
X82838660Y-51977983D01*
X82834712Y-51896669D01*
X82823035Y-51821562D01*
X82795874Y-51731749D01*
X82756009Y-51654594D01*
X82704033Y-51591023D01*
X82640538Y-51541963D01*
X82566116Y-51508342D01*
X82481361Y-51491087D01*
X82435293Y-51488886D01*
X82361063Y-51494891D01*
X82281539Y-51517445D01*
X82212668Y-51555895D01*
X82154696Y-51609341D01*
X82107869Y-51676887D01*
X82088712Y-51715666D01*
X81712822Y-51713468D01*
X81743785Y-51627089D01*
X81783280Y-51547672D01*
X81830973Y-51475553D01*
X81886528Y-51411065D01*
X81949611Y-51354544D01*
X82019887Y-51306326D01*
X82097020Y-51266744D01*
X82180675Y-51236135D01*
X82270518Y-51214834D01*
X82366212Y-51203174D01*
X82433094Y-51200924D01*
X82516788Y-51204458D01*
X82596801Y-51214925D01*
X82672896Y-51232121D01*
X82744836Y-51255844D01*
X82812384Y-51285892D01*
X82904953Y-51342377D01*
X82986304Y-51411950D01*
X83055639Y-51493926D01*
X83112156Y-51587622D01*
X83142318Y-51656258D01*
X83166191Y-51729595D01*
X83183536Y-51807430D01*
X83194117Y-51889561D01*
X83197697Y-51975785D01*
X83194166Y-52063734D01*
X83183725Y-52147095D01*
X83166596Y-52225717D01*
X83143005Y-52299450D01*
X83113176Y-52368145D01*
X83057226Y-52461414D01*
X82988503Y-52542504D01*
X82907762Y-52610911D01*
X82815761Y-52666129D01*
X82748545Y-52695364D01*
X82676886Y-52718363D01*
X82601008Y-52734976D01*
X82521135Y-52745054D01*
X82437491Y-52748447D01*
X82337532Y-52743679D01*
X82243504Y-52729545D01*
X82155677Y-52706300D01*
X82074320Y-52674200D01*
X81999703Y-52633500D01*
X81932097Y-52584456D01*
X81871770Y-52527323D01*
X81818993Y-52462356D01*
X81774037Y-52389811D01*
X81737169Y-52309943D01*
X81717219Y-52252756D01*
X82101535Y-52252756D01*
G37*
G36*
X80916854Y-51204458D02*
G01*
X80996529Y-51214925D01*
X81072330Y-51232121D01*
X81144019Y-51255844D01*
X81211354Y-51285892D01*
X81303668Y-51342377D01*
X81384835Y-51411950D01*
X81454042Y-51493926D01*
X81510479Y-51587622D01*
X81540608Y-51656258D01*
X81564460Y-51729595D01*
X81581796Y-51807430D01*
X81592373Y-51889561D01*
X81595952Y-51975785D01*
X81592422Y-52063734D01*
X81581980Y-52147095D01*
X81564852Y-52225717D01*
X81541261Y-52299450D01*
X81511432Y-52368145D01*
X81455482Y-52461414D01*
X81386758Y-52542504D01*
X81306017Y-52610911D01*
X81214016Y-52666129D01*
X81146801Y-52695364D01*
X81075142Y-52718363D01*
X80999263Y-52734976D01*
X80919390Y-52745054D01*
X80835746Y-52748447D01*
X80751002Y-52745054D01*
X80670157Y-52734976D01*
X80593429Y-52718363D01*
X80521034Y-52695364D01*
X80453187Y-52666129D01*
X80360418Y-52610911D01*
X80279101Y-52542504D01*
X80209966Y-52461414D01*
X80153741Y-52368145D01*
X80123792Y-52299450D01*
X80100121Y-52225717D01*
X80082946Y-52147095D01*
X80072482Y-52063734D01*
X80069034Y-51977983D01*
X80432379Y-51977983D01*
X80436325Y-52056057D01*
X80447990Y-52128426D01*
X80475098Y-52215298D01*
X80514845Y-52290238D01*
X80566614Y-52352225D01*
X80629786Y-52400238D01*
X80703743Y-52433254D01*
X80787867Y-52450252D01*
X80833548Y-52452424D01*
X80923249Y-52443819D01*
X81002911Y-52418685D01*
X81071944Y-52378043D01*
X81129754Y-52322915D01*
X81175748Y-52254323D01*
X81209335Y-52173289D01*
X81229921Y-52080835D01*
X81236473Y-52004615D01*
X81236915Y-51977983D01*
X81232967Y-51896669D01*
X81221290Y-51821562D01*
X81194129Y-51731749D01*
X81154265Y-51654594D01*
X81102289Y-51591023D01*
X81038793Y-51541963D01*
X80964372Y-51508342D01*
X80879616Y-51491087D01*
X80833548Y-51488886D01*
X80744573Y-51497610D01*
X80665455Y-51523164D01*
X80596814Y-51564621D01*
X80539266Y-51621052D01*
X80493430Y-51691532D01*
X80459925Y-51775131D01*
X80439369Y-51870924D01*
X80432821Y-51950213D01*
X80432379Y-51977983D01*
X80069034Y-51977983D01*
X80068946Y-51975785D01*
X80072526Y-51889561D01*
X80083107Y-51807430D01*
X80100452Y-51729595D01*
X80124324Y-51656258D01*
X80154486Y-51587622D01*
X80190700Y-51523890D01*
X80255852Y-51437931D01*
X80333287Y-51364147D01*
X80422205Y-51303224D01*
X80521806Y-51255844D01*
X80593747Y-51232121D01*
X80669842Y-51214925D01*
X80749855Y-51204458D01*
X80833548Y-51200924D01*
X80916854Y-51204458D01*
G37*
G36*
X79939253Y-52267411D02*
G01*
X79930016Y-52348271D01*
X79909798Y-52422680D01*
X79879014Y-52490308D01*
X79822253Y-52569366D01*
X79768435Y-52619899D01*
X79705441Y-52662559D01*
X79633687Y-52697019D01*
X79553588Y-52722949D01*
X79465562Y-52740024D01*
X79370026Y-52747914D01*
X79336584Y-52748447D01*
X79238714Y-52743755D01*
X79147675Y-52729926D01*
X79064078Y-52707327D01*
X78988534Y-52676325D01*
X78921652Y-52637289D01*
X78864043Y-52590586D01*
X78802711Y-52517023D01*
X78760396Y-52431356D01*
X78742010Y-52359686D01*
X78735746Y-52282065D01*
X78743274Y-52190270D01*
X78766017Y-52112021D01*
X78804216Y-52045440D01*
X78858112Y-51988653D01*
X78927944Y-51939783D01*
X79013954Y-51896953D01*
X79089222Y-51867667D01*
X79173827Y-51839931D01*
X79235467Y-51821912D01*
X79351238Y-51788572D01*
X79428810Y-51762870D01*
X79492949Y-51726643D01*
X79534158Y-51658492D01*
X79538084Y-51624075D01*
X79518178Y-51550522D01*
X79459981Y-51498556D01*
X79387387Y-51477079D01*
X79342812Y-51474232D01*
X79262341Y-51483316D01*
X79192120Y-51515038D01*
X79139205Y-51576087D01*
X79113834Y-51651186D01*
X78769452Y-51651186D01*
X78778866Y-51573455D01*
X78798556Y-51502566D01*
X78839983Y-51418992D01*
X78897738Y-51348309D01*
X78970713Y-51290933D01*
X79057800Y-51247281D01*
X79131710Y-51223798D01*
X79212468Y-51208445D01*
X79299606Y-51201397D01*
X79329989Y-51200924D01*
X79423133Y-51205662D01*
X79509529Y-51219544D01*
X79588650Y-51242074D01*
X79659968Y-51272756D01*
X79722957Y-51311093D01*
X79793075Y-51373261D01*
X79846199Y-51446980D01*
X79881079Y-51531073D01*
X79896466Y-51624365D01*
X79897121Y-51648988D01*
X79890790Y-51731382D01*
X79871269Y-51804206D01*
X79827118Y-51883316D01*
X79775034Y-51938297D01*
X79707193Y-51986987D01*
X79622806Y-52030395D01*
X79548182Y-52060092D01*
X79463473Y-52087811D01*
X79432937Y-52096685D01*
X79329989Y-52125994D01*
X79247915Y-52150196D01*
X79174201Y-52178026D01*
X79113698Y-52222623D01*
X79090753Y-52298551D01*
X79111635Y-52377245D01*
X79170173Y-52434748D01*
X79248837Y-52464433D01*
X79321563Y-52471475D01*
X79402005Y-52464071D01*
X79477844Y-52437007D01*
X79540849Y-52382399D01*
X79575348Y-52314467D01*
X79586444Y-52267411D01*
X79939253Y-52267411D01*
G37*
G36*
X78515561Y-52725000D02*
G01*
X78171179Y-52725000D01*
X78171179Y-52186078D01*
X78045150Y-52186078D01*
X77967607Y-52185271D01*
X77877999Y-52181239D01*
X77796093Y-52172539D01*
X77721430Y-52157772D01*
X77640743Y-52130070D01*
X77569023Y-52089194D01*
X77557885Y-52080931D01*
X77500840Y-52028450D01*
X77455154Y-51966183D01*
X77421061Y-51895319D01*
X77398791Y-51817046D01*
X77388578Y-51732551D01*
X77388038Y-51709438D01*
X77734473Y-51709438D01*
X77748066Y-51787339D01*
X77795361Y-51851275D01*
X77862571Y-51886294D01*
X77937974Y-51901498D01*
X77996789Y-51904344D01*
X78171179Y-51904344D01*
X78171179Y-51516364D01*
X78003384Y-51516364D01*
X77923265Y-51520949D01*
X77846758Y-51538695D01*
X77783380Y-51576591D01*
X77743246Y-51643052D01*
X77734473Y-51709438D01*
X77388038Y-51709438D01*
X77387892Y-51703210D01*
X77392837Y-51625250D01*
X77407511Y-51553338D01*
X77441800Y-51467363D01*
X77492395Y-51393340D01*
X77558729Y-51331957D01*
X77640236Y-51283900D01*
X77710982Y-51257016D01*
X77789705Y-51238305D01*
X77876165Y-51228055D01*
X77906664Y-51226570D01*
X77983234Y-51224646D01*
X78060893Y-51224372D01*
X78066399Y-51224371D01*
X78515561Y-51224371D01*
X78515561Y-52725000D01*
G37*
G36*
X76834682Y-52725000D02*
G01*
X76834682Y-52106943D01*
X76288799Y-52106943D01*
X76288799Y-52725000D01*
X75944417Y-52725000D01*
X75944417Y-51224371D01*
X76288799Y-51224371D01*
X76288799Y-51810554D01*
X76834682Y-51810554D01*
X76834682Y-51224371D01*
X77179064Y-51224371D01*
X77179064Y-52725000D01*
X76834682Y-52725000D01*
G37*
G36*
X75294487Y-52115369D02*
G01*
X74699877Y-52115369D01*
X74699877Y-51825575D01*
X75294487Y-51825575D01*
X75294487Y-51518562D01*
X74647487Y-51518562D01*
X74647487Y-51224371D01*
X75634473Y-51224371D01*
X75634473Y-52725000D01*
X74639061Y-52725000D01*
X74639061Y-52431175D01*
X75294487Y-52431175D01*
X75294487Y-52115369D01*
G37*
G36*
X74393230Y-52725000D02*
G01*
X74051046Y-52725000D01*
X74051046Y-52185711D01*
X73922819Y-52185711D01*
X73605914Y-52725000D01*
X73219399Y-52725000D01*
X73595289Y-52127093D01*
X73516049Y-52094326D01*
X73442004Y-52048601D01*
X73376525Y-51988930D01*
X73322985Y-51914323D01*
X73291012Y-51843218D01*
X73270563Y-51761414D01*
X73266795Y-51712735D01*
X73599319Y-51712735D01*
X73612874Y-51790160D01*
X73659830Y-51855194D01*
X73726227Y-51891681D01*
X73800366Y-51907861D01*
X73857972Y-51910938D01*
X74051046Y-51910938D01*
X74051046Y-51516364D01*
X73881053Y-51516364D01*
X73802294Y-51520373D01*
X73723852Y-51536613D01*
X73655572Y-51573223D01*
X73609841Y-51641283D01*
X73599319Y-51712735D01*
X73266795Y-51712735D01*
X73263363Y-51668405D01*
X73269698Y-51588815D01*
X73288382Y-51514380D01*
X73318939Y-51446155D01*
X73360890Y-51385200D01*
X73413757Y-51332571D01*
X73433722Y-51317062D01*
X73505572Y-51276200D01*
X73585008Y-51248780D01*
X73660740Y-51234283D01*
X73744933Y-51226615D01*
X73822520Y-51224428D01*
X73838921Y-51224371D01*
X74393230Y-51224371D01*
X74393230Y-52725000D01*
G37*
G36*
X72693300Y-52115369D02*
G01*
X72098691Y-52115369D01*
X72098691Y-51825575D01*
X72693300Y-51825575D01*
X72693300Y-51518562D01*
X72046301Y-51518562D01*
X72046301Y-51224371D01*
X73033286Y-51224371D01*
X73033286Y-52725000D01*
X72037875Y-52725000D01*
X72037875Y-52431175D01*
X72693300Y-52431175D01*
X72693300Y-52115369D01*
G37*
G36*
X71890963Y-52267411D02*
G01*
X71881726Y-52348271D01*
X71861508Y-52422680D01*
X71830723Y-52490308D01*
X71773962Y-52569366D01*
X71720145Y-52619899D01*
X71657151Y-52662559D01*
X71585396Y-52697019D01*
X71505298Y-52722949D01*
X71417272Y-52740024D01*
X71321736Y-52747914D01*
X71288293Y-52748447D01*
X71190423Y-52743755D01*
X71099385Y-52729926D01*
X71015788Y-52707327D01*
X70940244Y-52676325D01*
X70873362Y-52637289D01*
X70815753Y-52590586D01*
X70754421Y-52517023D01*
X70712106Y-52431356D01*
X70693720Y-52359686D01*
X70687456Y-52282065D01*
X70694984Y-52190270D01*
X70717727Y-52112021D01*
X70755926Y-52045440D01*
X70809822Y-51988653D01*
X70879654Y-51939783D01*
X70965664Y-51896953D01*
X71040932Y-51867667D01*
X71125537Y-51839931D01*
X71187177Y-51821912D01*
X71302948Y-51788572D01*
X71380520Y-51762870D01*
X71444659Y-51726643D01*
X71485867Y-51658492D01*
X71489794Y-51624075D01*
X71469888Y-51550522D01*
X71411691Y-51498556D01*
X71339096Y-51477079D01*
X71294521Y-51474232D01*
X71214051Y-51483316D01*
X71143830Y-51515038D01*
X71090915Y-51576087D01*
X71065544Y-51651186D01*
X70721161Y-51651186D01*
X70730576Y-51573455D01*
X70750265Y-51502566D01*
X70791693Y-51418992D01*
X70849448Y-51348309D01*
X70922423Y-51290933D01*
X71009510Y-51247281D01*
X71083420Y-51223798D01*
X71164177Y-51208445D01*
X71251316Y-51201397D01*
X71281699Y-51200924D01*
X71374843Y-51205662D01*
X71461239Y-51219544D01*
X71540359Y-51242074D01*
X71611678Y-51272756D01*
X71674667Y-51311093D01*
X71744785Y-51373261D01*
X71797908Y-51446980D01*
X71832788Y-51531073D01*
X71848176Y-51624365D01*
X71848831Y-51648988D01*
X71842499Y-51731382D01*
X71822979Y-51804206D01*
X71778828Y-51883316D01*
X71726744Y-51938297D01*
X71658903Y-51986987D01*
X71574516Y-52030395D01*
X71499892Y-52060092D01*
X71415182Y-52087811D01*
X71384647Y-52096685D01*
X71281699Y-52125994D01*
X71199625Y-52150196D01*
X71125911Y-52178026D01*
X71065408Y-52222623D01*
X71042463Y-52298551D01*
X71063345Y-52377245D01*
X71121883Y-52434748D01*
X71200547Y-52464433D01*
X71273272Y-52471475D01*
X71353715Y-52464071D01*
X71429554Y-52437007D01*
X71492559Y-52382399D01*
X71527058Y-52314467D01*
X71538154Y-52267411D01*
X71890963Y-52267411D01*
G37*
G36*
X98443579Y-54787411D02*
G01*
X98434343Y-54868271D01*
X98414124Y-54942680D01*
X98383340Y-55010308D01*
X98326579Y-55089366D01*
X98272762Y-55139899D01*
X98209768Y-55182559D01*
X98138013Y-55217019D01*
X98057915Y-55242949D01*
X97969889Y-55260024D01*
X97874353Y-55267914D01*
X97840910Y-55268447D01*
X97743040Y-55263755D01*
X97652002Y-55249926D01*
X97568405Y-55227327D01*
X97492861Y-55196325D01*
X97425979Y-55157289D01*
X97368370Y-55110586D01*
X97307038Y-55037023D01*
X97264723Y-54951356D01*
X97246337Y-54879686D01*
X97240073Y-54802065D01*
X97247600Y-54710270D01*
X97270344Y-54632021D01*
X97308543Y-54565440D01*
X97362438Y-54508653D01*
X97432271Y-54459783D01*
X97518281Y-54416953D01*
X97593549Y-54387667D01*
X97678154Y-54359931D01*
X97739794Y-54341912D01*
X97855565Y-54308572D01*
X97933137Y-54282870D01*
X97997276Y-54246643D01*
X98038484Y-54178492D01*
X98042411Y-54144075D01*
X98022505Y-54070522D01*
X97964308Y-54018556D01*
X97891713Y-53997079D01*
X97847138Y-53994232D01*
X97766667Y-54003316D01*
X97696446Y-54035038D01*
X97643531Y-54096087D01*
X97618161Y-54171186D01*
X97273778Y-54171186D01*
X97283193Y-54093455D01*
X97302882Y-54022566D01*
X97344310Y-53938992D01*
X97402065Y-53868309D01*
X97475039Y-53810933D01*
X97562126Y-53767281D01*
X97636036Y-53743798D01*
X97716794Y-53728445D01*
X97803932Y-53721397D01*
X97834316Y-53720924D01*
X97927460Y-53725662D01*
X98013855Y-53739544D01*
X98092976Y-53762074D01*
X98164295Y-53792756D01*
X98227284Y-53831093D01*
X98297401Y-53893261D01*
X98350525Y-53966980D01*
X98385405Y-54051073D01*
X98400793Y-54144365D01*
X98401448Y-54168988D01*
X98395116Y-54251382D01*
X98375596Y-54324206D01*
X98331445Y-54403316D01*
X98279361Y-54458297D01*
X98211520Y-54506987D01*
X98127133Y-54550395D01*
X98052508Y-54580092D01*
X97967799Y-54607811D01*
X97937264Y-54616685D01*
X97834316Y-54645994D01*
X97752242Y-54670196D01*
X97678528Y-54698026D01*
X97618024Y-54742623D01*
X97595080Y-54818551D01*
X97615962Y-54897245D01*
X97674499Y-54954748D01*
X97753164Y-54984433D01*
X97825889Y-54991475D01*
X97906332Y-54984071D01*
X97982170Y-54957007D01*
X98045176Y-54902399D01*
X98079674Y-54834467D01*
X98090771Y-54787411D01*
X98443579Y-54787411D01*
G37*
G36*
X96005792Y-54772756D02*
G01*
X96047989Y-54837574D01*
X96099320Y-54890833D01*
X96171078Y-54937066D01*
X96243043Y-54961952D01*
X96324922Y-54972206D01*
X96339549Y-54972424D01*
X96429250Y-54963819D01*
X96508913Y-54938685D01*
X96577945Y-54898043D01*
X96635755Y-54842915D01*
X96681749Y-54774323D01*
X96715336Y-54693289D01*
X96735923Y-54600835D01*
X96742475Y-54524615D01*
X96742916Y-54497983D01*
X96738969Y-54416669D01*
X96727291Y-54341562D01*
X96700131Y-54251749D01*
X96660266Y-54174594D01*
X96608290Y-54111023D01*
X96544795Y-54061963D01*
X96470373Y-54028342D01*
X96385617Y-54011087D01*
X96339549Y-54008886D01*
X96265320Y-54014891D01*
X96185796Y-54037445D01*
X96116925Y-54075895D01*
X96058953Y-54129341D01*
X96012126Y-54196887D01*
X95992969Y-54235666D01*
X95617079Y-54233468D01*
X95648041Y-54147089D01*
X95687537Y-54067672D01*
X95735230Y-53995553D01*
X95790785Y-53931065D01*
X95853868Y-53874544D01*
X95924144Y-53826326D01*
X96001277Y-53786744D01*
X96084932Y-53756135D01*
X96174774Y-53734834D01*
X96270469Y-53723174D01*
X96337351Y-53720924D01*
X96421045Y-53724458D01*
X96501057Y-53734925D01*
X96577153Y-53752121D01*
X96649093Y-53775844D01*
X96716641Y-53805892D01*
X96809209Y-53862377D01*
X96890561Y-53931950D01*
X96959896Y-54013926D01*
X97016413Y-54107622D01*
X97046575Y-54176258D01*
X97070447Y-54249595D01*
X97087793Y-54327430D01*
X97098374Y-54409561D01*
X97101953Y-54495785D01*
X97098423Y-54583734D01*
X97087982Y-54667095D01*
X97070853Y-54745717D01*
X97047262Y-54819450D01*
X97017433Y-54888145D01*
X96961483Y-54981414D01*
X96892759Y-55062504D01*
X96812019Y-55130911D01*
X96720018Y-55186129D01*
X96652802Y-55215364D01*
X96581143Y-55238363D01*
X96505265Y-55254976D01*
X96425392Y-55265054D01*
X96341748Y-55268447D01*
X96241789Y-55263679D01*
X96147761Y-55249545D01*
X96059934Y-55226300D01*
X95978577Y-55194200D01*
X95903960Y-55153500D01*
X95836354Y-55104456D01*
X95776027Y-55047323D01*
X95723250Y-54982356D01*
X95678293Y-54909811D01*
X95641426Y-54829943D01*
X95621475Y-54772756D01*
X96005792Y-54772756D01*
G37*
G36*
X95073761Y-55245000D02*
G01*
X95073761Y-54626943D01*
X94527878Y-54626943D01*
X94527878Y-55245000D01*
X94183496Y-55245000D01*
X94183496Y-53744371D01*
X94527878Y-53744371D01*
X94527878Y-54330554D01*
X95073761Y-54330554D01*
X95073761Y-53744371D01*
X95418143Y-53744371D01*
X95418143Y-55245000D01*
X95073761Y-55245000D01*
G37*
G36*
X93873551Y-53744371D02*
G01*
X93873551Y-55245000D01*
X92899023Y-55245000D01*
X92899023Y-54948977D01*
X93529169Y-54948977D01*
X93529169Y-53744371D01*
X93873551Y-53744371D01*
G37*
G36*
X92355338Y-55245000D02*
G01*
X92355338Y-53744371D01*
X92699720Y-53744371D01*
X92699720Y-55245000D01*
X92355338Y-55245000D01*
G37*
G36*
X91412683Y-55245000D02*
G01*
X91412683Y-54040760D01*
X91015544Y-54040760D01*
X91015544Y-53744371D01*
X92153838Y-53744371D01*
X92153838Y-54040760D01*
X91757065Y-54040760D01*
X91757065Y-55245000D01*
X91412683Y-55245000D01*
G37*
G36*
X90183164Y-55245000D02*
G01*
X90183164Y-54040760D01*
X89786025Y-54040760D01*
X89786025Y-53744371D01*
X90924319Y-53744371D01*
X90924319Y-54040760D01*
X90527547Y-54040760D01*
X90527547Y-55245000D01*
X90183164Y-55245000D01*
G37*
G36*
X89245638Y-54635369D02*
G01*
X88651029Y-54635369D01*
X88651029Y-54345575D01*
X89245638Y-54345575D01*
X89245638Y-54038562D01*
X88598639Y-54038562D01*
X88598639Y-53744371D01*
X89585624Y-53744371D01*
X89585624Y-55245000D01*
X88590212Y-55245000D01*
X88590212Y-54951175D01*
X89245638Y-54951175D01*
X89245638Y-54635369D01*
G37*
G36*
X88344382Y-55245000D02*
G01*
X88002198Y-55245000D01*
X88002198Y-54705711D01*
X87873970Y-54705711D01*
X87557065Y-55245000D01*
X87170551Y-55245000D01*
X87546441Y-54647093D01*
X87467200Y-54614326D01*
X87393155Y-54568601D01*
X87327677Y-54508930D01*
X87274136Y-54434323D01*
X87242164Y-54363218D01*
X87221714Y-54281414D01*
X87217946Y-54232735D01*
X87550471Y-54232735D01*
X87564025Y-54310160D01*
X87610981Y-54375194D01*
X87677378Y-54411681D01*
X87751517Y-54427861D01*
X87809124Y-54430938D01*
X88002198Y-54430938D01*
X88002198Y-54036364D01*
X87832205Y-54036364D01*
X87753445Y-54040373D01*
X87675003Y-54056613D01*
X87606723Y-54093223D01*
X87560993Y-54161283D01*
X87550471Y-54232735D01*
X87217946Y-54232735D01*
X87214515Y-54188405D01*
X87220849Y-54108815D01*
X87239534Y-54034380D01*
X87270091Y-53966155D01*
X87312042Y-53905200D01*
X87364909Y-53852571D01*
X87384874Y-53837062D01*
X87456724Y-53796200D01*
X87536160Y-53768780D01*
X87611891Y-53754283D01*
X87696084Y-53746615D01*
X87773671Y-53744428D01*
X87790073Y-53744371D01*
X88344382Y-53744371D01*
X88344382Y-55245000D01*
G37*
G36*
X85684577Y-53744371D02*
G01*
X86001849Y-53744371D01*
X86001849Y-54407857D01*
X86001688Y-54482630D01*
X86001070Y-54569536D01*
X85999988Y-54652885D01*
X85998442Y-54732169D01*
X85996433Y-54806882D01*
X85995254Y-54842365D01*
X85997452Y-54842365D01*
X86030007Y-54768876D01*
X86061520Y-54697377D01*
X86093323Y-54627409D01*
X86129932Y-54550467D01*
X86157187Y-54495785D01*
X86539305Y-53744371D01*
X86984438Y-53744371D01*
X86984438Y-55245000D01*
X86667533Y-55245000D01*
X86667533Y-54632438D01*
X86667548Y-54556866D01*
X86667656Y-54477629D01*
X86667948Y-54397504D01*
X86668517Y-54319265D01*
X86669454Y-54245688D01*
X86671197Y-54167459D01*
X86671563Y-54155799D01*
X86669364Y-54155799D01*
X86640516Y-54225191D01*
X86605705Y-54301138D01*
X86570569Y-54374325D01*
X86530661Y-54455121D01*
X86495799Y-54524365D01*
X86458742Y-54596982D01*
X86449180Y-54615586D01*
X86123482Y-55245000D01*
X85684577Y-55245000D01*
X85684577Y-53744371D01*
G37*
G36*
X85373900Y-55245000D02*
G01*
X85004239Y-55245000D01*
X84928340Y-55244703D01*
X84833075Y-55242780D01*
X84744081Y-55238020D01*
X84660799Y-55229234D01*
X84582671Y-55215233D01*
X84509139Y-55194827D01*
X84439645Y-55166827D01*
X84373631Y-55130044D01*
X84357606Y-55119337D01*
X84290879Y-55073823D01*
X84231210Y-55014545D01*
X84179166Y-54943641D01*
X84135314Y-54863248D01*
X84100221Y-54775505D01*
X84074452Y-54682550D01*
X84058575Y-54586521D01*
X84053280Y-54491755D01*
X84416224Y-54491755D01*
X84420631Y-54578735D01*
X84433752Y-54655777D01*
X84462188Y-54738554D01*
X84503729Y-54806842D01*
X84558090Y-54861220D01*
X84624985Y-54902268D01*
X84687334Y-54925896D01*
X84761838Y-54942962D01*
X84840501Y-54951325D01*
X84911915Y-54953374D01*
X85029518Y-54953374D01*
X85029518Y-54034532D01*
X84891032Y-54034532D01*
X84813110Y-54037508D01*
X84737739Y-54048112D01*
X84687334Y-54061643D01*
X84611350Y-54094550D01*
X84547180Y-54140074D01*
X84495259Y-54198274D01*
X84456023Y-54269208D01*
X84429909Y-54352934D01*
X84418759Y-54429165D01*
X84416224Y-54491755D01*
X84053280Y-54491755D01*
X84053157Y-54489556D01*
X84056471Y-54405687D01*
X84066290Y-54326418D01*
X84082429Y-54251834D01*
X84104706Y-54182016D01*
X84149224Y-54086414D01*
X84206515Y-54002009D01*
X84275957Y-53929085D01*
X84356928Y-53867925D01*
X84448808Y-53818811D01*
X84550976Y-53782025D01*
X84624496Y-53764490D01*
X84702128Y-53752644D01*
X84783688Y-53746570D01*
X84859449Y-53744993D01*
X84934140Y-53744439D01*
X85000209Y-53744371D01*
X85373900Y-53744371D01*
X85373900Y-55245000D01*
G37*
G36*
X83481995Y-54635369D02*
G01*
X82887386Y-54635369D01*
X82887386Y-54345575D01*
X83481995Y-54345575D01*
X83481995Y-54038562D01*
X82834996Y-54038562D01*
X82834996Y-53744371D01*
X83821981Y-53744371D01*
X83821981Y-55245000D01*
X82826570Y-55245000D01*
X82826570Y-54951175D01*
X83481995Y-54951175D01*
X83481995Y-54635369D01*
G37*
G36*
X82194591Y-54787411D02*
G01*
X82185355Y-54868271D01*
X82165136Y-54942680D01*
X82134352Y-55010308D01*
X82077591Y-55089366D01*
X82023774Y-55139899D01*
X81960780Y-55182559D01*
X81889025Y-55217019D01*
X81808927Y-55242949D01*
X81720901Y-55260024D01*
X81625365Y-55267914D01*
X81591922Y-55268447D01*
X81494052Y-55263755D01*
X81403014Y-55249926D01*
X81319417Y-55227327D01*
X81243872Y-55196325D01*
X81176991Y-55157289D01*
X81119382Y-55110586D01*
X81058049Y-55037023D01*
X81015735Y-54951356D01*
X80997349Y-54879686D01*
X80991085Y-54802065D01*
X80998612Y-54710270D01*
X81021355Y-54632021D01*
X81059555Y-54565440D01*
X81113450Y-54508653D01*
X81183283Y-54459783D01*
X81269293Y-54416953D01*
X81344561Y-54387667D01*
X81429165Y-54359931D01*
X81490806Y-54341912D01*
X81606577Y-54308572D01*
X81684149Y-54282870D01*
X81748288Y-54246643D01*
X81789496Y-54178492D01*
X81793422Y-54144075D01*
X81773517Y-54070522D01*
X81715320Y-54018556D01*
X81642725Y-53997079D01*
X81598150Y-53994232D01*
X81517679Y-54003316D01*
X81447458Y-54035038D01*
X81394543Y-54096087D01*
X81369173Y-54171186D01*
X81024790Y-54171186D01*
X81034205Y-54093455D01*
X81053894Y-54022566D01*
X81095322Y-53938992D01*
X81153076Y-53868309D01*
X81226051Y-53810933D01*
X81313138Y-53767281D01*
X81387048Y-53743798D01*
X81467806Y-53728445D01*
X81554944Y-53721397D01*
X81585327Y-53720924D01*
X81678471Y-53725662D01*
X81764867Y-53739544D01*
X81843988Y-53762074D01*
X81915306Y-53792756D01*
X81978296Y-53831093D01*
X82048413Y-53893261D01*
X82101537Y-53966980D01*
X82136417Y-54051073D01*
X82151805Y-54144365D01*
X82152459Y-54168988D01*
X82146128Y-54251382D01*
X82126608Y-54324206D01*
X82082457Y-54403316D01*
X82030373Y-54458297D01*
X81962532Y-54506987D01*
X81878145Y-54550395D01*
X81803520Y-54580092D01*
X81718811Y-54607811D01*
X81688276Y-54616685D01*
X81585327Y-54645994D01*
X81503254Y-54670196D01*
X81429540Y-54698026D01*
X81369036Y-54742623D01*
X81346092Y-54818551D01*
X81366974Y-54897245D01*
X81425511Y-54954748D01*
X81504176Y-54984433D01*
X81576901Y-54991475D01*
X81657344Y-54984071D01*
X81733182Y-54957007D01*
X81796188Y-54902399D01*
X81830686Y-54834467D01*
X81841782Y-54787411D01*
X82194591Y-54787411D01*
G37*
G36*
X80138921Y-55245000D02*
G01*
X80138921Y-54040760D01*
X79741782Y-54040760D01*
X79741782Y-53744371D01*
X80880076Y-53744371D01*
X80880076Y-54040760D01*
X80483304Y-54040760D01*
X80483304Y-55245000D01*
X80138921Y-55245000D01*
G37*
G36*
X79201395Y-54635369D02*
G01*
X78606786Y-54635369D01*
X78606786Y-54345575D01*
X79201395Y-54345575D01*
X79201395Y-54038562D01*
X78554396Y-54038562D01*
X78554396Y-53744371D01*
X79541381Y-53744371D01*
X79541381Y-55245000D01*
X78545969Y-55245000D01*
X78545969Y-54951175D01*
X79201395Y-54951175D01*
X79201395Y-54635369D01*
G37*
G36*
X77955757Y-55245000D02*
G01*
X77955757Y-53744371D01*
X78300139Y-53744371D01*
X78300139Y-55245000D01*
X77955757Y-55245000D01*
G37*
G36*
X76345219Y-53744371D02*
G01*
X76662491Y-53744371D01*
X76662491Y-54407857D01*
X76662330Y-54482630D01*
X76661712Y-54569536D01*
X76660630Y-54652885D01*
X76659084Y-54732169D01*
X76657075Y-54806882D01*
X76655896Y-54842365D01*
X76658094Y-54842365D01*
X76690649Y-54768876D01*
X76722162Y-54697377D01*
X76753965Y-54627409D01*
X76790574Y-54550467D01*
X76817829Y-54495785D01*
X77199947Y-53744371D01*
X77645080Y-53744371D01*
X77645080Y-55245000D01*
X77328175Y-55245000D01*
X77328175Y-54632438D01*
X77328190Y-54556866D01*
X77328298Y-54477629D01*
X77328590Y-54397504D01*
X77329159Y-54319265D01*
X77330096Y-54245688D01*
X77331839Y-54167459D01*
X77332205Y-54155799D01*
X77330006Y-54155799D01*
X77301159Y-54225191D01*
X77266347Y-54301138D01*
X77231211Y-54374325D01*
X77191303Y-54455121D01*
X77156441Y-54524365D01*
X77119384Y-54596982D01*
X77109822Y-54615586D01*
X76784124Y-55245000D01*
X76345219Y-55245000D01*
X76345219Y-53744371D01*
G37*
G36*
X75694556Y-54635369D02*
G01*
X75099947Y-54635369D01*
X75099947Y-54345575D01*
X75694556Y-54345575D01*
X75694556Y-54038562D01*
X75047557Y-54038562D01*
X75047557Y-53744371D01*
X76034542Y-53744371D01*
X76034542Y-55245000D01*
X75039131Y-55245000D01*
X75039131Y-54951175D01*
X75694556Y-54951175D01*
X75694556Y-54635369D01*
G37*
M02*
