%TF.GenerationSoftware,KiCad,Pcbnew,8.0.4*%
%TF.CreationDate,2026-02-03T00:17:50+01:00*%
%TF.ProjectId,bob,626f622e-6b69-4636-9164-5f7063625858,rev?*%
%TF.SameCoordinates,Original*%
%TF.FileFunction,Soldermask,Bot*%
%TF.FilePolarity,Negative*%
%FSLAX46Y46*%
G04 Gerber Fmt 4.6, Leading zero omitted, Abs format (unit mm)*
G04 Created by KiCad (PCBNEW 8.0.4) date 2026-02-03 00:17:50*
%MOMM*%
%LPD*%
G01*
G04 APERTURE LIST*
%ADD10C,5.600000*%
%ADD11R,2.000000X2.000000*%
%ADD12C,1.524000*%
%ADD13C,1.600000*%
%ADD14R,1.600000X1.600000*%
G04 APERTURE END LIST*
D10*
%TO.C,REF\u002A\u002A*%
X96000000Y-76000000D03*
%TD*%
D11*
%TO.C,GND*%
X68000000Y-63000000D03*
%TD*%
%TO.C,GND*%
X68000000Y-58000000D03*
%TD*%
%TO.C,GND*%
X96000000Y-69000000D03*
%TD*%
%TO.C,24V*%
X96000000Y-64000000D03*
%TD*%
%TO.C,5V*%
X68000000Y-53000000D03*
%TD*%
D10*
%TO.C,REF\u002A\u002A*%
X76000000Y-32000000D03*
%TD*%
D12*
%TO.C,STEP DOWN 5V*%
X90275000Y-68525000D03*
X90275000Y-76525000D03*
X77275000Y-68525000D03*
X77275000Y-76525000D03*
%TD*%
%TO.C,LOGIC LEVEL CONV.*%
X84500000Y-31900000D03*
X87000000Y-31900000D03*
X89500000Y-31900000D03*
X92000000Y-31900000D03*
X94500000Y-31900000D03*
X97000000Y-31900000D03*
X84500000Y-42500000D03*
X87000000Y-42500000D03*
X89500000Y-42500000D03*
X92000000Y-42500000D03*
X94500000Y-42500000D03*
X97000000Y-42500000D03*
%TD*%
D11*
%TO.C,D5*%
X68000000Y-47000000D03*
%TD*%
%TO.C,D4*%
X68000000Y-42000000D03*
%TD*%
%TO.C,D3*%
X68000000Y-37000000D03*
%TD*%
%TO.C,D2*%
X68000000Y-32000000D03*
%TD*%
D13*
%TO.C,100\u00B5F 25V*%
X70500000Y-75500000D03*
D14*
X70500000Y-73000000D03*
%TD*%
D12*
%TO.C,ESP32 S3*%
X89540000Y-63000000D03*
X87000000Y-63000000D03*
X84460000Y-63000000D03*
X81920000Y-63000000D03*
X79380000Y-63000000D03*
X76840000Y-63000000D03*
X74300000Y-63000000D03*
X74300000Y-47760000D03*
X76840000Y-47760000D03*
X79380000Y-47760000D03*
X81920000Y-47760000D03*
X84460000Y-47760000D03*
X87000000Y-47760000D03*
X89540000Y-47760000D03*
%TD*%
M02*
