%TF.GenerationSoftware,KiCad,Pcbnew,8.0.4*%
%TF.CreationDate,2026-02-03T00:17:50+01:00*%
%TF.ProjectId,bob,626f622e-6b69-4636-9164-5f7063625858,rev?*%
%TF.SameCoordinates,Original*%
%TF.FileFunction,Legend,Top*%
%TF.FilePolarity,Positive*%
%FSLAX46Y46*%
G04 Gerber Fmt 4.6, Leading zero omitted, Abs format (unit mm)*
G04 Created by KiCad (PCBNEW 8.0.4) date 2026-02-03 00:17:50*
%MOMM*%
%LPD*%
G01*
G04 APERTURE LIST*
%ADD10C,0.100000*%
%ADD11C,0.150000*%
%ADD12C,0.200000*%
%ADD13C,0.120000*%
%ADD14C,0.504000*%
%ADD15C,0.127000*%
G04 APERTURE END LIST*
D10*
G36*
X73526769Y-60664307D02*
G01*
X73531005Y-60713816D01*
X73541976Y-60756814D01*
X73559710Y-60793271D01*
X73591436Y-60829605D01*
X73624499Y-60851249D01*
X73664422Y-60866263D01*
X73711236Y-60874621D01*
X73750886Y-60876505D01*
X73795023Y-60873678D01*
X73833731Y-60865449D01*
X73877306Y-60846728D01*
X73912214Y-60819975D01*
X73939019Y-60786087D01*
X73958283Y-60745962D01*
X73970571Y-60700497D01*
X73976444Y-60650590D01*
X73977152Y-60624251D01*
X73977152Y-60063665D01*
X73834710Y-60063665D01*
X73834710Y-60584000D01*
X73833663Y-60626425D01*
X73828301Y-60672178D01*
X73816198Y-60710050D01*
X73790362Y-60741087D01*
X73748284Y-60754355D01*
X73740725Y-60754579D01*
X73701533Y-60746871D01*
X73671017Y-60717856D01*
X73657907Y-60679672D01*
X73655533Y-60664307D01*
X73526769Y-60664307D01*
G37*
G36*
X74160237Y-60864000D02*
G01*
X74623907Y-60864000D01*
X74623907Y-60739729D01*
X74302484Y-60739729D01*
X74302484Y-60063665D01*
X74160237Y-60063665D01*
X74160237Y-60864000D01*
G37*
G36*
X75284535Y-60630503D02*
G01*
X75260288Y-60667058D01*
X75230027Y-60699471D01*
X75193183Y-60725949D01*
X75157037Y-60742187D01*
X75115590Y-60752020D01*
X75078394Y-60754579D01*
X75035343Y-60751351D01*
X74995765Y-60741950D01*
X74948685Y-60720536D01*
X74908470Y-60689889D01*
X74875514Y-60651004D01*
X74855797Y-60617034D01*
X74840551Y-60579411D01*
X74829941Y-60538555D01*
X74824135Y-60494886D01*
X74823014Y-60464418D01*
X74825415Y-60419400D01*
X74832538Y-60376748D01*
X74844259Y-60336912D01*
X74860459Y-60300344D01*
X74888813Y-60257447D01*
X74924623Y-60222225D01*
X74967600Y-60195745D01*
X75004362Y-60182264D01*
X75044872Y-60174751D01*
X75073900Y-60173281D01*
X75118214Y-60176939D01*
X75158502Y-60187607D01*
X75194544Y-60204825D01*
X75226123Y-60228130D01*
X75253018Y-60257064D01*
X75275011Y-60291165D01*
X75282386Y-60306149D01*
X75437920Y-60306149D01*
X75423687Y-60265273D01*
X75405026Y-60227038D01*
X75382053Y-60191745D01*
X75354883Y-60159695D01*
X75323634Y-60131189D01*
X75288419Y-60106530D01*
X75249356Y-60086017D01*
X75206561Y-60069954D01*
X75160149Y-60058640D01*
X75110236Y-60052379D01*
X75075073Y-60051159D01*
X75030730Y-60053235D01*
X74988486Y-60059340D01*
X74948444Y-60069288D01*
X74910710Y-60082896D01*
X74875389Y-60099978D01*
X74827164Y-60131713D01*
X74784961Y-60170228D01*
X74749137Y-60214899D01*
X74720046Y-60265104D01*
X74704569Y-60301340D01*
X74692347Y-60339575D01*
X74683487Y-60379622D01*
X74678094Y-60421298D01*
X74676273Y-60464418D01*
X74678107Y-60507718D01*
X74683531Y-60549501D01*
X74692434Y-60589589D01*
X74704700Y-60627808D01*
X74720216Y-60663980D01*
X74749337Y-60714018D01*
X74785132Y-60758462D01*
X74827218Y-60796719D01*
X74875210Y-60828194D01*
X74928726Y-60852293D01*
X74967283Y-60863969D01*
X75008010Y-60871926D01*
X75050795Y-60875989D01*
X75072923Y-60876505D01*
X75125268Y-60873519D01*
X75173907Y-60864904D01*
X75218803Y-60851169D01*
X75259917Y-60832826D01*
X75297212Y-60810386D01*
X75330651Y-60784360D01*
X75360195Y-60755259D01*
X75385808Y-60723593D01*
X75407451Y-60689875D01*
X75425086Y-60654615D01*
X75434598Y-60630503D01*
X75284535Y-60630503D01*
G37*
G36*
X75497124Y-60664307D02*
G01*
X75501361Y-60713816D01*
X75512332Y-60756814D01*
X75530066Y-60793271D01*
X75561792Y-60829605D01*
X75594854Y-60851249D01*
X75634778Y-60866263D01*
X75681592Y-60874621D01*
X75721242Y-60876505D01*
X75765379Y-60873678D01*
X75804087Y-60865449D01*
X75847662Y-60846728D01*
X75882570Y-60819975D01*
X75909375Y-60786087D01*
X75928639Y-60745962D01*
X75940927Y-60700497D01*
X75946800Y-60650590D01*
X75947508Y-60624251D01*
X75947508Y-60063665D01*
X75805066Y-60063665D01*
X75805066Y-60584000D01*
X75804019Y-60626425D01*
X75798657Y-60672178D01*
X75786554Y-60710050D01*
X75760717Y-60741087D01*
X75718640Y-60754355D01*
X75711081Y-60754579D01*
X75671889Y-60746871D01*
X75641373Y-60717856D01*
X75628263Y-60679672D01*
X75625889Y-60664307D01*
X75497124Y-60664307D01*
G37*
G36*
X76130593Y-60864000D02*
G01*
X76594263Y-60864000D01*
X76594263Y-60739729D01*
X76272840Y-60739729D01*
X76272840Y-60063665D01*
X76130593Y-60063665D01*
X76130593Y-60864000D01*
G37*
G36*
X77254891Y-60630503D02*
G01*
X77230643Y-60667058D01*
X77200383Y-60699471D01*
X77163539Y-60725949D01*
X77127393Y-60742187D01*
X77085946Y-60752020D01*
X77048750Y-60754579D01*
X77005699Y-60751351D01*
X76966121Y-60741950D01*
X76919041Y-60720536D01*
X76878826Y-60689889D01*
X76845870Y-60651004D01*
X76826153Y-60617034D01*
X76810907Y-60579411D01*
X76800297Y-60538555D01*
X76794491Y-60494886D01*
X76793370Y-60464418D01*
X76795771Y-60419400D01*
X76802894Y-60376748D01*
X76814615Y-60336912D01*
X76830815Y-60300344D01*
X76859169Y-60257447D01*
X76894979Y-60222225D01*
X76937956Y-60195745D01*
X76974718Y-60182264D01*
X77015228Y-60174751D01*
X77044256Y-60173281D01*
X77088570Y-60176939D01*
X77128858Y-60187607D01*
X77164900Y-60204825D01*
X77196479Y-60228130D01*
X77223374Y-60257064D01*
X77245367Y-60291165D01*
X77252742Y-60306149D01*
X77408276Y-60306149D01*
X77394043Y-60265273D01*
X77375382Y-60227038D01*
X77352409Y-60191745D01*
X77325239Y-60159695D01*
X77293990Y-60131189D01*
X77258775Y-60106530D01*
X77219712Y-60086017D01*
X77176917Y-60069954D01*
X77130505Y-60058640D01*
X77080592Y-60052379D01*
X77045429Y-60051159D01*
X77001086Y-60053235D01*
X76958842Y-60059340D01*
X76918799Y-60069288D01*
X76881065Y-60082896D01*
X76845745Y-60099978D01*
X76797520Y-60131713D01*
X76755317Y-60170228D01*
X76719493Y-60214899D01*
X76690402Y-60265104D01*
X76674924Y-60301340D01*
X76662703Y-60339575D01*
X76653843Y-60379622D01*
X76648450Y-60421298D01*
X76646629Y-60464418D01*
X76648462Y-60507718D01*
X76653887Y-60549501D01*
X76662789Y-60589589D01*
X76675056Y-60627808D01*
X76690572Y-60663980D01*
X76719693Y-60714018D01*
X76755488Y-60758462D01*
X76797573Y-60796719D01*
X76845566Y-60828194D01*
X76899082Y-60852293D01*
X76937639Y-60863969D01*
X76978366Y-60871926D01*
X77021151Y-60875989D01*
X77043279Y-60876505D01*
X77095624Y-60873519D01*
X77144263Y-60864904D01*
X77189159Y-60851169D01*
X77230273Y-60832826D01*
X77267568Y-60810386D01*
X77301007Y-60784360D01*
X77330551Y-60755259D01*
X77356164Y-60723593D01*
X77377806Y-60689875D01*
X77395442Y-60654615D01*
X77404954Y-60630503D01*
X77254891Y-60630503D01*
G37*
G36*
X77467480Y-60664307D02*
G01*
X77471717Y-60713816D01*
X77482687Y-60756814D01*
X77500422Y-60793271D01*
X77532148Y-60829605D01*
X77565210Y-60851249D01*
X77605134Y-60866263D01*
X77651947Y-60874621D01*
X77691598Y-60876505D01*
X77735735Y-60873678D01*
X77774443Y-60865449D01*
X77818018Y-60846728D01*
X77852926Y-60819975D01*
X77879730Y-60786087D01*
X77898995Y-60745962D01*
X77911282Y-60700497D01*
X77917156Y-60650590D01*
X77917864Y-60624251D01*
X77917864Y-60063665D01*
X77775422Y-60063665D01*
X77775422Y-60584000D01*
X77774375Y-60626425D01*
X77769013Y-60672178D01*
X77756910Y-60710050D01*
X77731073Y-60741087D01*
X77688996Y-60754355D01*
X77681437Y-60754579D01*
X77642245Y-60746871D01*
X77611729Y-60717856D01*
X77598619Y-60679672D01*
X77596245Y-60664307D01*
X77467480Y-60664307D01*
G37*
G36*
X78100949Y-60864000D02*
G01*
X78564619Y-60864000D01*
X78564619Y-60739729D01*
X78243196Y-60739729D01*
X78243196Y-60063665D01*
X78100949Y-60063665D01*
X78100949Y-60864000D01*
G37*
G36*
X79225247Y-60630503D02*
G01*
X79200999Y-60667058D01*
X79170739Y-60699471D01*
X79133895Y-60725949D01*
X79097749Y-60742187D01*
X79056302Y-60752020D01*
X79019106Y-60754579D01*
X78976055Y-60751351D01*
X78936477Y-60741950D01*
X78889397Y-60720536D01*
X78849182Y-60689889D01*
X78816226Y-60651004D01*
X78796509Y-60617034D01*
X78781263Y-60579411D01*
X78770653Y-60538555D01*
X78764847Y-60494886D01*
X78763726Y-60464418D01*
X78766127Y-60419400D01*
X78773249Y-60376748D01*
X78784971Y-60336912D01*
X78801171Y-60300344D01*
X78829525Y-60257447D01*
X78865335Y-60222225D01*
X78908312Y-60195745D01*
X78945074Y-60182264D01*
X78985584Y-60174751D01*
X79014612Y-60173281D01*
X79058926Y-60176939D01*
X79099213Y-60187607D01*
X79135256Y-60204825D01*
X79166835Y-60228130D01*
X79193730Y-60257064D01*
X79215723Y-60291165D01*
X79223098Y-60306149D01*
X79378632Y-60306149D01*
X79364399Y-60265273D01*
X79345738Y-60227038D01*
X79322765Y-60191745D01*
X79295595Y-60159695D01*
X79264345Y-60131189D01*
X79229131Y-60106530D01*
X79190068Y-60086017D01*
X79147273Y-60069954D01*
X79100861Y-60058640D01*
X79050948Y-60052379D01*
X79015785Y-60051159D01*
X78971442Y-60053235D01*
X78929197Y-60059340D01*
X78889155Y-60069288D01*
X78851421Y-60082896D01*
X78816101Y-60099978D01*
X78767876Y-60131713D01*
X78725673Y-60170228D01*
X78689848Y-60214899D01*
X78660758Y-60265104D01*
X78645280Y-60301340D01*
X78633059Y-60339575D01*
X78624199Y-60379622D01*
X78618806Y-60421298D01*
X78616985Y-60464418D01*
X78618818Y-60507718D01*
X78624243Y-60549501D01*
X78633145Y-60589589D01*
X78645412Y-60627808D01*
X78660928Y-60663980D01*
X78690049Y-60714018D01*
X78725844Y-60758462D01*
X78767929Y-60796719D01*
X78815922Y-60828194D01*
X78869438Y-60852293D01*
X78907995Y-60863969D01*
X78948722Y-60871926D01*
X78991507Y-60875989D01*
X79013635Y-60876505D01*
X79065980Y-60873519D01*
X79114619Y-60864904D01*
X79159515Y-60851169D01*
X79200629Y-60832826D01*
X79237924Y-60810386D01*
X79271363Y-60784360D01*
X79300907Y-60755259D01*
X79326519Y-60723593D01*
X79348162Y-60689875D01*
X79365798Y-60654615D01*
X79375310Y-60630503D01*
X79225247Y-60630503D01*
G37*
G36*
X79437836Y-60664307D02*
G01*
X79442073Y-60713816D01*
X79453043Y-60756814D01*
X79470778Y-60793271D01*
X79502504Y-60829605D01*
X79535566Y-60851249D01*
X79575490Y-60866263D01*
X79622303Y-60874621D01*
X79661953Y-60876505D01*
X79706091Y-60873678D01*
X79744798Y-60865449D01*
X79788373Y-60846728D01*
X79823282Y-60819975D01*
X79850086Y-60786087D01*
X79869351Y-60745962D01*
X79881638Y-60700497D01*
X79887512Y-60650590D01*
X79888220Y-60624251D01*
X79888220Y-60063665D01*
X79745778Y-60063665D01*
X79745778Y-60584000D01*
X79744731Y-60626425D01*
X79739369Y-60672178D01*
X79727266Y-60710050D01*
X79701429Y-60741087D01*
X79659352Y-60754355D01*
X79651793Y-60754579D01*
X79612601Y-60746871D01*
X79582085Y-60717856D01*
X79568975Y-60679672D01*
X79566601Y-60664307D01*
X79437836Y-60664307D01*
G37*
G36*
X80071304Y-60864000D02*
G01*
X80534975Y-60864000D01*
X80534975Y-60739729D01*
X80213551Y-60739729D01*
X80213551Y-60063665D01*
X80071304Y-60063665D01*
X80071304Y-60864000D01*
G37*
G36*
X81195603Y-60630503D02*
G01*
X81171355Y-60667058D01*
X81141095Y-60699471D01*
X81104250Y-60725949D01*
X81068105Y-60742187D01*
X81026658Y-60752020D01*
X80989462Y-60754579D01*
X80946411Y-60751351D01*
X80906833Y-60741950D01*
X80859753Y-60720536D01*
X80819538Y-60689889D01*
X80786582Y-60651004D01*
X80766865Y-60617034D01*
X80751618Y-60579411D01*
X80741009Y-60538555D01*
X80735202Y-60494886D01*
X80734082Y-60464418D01*
X80736483Y-60419400D01*
X80743605Y-60376748D01*
X80755327Y-60336912D01*
X80771527Y-60300344D01*
X80799881Y-60257447D01*
X80835691Y-60222225D01*
X80878668Y-60195745D01*
X80915430Y-60182264D01*
X80955940Y-60174751D01*
X80984968Y-60173281D01*
X81029282Y-60176939D01*
X81069569Y-60187607D01*
X81105612Y-60204825D01*
X81137191Y-60228130D01*
X81164086Y-60257064D01*
X81186078Y-60291165D01*
X81193454Y-60306149D01*
X81348988Y-60306149D01*
X81334755Y-60265273D01*
X81316094Y-60227038D01*
X81293121Y-60191745D01*
X81265951Y-60159695D01*
X81234701Y-60131189D01*
X81199487Y-60106530D01*
X81160424Y-60086017D01*
X81117629Y-60069954D01*
X81071216Y-60058640D01*
X81021303Y-60052379D01*
X80986140Y-60051159D01*
X80941798Y-60053235D01*
X80899553Y-60059340D01*
X80859511Y-60069288D01*
X80821777Y-60082896D01*
X80786457Y-60099978D01*
X80738231Y-60131713D01*
X80696029Y-60170228D01*
X80660204Y-60214899D01*
X80631114Y-60265104D01*
X80615636Y-60301340D01*
X80603415Y-60339575D01*
X80594555Y-60379622D01*
X80589162Y-60421298D01*
X80587341Y-60464418D01*
X80589174Y-60507718D01*
X80594599Y-60549501D01*
X80603501Y-60589589D01*
X80615768Y-60627808D01*
X80631284Y-60663980D01*
X80660405Y-60714018D01*
X80696200Y-60758462D01*
X80738285Y-60796719D01*
X80786278Y-60828194D01*
X80839794Y-60852293D01*
X80878351Y-60863969D01*
X80919078Y-60871926D01*
X80961863Y-60875989D01*
X80983991Y-60876505D01*
X81036336Y-60873519D01*
X81084975Y-60864904D01*
X81129870Y-60851169D01*
X81170985Y-60832826D01*
X81208280Y-60810386D01*
X81241719Y-60784360D01*
X81271263Y-60755259D01*
X81296875Y-60723593D01*
X81318518Y-60689875D01*
X81336154Y-60654615D01*
X81345666Y-60630503D01*
X81195603Y-60630503D01*
G37*
G36*
X73714933Y-50364000D02*
G01*
X73714933Y-50001348D01*
X74086769Y-50001348D01*
X74086769Y-50364000D01*
X74203224Y-50364000D01*
X74203224Y-49563665D01*
X74086769Y-49563665D01*
X74086769Y-49901697D01*
X73714933Y-49901697D01*
X73714933Y-49563665D01*
X73597306Y-49563665D01*
X73597306Y-50364000D01*
X73714933Y-50364000D01*
G37*
G36*
X74794733Y-49553100D02*
G01*
X74837009Y-49558835D01*
X74877222Y-49568233D01*
X74915246Y-49581165D01*
X74950956Y-49597499D01*
X74999903Y-49628094D01*
X75042930Y-49665612D01*
X75079610Y-49709610D01*
X75109516Y-49759649D01*
X75125478Y-49796147D01*
X75138114Y-49835003D01*
X75147296Y-49876088D01*
X75152898Y-49919270D01*
X75154794Y-49964418D01*
X75152937Y-50009425D01*
X75147443Y-50052474D01*
X75138423Y-50093435D01*
X75125991Y-50132176D01*
X75110260Y-50168569D01*
X75080723Y-50218467D01*
X75044396Y-50262346D01*
X75001660Y-50299763D01*
X74952896Y-50330280D01*
X74917225Y-50346573D01*
X74879157Y-50359472D01*
X74838804Y-50368848D01*
X74796279Y-50374569D01*
X74751695Y-50376505D01*
X74707270Y-50374569D01*
X74664859Y-50368848D01*
X74624579Y-50359472D01*
X74586547Y-50346573D01*
X74550883Y-50330280D01*
X74502080Y-50299763D01*
X74459263Y-50262346D01*
X74422830Y-50218467D01*
X74393177Y-50168569D01*
X74377372Y-50132176D01*
X74364874Y-50093435D01*
X74355801Y-50052474D01*
X74350271Y-50009425D01*
X74348401Y-49964418D01*
X74348442Y-49963441D01*
X74475017Y-49963441D01*
X74476216Y-49996727D01*
X74482431Y-50044331D01*
X74493802Y-50088762D01*
X74510163Y-50129587D01*
X74531348Y-50166372D01*
X74557192Y-50198685D01*
X74587531Y-50226094D01*
X74622198Y-50248165D01*
X74661030Y-50264466D01*
X74703860Y-50274564D01*
X74750523Y-50278026D01*
X74781856Y-50276500D01*
X74825784Y-50268675D01*
X74865864Y-50254563D01*
X74901911Y-50234565D01*
X74933745Y-50209082D01*
X74961182Y-50178514D01*
X74984040Y-50143263D01*
X75002136Y-50103729D01*
X75015288Y-50060314D01*
X75023313Y-50013417D01*
X75026029Y-49963441D01*
X75024830Y-49929632D01*
X75018610Y-49881584D01*
X75007225Y-49837055D01*
X74990835Y-49796408D01*
X74969600Y-49760005D01*
X74943678Y-49728209D01*
X74913229Y-49701382D01*
X74878412Y-49679886D01*
X74839387Y-49664083D01*
X74796314Y-49654335D01*
X74749351Y-49651006D01*
X74717837Y-49652518D01*
X74673775Y-49660276D01*
X74633698Y-49674270D01*
X74597762Y-49694106D01*
X74566118Y-49719391D01*
X74538922Y-49749730D01*
X74516326Y-49784729D01*
X74498483Y-49823993D01*
X74485549Y-49867130D01*
X74477676Y-49913744D01*
X74475017Y-49963441D01*
X74348442Y-49963441D01*
X74350284Y-49919431D01*
X74355847Y-49876368D01*
X74364966Y-49835366D01*
X74377518Y-49796559D01*
X74393378Y-49760082D01*
X74423096Y-49710030D01*
X74459556Y-49665978D01*
X74502338Y-49628381D01*
X74551021Y-49597695D01*
X74586547Y-49581302D01*
X74624385Y-49568317D01*
X74664410Y-49558875D01*
X74706497Y-49553111D01*
X74750523Y-49551159D01*
X74794733Y-49553100D01*
G37*
G36*
X75300362Y-50364000D02*
G01*
X75770872Y-50364000D01*
X75770872Y-50262199D01*
X75419162Y-50262199D01*
X75419162Y-49563665D01*
X75300362Y-49563665D01*
X75300362Y-50364000D01*
G37*
G36*
X75898269Y-50364000D02*
G01*
X76407857Y-50364000D01*
X76407857Y-50262199D01*
X76017069Y-50262199D01*
X76017069Y-50003302D01*
X76373272Y-50003302D01*
X76373272Y-49901306D01*
X76017069Y-49901306D01*
X76017069Y-49666833D01*
X76400041Y-49666833D01*
X76400041Y-49563665D01*
X75898269Y-49563665D01*
X75898269Y-50364000D01*
G37*
G36*
X76498520Y-50135388D02*
G01*
X76504041Y-50176372D01*
X76514870Y-50213944D01*
X76537226Y-50258499D01*
X76568208Y-50296427D01*
X76607353Y-50327408D01*
X76641791Y-50345892D01*
X76680365Y-50360153D01*
X76722880Y-50370055D01*
X76769142Y-50375463D01*
X76801967Y-50376505D01*
X76849375Y-50374009D01*
X76893663Y-50366677D01*
X76934495Y-50354744D01*
X76971533Y-50338442D01*
X77014434Y-50310315D01*
X77049193Y-50275392D01*
X77075010Y-50234227D01*
X77091086Y-50187375D01*
X77096622Y-50135388D01*
X77092352Y-50089373D01*
X77079904Y-50050245D01*
X77053664Y-50009682D01*
X77024788Y-49982836D01*
X76989489Y-49960021D01*
X76948308Y-49940356D01*
X76901785Y-49922963D01*
X76863712Y-49910880D01*
X76807634Y-49894272D01*
X76768128Y-49882000D01*
X76725703Y-49865190D01*
X76690718Y-49844215D01*
X76662141Y-49811812D01*
X76649960Y-49767838D01*
X76649755Y-49760427D01*
X76657459Y-49720112D01*
X76679860Y-49687378D01*
X76715889Y-49663747D01*
X76756809Y-49651889D01*
X76797473Y-49648661D01*
X76839376Y-49652012D01*
X76881221Y-49664559D01*
X76914109Y-49685867D01*
X76941509Y-49721036D01*
X76955893Y-49759365D01*
X76958869Y-49773713D01*
X77079818Y-49773713D01*
X77070610Y-49725386D01*
X77054002Y-49681979D01*
X77030029Y-49643962D01*
X76998729Y-49611805D01*
X76960139Y-49585977D01*
X76914295Y-49566947D01*
X76875173Y-49557418D01*
X76832007Y-49552175D01*
X76800990Y-49551159D01*
X76755804Y-49553483D01*
X76713748Y-49560290D01*
X76675110Y-49571334D01*
X76629404Y-49592224D01*
X76590965Y-49619624D01*
X76560472Y-49652951D01*
X76538605Y-49691621D01*
X76526044Y-49735049D01*
X76523140Y-49770392D01*
X76527275Y-49814456D01*
X76539409Y-49852601D01*
X76565200Y-49893043D01*
X76593831Y-49920474D01*
X76629128Y-49944300D01*
X76670682Y-49965234D01*
X76718082Y-49983987D01*
X76757222Y-49997049D01*
X76809783Y-50013658D01*
X76851161Y-50026907D01*
X76888268Y-50040664D01*
X76925579Y-50060210D01*
X76956703Y-50090876D01*
X76971537Y-50134403D01*
X76972351Y-50149847D01*
X76965761Y-50191622D01*
X76946581Y-50226774D01*
X76915701Y-50254244D01*
X76874010Y-50272973D01*
X76831650Y-50281141D01*
X76803140Y-50282520D01*
X76762980Y-50279604D01*
X76720176Y-50268316D01*
X76685221Y-50249499D01*
X76653083Y-50218435D01*
X76631002Y-50179803D01*
X76618297Y-50135388D01*
X76498520Y-50135388D01*
G37*
G36*
X77927048Y-50096114D02*
G01*
X78039204Y-50096114D01*
X78039204Y-50188926D01*
X77927048Y-50188926D01*
X77927048Y-50364000D01*
X77815087Y-50364000D01*
X77815087Y-50188926D01*
X77440907Y-50188926D01*
X77440907Y-50102757D01*
X77445514Y-50096114D01*
X77563028Y-50096114D01*
X77815087Y-50096114D01*
X77815039Y-50091499D01*
X77814742Y-50051517D01*
X77814583Y-50006767D01*
X77814592Y-49961420D01*
X77814750Y-49921345D01*
X77815087Y-49879031D01*
X77815501Y-49835601D01*
X77816709Y-49791789D01*
X77818353Y-49750653D01*
X77819581Y-49709429D01*
X77817431Y-49709429D01*
X77708792Y-49882743D01*
X77630244Y-49996072D01*
X77608299Y-50027670D01*
X77585692Y-50060564D01*
X77563028Y-50096114D01*
X77445514Y-50096114D01*
X77688471Y-49745772D01*
X77711280Y-49712395D01*
X77736076Y-49675758D01*
X77760609Y-49639327D01*
X77786533Y-49600761D01*
X77811765Y-49563665D01*
X77927048Y-49563665D01*
X77927048Y-50096114D01*
G37*
G36*
X78571067Y-50096114D02*
G01*
X78683224Y-50096114D01*
X78683224Y-50188926D01*
X78571067Y-50188926D01*
X78571067Y-50364000D01*
X78459106Y-50364000D01*
X78459106Y-50188926D01*
X78084926Y-50188926D01*
X78084926Y-50102757D01*
X78089533Y-50096114D01*
X78207048Y-50096114D01*
X78459106Y-50096114D01*
X78459058Y-50091499D01*
X78458762Y-50051517D01*
X78458603Y-50006767D01*
X78458612Y-49961420D01*
X78458770Y-49921345D01*
X78459106Y-49879031D01*
X78459521Y-49835601D01*
X78460729Y-49791789D01*
X78462372Y-49750653D01*
X78463600Y-49709429D01*
X78461451Y-49709429D01*
X78352812Y-49882743D01*
X78274263Y-49996072D01*
X78252319Y-50027670D01*
X78229711Y-50060564D01*
X78207048Y-50096114D01*
X78089533Y-50096114D01*
X78332491Y-49745772D01*
X78355300Y-49712395D01*
X78380095Y-49675758D01*
X78404628Y-49639327D01*
X78430553Y-49600761D01*
X78455785Y-49563665D01*
X78571067Y-49563665D01*
X78571067Y-50096114D01*
G37*
G36*
X78709993Y-50364000D02*
G01*
X78837780Y-50364000D01*
X78864410Y-50325336D01*
X78888401Y-50290255D01*
X78914552Y-50251768D01*
X78942648Y-50210136D01*
X78964869Y-50177005D01*
X78987974Y-50142362D01*
X79011875Y-50106317D01*
X79036481Y-50068980D01*
X79061702Y-50030461D01*
X79085776Y-50070038D01*
X79112246Y-50111560D01*
X79134953Y-50146471D01*
X79159143Y-50183195D01*
X79183948Y-50220457D01*
X79208497Y-50256982D01*
X79231924Y-50291496D01*
X79259913Y-50332181D01*
X79282302Y-50364000D01*
X79422400Y-50364000D01*
X79130090Y-49945465D01*
X79153485Y-49911115D01*
X79177631Y-49876168D01*
X79202381Y-49840726D01*
X79227590Y-49804894D01*
X79253112Y-49768775D01*
X79278801Y-49732472D01*
X79304512Y-49696089D01*
X79330098Y-49659728D01*
X79355413Y-49623494D01*
X79380312Y-49587489D01*
X79396608Y-49563665D01*
X79267843Y-49563665D01*
X79242603Y-49601750D01*
X79216644Y-49640250D01*
X79190309Y-49678956D01*
X79163942Y-49717660D01*
X79137887Y-49756153D01*
X79112486Y-49794227D01*
X79088084Y-49831673D01*
X79065024Y-49868284D01*
X79038704Y-49828271D01*
X79015225Y-49793196D01*
X78987086Y-49751292D01*
X78963925Y-49716835D01*
X78939783Y-49680913D01*
X78915359Y-49644544D01*
X78891358Y-49608746D01*
X78868482Y-49574538D01*
X78861228Y-49563665D01*
X78728946Y-49563665D01*
X78752659Y-49598783D01*
X78777010Y-49634679D01*
X78801885Y-49671192D01*
X78827170Y-49708161D01*
X78852752Y-49745426D01*
X78878516Y-49782828D01*
X78904348Y-49820205D01*
X78930135Y-49857397D01*
X78955761Y-49894244D01*
X78981115Y-49930586D01*
X78997808Y-49954453D01*
X78972662Y-49990757D01*
X78946500Y-50028359D01*
X78919541Y-50066960D01*
X78892007Y-50106258D01*
X78864117Y-50145957D01*
X78836092Y-50185755D01*
X78808152Y-50225353D01*
X78780518Y-50264452D01*
X78753408Y-50302753D01*
X78727045Y-50339956D01*
X78709993Y-50364000D01*
G37*
G36*
X80001939Y-50364000D02*
G01*
X80001939Y-50263371D01*
X79619944Y-50263371D01*
X79651835Y-50235477D01*
X79682788Y-50210208D01*
X79713338Y-50185726D01*
X79733077Y-50169778D01*
X79795799Y-50117412D01*
X79835088Y-50083254D01*
X79872414Y-50047516D01*
X79906769Y-50010065D01*
X79937142Y-49970769D01*
X79962523Y-49929494D01*
X79981902Y-49886108D01*
X79994271Y-49840478D01*
X79998618Y-49792471D01*
X79994291Y-49742103D01*
X79981441Y-49695992D01*
X79960266Y-49654896D01*
X79930963Y-49619572D01*
X79893727Y-49590778D01*
X79848756Y-49569273D01*
X79810071Y-49558383D01*
X79767229Y-49552339D01*
X79736399Y-49551159D01*
X79690821Y-49554035D01*
X79649225Y-49562458D01*
X79611707Y-49576123D01*
X79568193Y-49601970D01*
X79532328Y-49635870D01*
X79504343Y-49677099D01*
X79484467Y-49724935D01*
X79475018Y-49764712D01*
X79470355Y-49807492D01*
X79469881Y-49822367D01*
X79588681Y-49822367D01*
X79593673Y-49775489D01*
X79605483Y-49736098D01*
X79628541Y-49698975D01*
X79661161Y-49673228D01*
X79703204Y-49659181D01*
X79736399Y-49656477D01*
X79780548Y-49662062D01*
X79816742Y-49678074D01*
X79848091Y-49708450D01*
X79866788Y-49749737D01*
X79872002Y-49792471D01*
X79868524Y-49831533D01*
X79854992Y-49876474D01*
X79835708Y-49913347D01*
X79808953Y-49950635D01*
X79782051Y-49981357D01*
X79750162Y-50013359D01*
X79722916Y-50038473D01*
X79537096Y-50205339D01*
X79508180Y-50231944D01*
X79480540Y-50260322D01*
X79478869Y-50263371D01*
X79478869Y-50364000D01*
X80001939Y-50364000D01*
G37*
G36*
X80403879Y-49551744D02*
G01*
X80461190Y-49560230D01*
X80509933Y-49578084D01*
X80550728Y-49604364D01*
X80584196Y-49638128D01*
X80610959Y-49678434D01*
X80631637Y-49724340D01*
X80646852Y-49774905D01*
X80657224Y-49829186D01*
X80663375Y-49886242D01*
X80665438Y-49925355D01*
X80666085Y-49965004D01*
X80665363Y-50008266D01*
X80663095Y-50050005D01*
X80659127Y-50090049D01*
X80649650Y-50146549D01*
X80635482Y-50198246D01*
X80616102Y-50244549D01*
X80590992Y-50284866D01*
X80559631Y-50318607D01*
X80521499Y-50345181D01*
X80476077Y-50363995D01*
X80422846Y-50374459D01*
X80382763Y-50376505D01*
X80342659Y-50374459D01*
X80289447Y-50363995D01*
X80244097Y-50345181D01*
X80206076Y-50318607D01*
X80174850Y-50284866D01*
X80149889Y-50244549D01*
X80130660Y-50198246D01*
X80116631Y-50146549D01*
X80107269Y-50090049D01*
X80103358Y-50050005D01*
X80101127Y-50008266D01*
X80100418Y-49965004D01*
X80227034Y-49965004D01*
X80227415Y-49999192D01*
X80229560Y-50047847D01*
X80233863Y-50093009D01*
X80240632Y-50134294D01*
X80254021Y-50182646D01*
X80273063Y-50222516D01*
X80298484Y-50252994D01*
X80340336Y-50276498D01*
X80382763Y-50282520D01*
X80415588Y-50279112D01*
X80452104Y-50264427D01*
X80487163Y-50231052D01*
X80507669Y-50193445D01*
X80522294Y-50147127D01*
X80529862Y-50107220D01*
X80534870Y-50063308D01*
X80537640Y-50015775D01*
X80538492Y-49965004D01*
X80537748Y-49917008D01*
X80535255Y-49871109D01*
X80530628Y-49827881D01*
X80523479Y-49787896D01*
X80509354Y-49740618D01*
X80489138Y-49701484D01*
X80461913Y-49671849D01*
X80426761Y-49653072D01*
X80382763Y-49646512D01*
X80339046Y-49653120D01*
X80304025Y-49672014D01*
X80276817Y-49701793D01*
X80256538Y-49741058D01*
X80242304Y-49788411D01*
X80235064Y-49828392D01*
X80230354Y-49871544D01*
X80227802Y-49917278D01*
X80227034Y-49965004D01*
X80100418Y-49965004D01*
X80100573Y-49945130D01*
X80101883Y-49905714D01*
X80106700Y-49847943D01*
X80115498Y-49792632D01*
X80128909Y-49740724D01*
X80147563Y-49693161D01*
X80172092Y-49650883D01*
X80203125Y-49614834D01*
X80241294Y-49585955D01*
X80287230Y-49565187D01*
X80341564Y-49553474D01*
X80382763Y-49551159D01*
X80403879Y-49551744D01*
G37*
G36*
X70541423Y-36536533D02*
G01*
X70541423Y-36644000D01*
X71096929Y-36644000D01*
X71096929Y-36519729D01*
X70710439Y-36519729D01*
X70732416Y-36486523D01*
X70756128Y-36451603D01*
X70773161Y-36425744D01*
X70999427Y-36076575D01*
X71023490Y-36039565D01*
X71047786Y-36002753D01*
X71070421Y-35968956D01*
X71080125Y-35954648D01*
X71080125Y-35843665D01*
X70555882Y-35843665D01*
X70555882Y-35969303D01*
X70908764Y-35969303D01*
X70886254Y-36005264D01*
X70863046Y-36040581D01*
X70850537Y-36059966D01*
X70636580Y-36391159D01*
X70613576Y-36426641D01*
X70590041Y-36462334D01*
X70568024Y-36495586D01*
X70545246Y-36530486D01*
X70541423Y-36536533D01*
G37*
G36*
X71715157Y-36294439D02*
G01*
X71715157Y-36644000D01*
X71857404Y-36644000D01*
X71857404Y-35843665D01*
X71715157Y-35843665D01*
X71715157Y-36168801D01*
X71373607Y-36168801D01*
X71373607Y-35843665D01*
X71231360Y-35843665D01*
X71231360Y-36644000D01*
X71373607Y-36644000D01*
X71373607Y-36294439D01*
X71715157Y-36294439D01*
G37*
G36*
X72265491Y-35843932D02*
G01*
X72309192Y-35845142D01*
X72352691Y-35847910D01*
X72395568Y-35852848D01*
X72437401Y-35860571D01*
X72477768Y-35871691D01*
X72516249Y-35886824D01*
X72552421Y-35906581D01*
X72571090Y-35919482D01*
X72605587Y-35949498D01*
X72636047Y-35984674D01*
X72662172Y-36024454D01*
X72683666Y-36068285D01*
X72700229Y-36115612D01*
X72711565Y-36165881D01*
X72716457Y-36205181D01*
X72718115Y-36245591D01*
X72715638Y-36294228D01*
X72708373Y-36340867D01*
X72696570Y-36385193D01*
X72680478Y-36426892D01*
X72660346Y-36465651D01*
X72636425Y-36501157D01*
X72608964Y-36533095D01*
X72578213Y-36561152D01*
X72569347Y-36568095D01*
X72533066Y-36592018D01*
X72495217Y-36610342D01*
X72455455Y-36623804D01*
X72413433Y-36633140D01*
X72368806Y-36639089D01*
X72321227Y-36642387D01*
X72270353Y-36643772D01*
X72229825Y-36644000D01*
X72047327Y-36644000D01*
X72047327Y-35970280D01*
X72189574Y-35970280D01*
X72189574Y-36520901D01*
X72267927Y-36520901D01*
X72319664Y-36519017D01*
X72367055Y-36513142D01*
X72409938Y-36502945D01*
X72448151Y-36488093D01*
X72491556Y-36460475D01*
X72525985Y-36423204D01*
X72545685Y-36388441D01*
X72559957Y-36347473D01*
X72568639Y-36299967D01*
X72571570Y-36245591D01*
X72568708Y-36196877D01*
X72560255Y-36152760D01*
X72546411Y-36113283D01*
X72527376Y-36078487D01*
X72494267Y-36039450D01*
X72452759Y-36008912D01*
X72416401Y-35991647D01*
X72375786Y-35979262D01*
X72331113Y-35971800D01*
X72282581Y-35969303D01*
X72269842Y-35969305D01*
X72228747Y-35969477D01*
X72189574Y-35970280D01*
X72047327Y-35970280D01*
X72047327Y-35843665D01*
X72222009Y-35843665D01*
X72265491Y-35843932D01*
G37*
G36*
X72860949Y-36644000D02*
G01*
X73003196Y-36644000D01*
X73003196Y-36243050D01*
X73087215Y-36352667D01*
X73311137Y-36644000D01*
X73484842Y-36644000D01*
X73150914Y-36215304D01*
X73474682Y-35843665D01*
X73302149Y-35843665D01*
X73276945Y-35874436D01*
X73251755Y-35904710D01*
X73226593Y-35934632D01*
X73195200Y-35971758D01*
X73163898Y-36008840D01*
X73132713Y-36046160D01*
X73107869Y-36076376D01*
X73101674Y-36084000D01*
X73003196Y-36206316D01*
X73003196Y-35843665D01*
X72860949Y-35843665D01*
X72860949Y-36644000D01*
G37*
G36*
X71303070Y-37988000D02*
G01*
X71155157Y-37988000D01*
X71149285Y-37973720D01*
X71131950Y-37930966D01*
X71114935Y-37888284D01*
X71098109Y-37845604D01*
X71081338Y-37802857D01*
X71064494Y-37759974D01*
X70728415Y-37759974D01*
X70638729Y-37988000D01*
X70493161Y-37988000D01*
X70510184Y-37947608D01*
X70527727Y-37905428D01*
X70546610Y-37859597D01*
X70567652Y-37808253D01*
X70583283Y-37770042D01*
X70600481Y-37728003D01*
X70619488Y-37681583D01*
X70637420Y-37637853D01*
X70775505Y-37637853D01*
X71017404Y-37637853D01*
X71010078Y-37619588D01*
X70996106Y-37582752D01*
X70989418Y-37564856D01*
X70975736Y-37528123D01*
X70961362Y-37489380D01*
X70945390Y-37446116D01*
X70929156Y-37401834D01*
X70913999Y-37360038D01*
X70898604Y-37316625D01*
X70896454Y-37316625D01*
X70890153Y-37333148D01*
X70874399Y-37374724D01*
X70858646Y-37416543D01*
X70842892Y-37458429D01*
X70827138Y-37500209D01*
X70811385Y-37541708D01*
X70795631Y-37582752D01*
X70775505Y-37637853D01*
X70637420Y-37637853D01*
X70640546Y-37630231D01*
X70663899Y-37573396D01*
X70689788Y-37510526D01*
X70718458Y-37441069D01*
X70733911Y-37403699D01*
X70750150Y-37364475D01*
X70767205Y-37323328D01*
X70785107Y-37280190D01*
X70803886Y-37234992D01*
X70823572Y-37187665D01*
X70978129Y-37187665D01*
X71303070Y-37988000D01*
G37*
G36*
X71667676Y-38000505D02*
G01*
X71714287Y-37997530D01*
X71759008Y-37988846D01*
X71800946Y-37974809D01*
X71839212Y-37955778D01*
X71872917Y-37932110D01*
X71901171Y-37904162D01*
X71910746Y-37891866D01*
X71931522Y-37858211D01*
X71946467Y-37821946D01*
X71956383Y-37782523D01*
X71962074Y-37739394D01*
X71964169Y-37700225D01*
X71964480Y-37675173D01*
X71964480Y-37187665D01*
X71822233Y-37187665D01*
X71822233Y-37667553D01*
X71821616Y-37707856D01*
X71818362Y-37746958D01*
X71808133Y-37787576D01*
X71802107Y-37800812D01*
X71776213Y-37834687D01*
X71744359Y-37857586D01*
X71705770Y-37871960D01*
X71667676Y-37876234D01*
X71624414Y-37870687D01*
X71586538Y-37855156D01*
X71552327Y-37827826D01*
X71533244Y-37800812D01*
X71519761Y-37762535D01*
X71514436Y-37721566D01*
X71513147Y-37678171D01*
X71513119Y-37667553D01*
X71513119Y-37187665D01*
X71370872Y-37187665D01*
X71370872Y-37675173D01*
X71371765Y-37716268D01*
X71375645Y-37761456D01*
X71383348Y-37802664D01*
X71395678Y-37840439D01*
X71413438Y-37875330D01*
X71424605Y-37891866D01*
X71450356Y-37921424D01*
X71481824Y-37946847D01*
X71518198Y-37967776D01*
X71558670Y-37983853D01*
X71602429Y-37994722D01*
X71648668Y-38000023D01*
X71667676Y-38000505D01*
G37*
G36*
X72468401Y-37562822D02*
G01*
X72468401Y-37675955D01*
X72745080Y-37675955D01*
X72738257Y-37717067D01*
X72725302Y-37755431D01*
X72706055Y-37790206D01*
X72680355Y-37820547D01*
X72648043Y-37845612D01*
X72608957Y-37864559D01*
X72562938Y-37876545D01*
X72523777Y-37880460D01*
X72509825Y-37880728D01*
X72464943Y-37877505D01*
X72423718Y-37868090D01*
X72386318Y-37852867D01*
X72352905Y-37832217D01*
X72314846Y-37796904D01*
X72291383Y-37765080D01*
X72272459Y-37729105D01*
X72258240Y-37689362D01*
X72248890Y-37646232D01*
X72244575Y-37600099D01*
X72244284Y-37584120D01*
X72246801Y-37538936D01*
X72254260Y-37496410D01*
X72266522Y-37456932D01*
X72283450Y-37420891D01*
X72313039Y-37378858D01*
X72350349Y-37344555D01*
X72395052Y-37318908D01*
X72433235Y-37305910D01*
X72475255Y-37298690D01*
X72505331Y-37297281D01*
X72549893Y-37300757D01*
X72590087Y-37310955D01*
X72625811Y-37327525D01*
X72662634Y-37355328D01*
X72692694Y-37391202D01*
X72712449Y-37426827D01*
X72873845Y-37426827D01*
X72858925Y-37387839D01*
X72839453Y-37350925D01*
X72815608Y-37316470D01*
X72787566Y-37284859D01*
X72755505Y-37256475D01*
X72719604Y-37231703D01*
X72680040Y-37210928D01*
X72636990Y-37194534D01*
X72590633Y-37182905D01*
X72541146Y-37176427D01*
X72506503Y-37175159D01*
X72461467Y-37177194D01*
X72418470Y-37183183D01*
X72377630Y-37192957D01*
X72339069Y-37206343D01*
X72302905Y-37223171D01*
X72269257Y-37243269D01*
X72223768Y-37279173D01*
X72184614Y-37321473D01*
X72152201Y-37369592D01*
X72134536Y-37404617D01*
X72120166Y-37441801D01*
X72109210Y-37480971D01*
X72101788Y-37521956D01*
X72098020Y-37564586D01*
X72097543Y-37586464D01*
X72099472Y-37631718D01*
X72105151Y-37674997D01*
X72114420Y-37716169D01*
X72127118Y-37755105D01*
X72143085Y-37791674D01*
X72172812Y-37841806D01*
X72208991Y-37885882D01*
X72251079Y-37923460D01*
X72298535Y-37954102D01*
X72350816Y-37977369D01*
X72407381Y-37992820D01*
X72447203Y-37998562D01*
X72488527Y-38000505D01*
X72533587Y-37998482D01*
X72574748Y-37992710D01*
X72620858Y-37980905D01*
X72661205Y-37964813D01*
X72695973Y-37945306D01*
X72730587Y-37918617D01*
X72745080Y-37904371D01*
X72745080Y-37988000D01*
X72873845Y-37988000D01*
X72873845Y-37562822D01*
X72468401Y-37562822D01*
G37*
G36*
X73032896Y-37988000D02*
G01*
X73171821Y-37988000D01*
X73171821Y-37569465D01*
X73171768Y-37528773D01*
X73171569Y-37480437D01*
X73171246Y-37435132D01*
X73170826Y-37393096D01*
X73170233Y-37347300D01*
X73169586Y-37306962D01*
X73169476Y-37300798D01*
X73170648Y-37300798D01*
X73182690Y-37341831D01*
X73193168Y-37379838D01*
X73204776Y-37421043D01*
X73216479Y-37459800D01*
X73225554Y-37487790D01*
X73393593Y-37988000D01*
X73533496Y-37988000D01*
X73673593Y-37571614D01*
X73687343Y-37529783D01*
X73700723Y-37488694D01*
X73713470Y-37449217D01*
X73728117Y-37403462D01*
X73740860Y-37363286D01*
X73752918Y-37324830D01*
X73758590Y-37306464D01*
X73759762Y-37306464D01*
X73759564Y-37348569D01*
X73759175Y-37390411D01*
X73758688Y-37435986D01*
X73758200Y-37483035D01*
X73757811Y-37529300D01*
X73757619Y-37572522D01*
X73757613Y-37580602D01*
X73757613Y-37988000D01*
X73898688Y-37988000D01*
X73898688Y-37187665D01*
X73681409Y-37187665D01*
X73539162Y-37605222D01*
X73525677Y-37645847D01*
X73512077Y-37686979D01*
X73497466Y-37730934D01*
X73482671Y-37774868D01*
X73468518Y-37815938D01*
X73466280Y-37822305D01*
X73465108Y-37822305D01*
X73452909Y-37782911D01*
X73440306Y-37741426D01*
X73427677Y-37699796D01*
X73415401Y-37659969D01*
X73402031Y-37618382D01*
X73400237Y-37613038D01*
X73256817Y-37187665D01*
X73032896Y-37187665D01*
X73032896Y-37988000D01*
G37*
G36*
X74088806Y-37988000D02*
G01*
X74588234Y-37988000D01*
X74588234Y-37863729D01*
X74229881Y-37863729D01*
X74229881Y-37638439D01*
X74553649Y-37638439D01*
X74553649Y-37512801D01*
X74229881Y-37512801D01*
X74229881Y-37314280D01*
X74580418Y-37314280D01*
X74580418Y-37187665D01*
X74088806Y-37187665D01*
X74088806Y-37988000D01*
G37*
G36*
X74735952Y-37988000D02*
G01*
X74874877Y-37988000D01*
X74874877Y-37641175D01*
X74874769Y-37594768D01*
X74874557Y-37549071D01*
X74874291Y-37501297D01*
X74874025Y-37455483D01*
X74873813Y-37415668D01*
X74873705Y-37381496D01*
X74874877Y-37381496D01*
X74896072Y-37418066D01*
X74917316Y-37453924D01*
X74939422Y-37491323D01*
X74960113Y-37526591D01*
X74973356Y-37549339D01*
X75230886Y-37988000D01*
X75400097Y-37988000D01*
X75400097Y-37187665D01*
X75264494Y-37187665D01*
X75264494Y-37582947D01*
X75264602Y-37627201D01*
X75264865Y-37671713D01*
X75265189Y-37714349D01*
X75265522Y-37758875D01*
X75265666Y-37794559D01*
X75264494Y-37795536D01*
X75243054Y-37758768D01*
X75223021Y-37724926D01*
X75202147Y-37689653D01*
X75182345Y-37655833D01*
X75177152Y-37646841D01*
X74910635Y-37187665D01*
X74735952Y-37187665D01*
X74735952Y-37988000D01*
G37*
G36*
X75734612Y-37988000D02*
G01*
X75876859Y-37988000D01*
X75876859Y-37314280D01*
X76077334Y-37314280D01*
X76077334Y-37187665D01*
X75534138Y-37187665D01*
X75534138Y-37314280D01*
X75734612Y-37314280D01*
X75734612Y-37988000D01*
G37*
G36*
X76211570Y-37988000D02*
G01*
X76710997Y-37988000D01*
X76710997Y-37863729D01*
X76352644Y-37863729D01*
X76352644Y-37638439D01*
X76676413Y-37638439D01*
X76676413Y-37512801D01*
X76352644Y-37512801D01*
X76352644Y-37314280D01*
X76703182Y-37314280D01*
X76703182Y-37187665D01*
X76211570Y-37187665D01*
X76211570Y-37988000D01*
G37*
G36*
X77076879Y-37187932D02*
G01*
X77120580Y-37189142D01*
X77164080Y-37191910D01*
X77206957Y-37196848D01*
X77248790Y-37204571D01*
X77289157Y-37215691D01*
X77327637Y-37230824D01*
X77363810Y-37250581D01*
X77382479Y-37263482D01*
X77416976Y-37293498D01*
X77447436Y-37328674D01*
X77473561Y-37368454D01*
X77495054Y-37412285D01*
X77511618Y-37459612D01*
X77522953Y-37509881D01*
X77527845Y-37549181D01*
X77529504Y-37589591D01*
X77527027Y-37638228D01*
X77519762Y-37684867D01*
X77507958Y-37729193D01*
X77491866Y-37770892D01*
X77471735Y-37809651D01*
X77447814Y-37845157D01*
X77420353Y-37877095D01*
X77389602Y-37905152D01*
X77380736Y-37912095D01*
X77344455Y-37936018D01*
X77306606Y-37954342D01*
X77266844Y-37967804D01*
X77224822Y-37977140D01*
X77180194Y-37983089D01*
X77132616Y-37986387D01*
X77081741Y-37987772D01*
X77041214Y-37988000D01*
X76858715Y-37988000D01*
X76858715Y-37314280D01*
X77000963Y-37314280D01*
X77000963Y-37864901D01*
X77079316Y-37864901D01*
X77131052Y-37863017D01*
X77178443Y-37857142D01*
X77221327Y-37846945D01*
X77259539Y-37832093D01*
X77302944Y-37804475D01*
X77337373Y-37767204D01*
X77357073Y-37732441D01*
X77371346Y-37691473D01*
X77380028Y-37643967D01*
X77382958Y-37589591D01*
X77380096Y-37540877D01*
X77371643Y-37496760D01*
X77357799Y-37457283D01*
X77338764Y-37422487D01*
X77305655Y-37383450D01*
X77264148Y-37352912D01*
X77227790Y-37335647D01*
X77187175Y-37323262D01*
X77142501Y-37315800D01*
X77093970Y-37313303D01*
X77081230Y-37313305D01*
X77040136Y-37313477D01*
X77000963Y-37314280D01*
X76858715Y-37314280D01*
X76858715Y-37187665D01*
X77033398Y-37187665D01*
X77076879Y-37187932D01*
G37*
G36*
X70595157Y-39332000D02*
G01*
X71094584Y-39332000D01*
X71094584Y-39207729D01*
X70736231Y-39207729D01*
X70736231Y-38982439D01*
X71060000Y-38982439D01*
X71060000Y-38856801D01*
X70736231Y-38856801D01*
X70736231Y-38658280D01*
X71086769Y-38658280D01*
X71086769Y-38531665D01*
X70595157Y-38531665D01*
X70595157Y-39332000D01*
G37*
G36*
X71794487Y-39098503D02*
G01*
X71770239Y-39135058D01*
X71739978Y-39167471D01*
X71703134Y-39193949D01*
X71666988Y-39210187D01*
X71625542Y-39220020D01*
X71588346Y-39222579D01*
X71545294Y-39219351D01*
X71505716Y-39209950D01*
X71458636Y-39188536D01*
X71418421Y-39157889D01*
X71385465Y-39119004D01*
X71365748Y-39085034D01*
X71350502Y-39047411D01*
X71339892Y-39006555D01*
X71334086Y-38962886D01*
X71332965Y-38932418D01*
X71335366Y-38887400D01*
X71342489Y-38844748D01*
X71354211Y-38804912D01*
X71370410Y-38768344D01*
X71398764Y-38725447D01*
X71434574Y-38690225D01*
X71477551Y-38663745D01*
X71514313Y-38650264D01*
X71554823Y-38642751D01*
X71583852Y-38641281D01*
X71628165Y-38644939D01*
X71668453Y-38655607D01*
X71704496Y-38672825D01*
X71736074Y-38696130D01*
X71762969Y-38725064D01*
X71784962Y-38759165D01*
X71792337Y-38774149D01*
X71947871Y-38774149D01*
X71933638Y-38733273D01*
X71914977Y-38695038D01*
X71892004Y-38659745D01*
X71864835Y-38627695D01*
X71833585Y-38599189D01*
X71798370Y-38574530D01*
X71759308Y-38554017D01*
X71716512Y-38537954D01*
X71670100Y-38526640D01*
X71620187Y-38520379D01*
X71585024Y-38519159D01*
X71540682Y-38521235D01*
X71498437Y-38527340D01*
X71458395Y-38537288D01*
X71420661Y-38550896D01*
X71385340Y-38567978D01*
X71337115Y-38599713D01*
X71294912Y-38638228D01*
X71259088Y-38682899D01*
X71229997Y-38733104D01*
X71214520Y-38769340D01*
X71202298Y-38807575D01*
X71193439Y-38847622D01*
X71188045Y-38889298D01*
X71186224Y-38932418D01*
X71188058Y-38975718D01*
X71193482Y-39017501D01*
X71202385Y-39057589D01*
X71214651Y-39095808D01*
X71230168Y-39131980D01*
X71259288Y-39182018D01*
X71295083Y-39226462D01*
X71337169Y-39264719D01*
X71385161Y-39296194D01*
X71438677Y-39320293D01*
X71477234Y-39331969D01*
X71517962Y-39339926D01*
X71560746Y-39343989D01*
X71582875Y-39344505D01*
X71635219Y-39341519D01*
X71683858Y-39332904D01*
X71728754Y-39319169D01*
X71769868Y-39300826D01*
X71807163Y-39278386D01*
X71840602Y-39252360D01*
X71870146Y-39223259D01*
X71895759Y-39191593D01*
X71917402Y-39157875D01*
X71935037Y-39122615D01*
X71944549Y-39098503D01*
X71794487Y-39098503D01*
G37*
G36*
X72473181Y-38521162D02*
G01*
X72515200Y-38527067D01*
X72555241Y-38536719D01*
X72593170Y-38549961D01*
X72645802Y-38576219D01*
X72692911Y-38609683D01*
X72734037Y-38649828D01*
X72768719Y-38696130D01*
X72788033Y-38730160D01*
X72804141Y-38766538D01*
X72816907Y-38805108D01*
X72826195Y-38845715D01*
X72831867Y-38888203D01*
X72833789Y-38932418D01*
X72831917Y-38976459D01*
X72826381Y-39018791D01*
X72817300Y-39059258D01*
X72804791Y-39097703D01*
X72788974Y-39133972D01*
X72759303Y-39183949D01*
X72722854Y-39228147D01*
X72680026Y-39266040D01*
X72631221Y-39297099D01*
X72595560Y-39313748D01*
X72557539Y-39326970D01*
X72517275Y-39336607D01*
X72474888Y-39342504D01*
X72430495Y-39344505D01*
X72386456Y-39342504D01*
X72344332Y-39336607D01*
X72304249Y-39326970D01*
X72266336Y-39313748D01*
X72230721Y-39297099D01*
X72181887Y-39266040D01*
X72138942Y-39228147D01*
X72102319Y-39183949D01*
X72072449Y-39133972D01*
X72056501Y-39097703D01*
X72043874Y-39059258D01*
X72034697Y-39018791D01*
X72029096Y-38976459D01*
X72027201Y-38932418D01*
X72027243Y-38931441D01*
X72173942Y-38931441D01*
X72175063Y-38962081D01*
X72180869Y-39005968D01*
X72191479Y-39046999D01*
X72206725Y-39084758D01*
X72226442Y-39118830D01*
X72259398Y-39157807D01*
X72299613Y-39188506D01*
X72346693Y-39209943D01*
X72386271Y-39219351D01*
X72429323Y-39222579D01*
X72458415Y-39221144D01*
X72499233Y-39213800D01*
X72536509Y-39200582D01*
X72580393Y-39174511D01*
X72617243Y-39139658D01*
X72646638Y-39096975D01*
X72663538Y-39060395D01*
X72675829Y-39020345D01*
X72683334Y-38977227D01*
X72685875Y-38931441D01*
X72684754Y-38900265D01*
X72678939Y-38855870D01*
X72668302Y-38814635D01*
X72652997Y-38776916D01*
X72625597Y-38732710D01*
X72590540Y-38696234D01*
X72548192Y-38668332D01*
X72511867Y-38653541D01*
X72471801Y-38644405D01*
X72428150Y-38641281D01*
X72399085Y-38642702D01*
X72358394Y-38649983D01*
X72321331Y-38663098D01*
X72277822Y-38688988D01*
X72241402Y-38723639D01*
X72212438Y-38766131D01*
X72195828Y-38802591D01*
X72183772Y-38842555D01*
X72176426Y-38885634D01*
X72173942Y-38931441D01*
X72027243Y-38931441D01*
X72029109Y-38888397D01*
X72034743Y-38846051D01*
X72043967Y-38805543D01*
X72056648Y-38767032D01*
X72072650Y-38730680D01*
X72102585Y-38680548D01*
X72139235Y-38636176D01*
X72182145Y-38598105D01*
X72230860Y-38566876D01*
X72266336Y-38550126D01*
X72304056Y-38536819D01*
X72343883Y-38527115D01*
X72385684Y-38521175D01*
X72429323Y-38519159D01*
X72473181Y-38521162D01*
G37*
G36*
X72918590Y-39100262D02*
G01*
X72924320Y-39140511D01*
X72940542Y-39189535D01*
X72965937Y-39232781D01*
X72999810Y-39269731D01*
X73041467Y-39299868D01*
X73077402Y-39317688D01*
X73117033Y-39331166D01*
X73160066Y-39340085D01*
X73206211Y-39344224D01*
X73222233Y-39344505D01*
X73269619Y-39341894D01*
X73313946Y-39334236D01*
X73354863Y-39321786D01*
X73392022Y-39304803D01*
X73425072Y-39283546D01*
X73462142Y-39248999D01*
X73490458Y-39207922D01*
X73509190Y-39160927D01*
X73516450Y-39122164D01*
X73517864Y-39094791D01*
X73513934Y-39045803D01*
X73502361Y-39004885D01*
X73477641Y-38963284D01*
X73442122Y-38930138D01*
X73406358Y-38908157D01*
X73364413Y-38888929D01*
X73316614Y-38871271D01*
X73290621Y-38862662D01*
X73234542Y-38845859D01*
X73197248Y-38833841D01*
X73158678Y-38818531D01*
X73123710Y-38797014D01*
X73099287Y-38763859D01*
X73093468Y-38730381D01*
X73101885Y-38690893D01*
X73126367Y-38659648D01*
X73165761Y-38639101D01*
X73204397Y-38632188D01*
X73218911Y-38631706D01*
X73261661Y-38635662D01*
X73302042Y-38649817D01*
X73336181Y-38677597D01*
X73358107Y-38716613D01*
X73363307Y-38733898D01*
X73498911Y-38733898D01*
X73490284Y-38685901D01*
X73473787Y-38642395D01*
X73449647Y-38603968D01*
X73418091Y-38571207D01*
X73379344Y-38544703D01*
X73333635Y-38525043D01*
X73294919Y-38515143D01*
X73252510Y-38509672D01*
X73222233Y-38508608D01*
X73177858Y-38511099D01*
X73136296Y-38518377D01*
X73097885Y-38530150D01*
X73052158Y-38552333D01*
X73013439Y-38581291D01*
X72982532Y-38616332D01*
X72960241Y-38656761D01*
X72947370Y-38701885D01*
X72944382Y-38738392D01*
X72948368Y-38783536D01*
X72960081Y-38823382D01*
X72979148Y-38858310D01*
X73005198Y-38888699D01*
X73037862Y-38914930D01*
X73076768Y-38937382D01*
X73121544Y-38956437D01*
X73158756Y-38968727D01*
X73171821Y-38972474D01*
X73224382Y-38987129D01*
X73263939Y-38998422D01*
X73304311Y-39012710D01*
X73340406Y-39033531D01*
X73365266Y-39067624D01*
X73371123Y-39103779D01*
X73363958Y-39147333D01*
X73342748Y-39182753D01*
X73307924Y-39208360D01*
X73267564Y-39221224D01*
X73226727Y-39224728D01*
X73185488Y-39221271D01*
X73142544Y-39208445D01*
X73107270Y-39186912D01*
X73080230Y-39157476D01*
X73061988Y-39120941D01*
X73056343Y-39100262D01*
X72918590Y-39100262D01*
G37*
G36*
X73938979Y-38532088D02*
G01*
X73983952Y-38534258D01*
X74028609Y-38540312D01*
X74068817Y-38551633D01*
X74108736Y-38569766D01*
X74133370Y-38585371D01*
X74164942Y-38614725D01*
X74189654Y-38650513D01*
X74207050Y-38691948D01*
X74215630Y-38730222D01*
X74218548Y-38771413D01*
X74218166Y-38786802D01*
X74212436Y-38831421D01*
X74199843Y-38873061D01*
X74180404Y-38910882D01*
X74154133Y-38944040D01*
X74121046Y-38971692D01*
X74097329Y-38985559D01*
X74059322Y-39000698D01*
X74018318Y-39010185D01*
X73974222Y-39015304D01*
X73935047Y-39017157D01*
X73893607Y-39017610D01*
X73799623Y-39017610D01*
X73799623Y-39332000D01*
X73657376Y-39332000D01*
X73657376Y-38894316D01*
X73799623Y-38894316D01*
X73919399Y-38894316D01*
X73927640Y-38894218D01*
X73966838Y-38890649D01*
X74008251Y-38879077D01*
X74046301Y-38854439D01*
X74070293Y-38816511D01*
X74077278Y-38772390D01*
X74076647Y-38758011D01*
X74064453Y-38715396D01*
X74036563Y-38684512D01*
X74000006Y-38667117D01*
X73960522Y-38658856D01*
X73912756Y-38656131D01*
X73799623Y-38656131D01*
X73799623Y-38894316D01*
X73657376Y-38894316D01*
X73657376Y-38531665D01*
X73894780Y-38531665D01*
X73938979Y-38532088D01*
G37*
G36*
X74834431Y-38982439D02*
G01*
X74834431Y-39332000D01*
X74976678Y-39332000D01*
X74976678Y-38531665D01*
X74834431Y-38531665D01*
X74834431Y-38856801D01*
X74492882Y-38856801D01*
X74492882Y-38531665D01*
X74350635Y-38531665D01*
X74350635Y-39332000D01*
X74492882Y-39332000D01*
X74492882Y-38982439D01*
X74834431Y-38982439D01*
G37*
G36*
X75166601Y-39332000D02*
G01*
X75666029Y-39332000D01*
X75666029Y-39207729D01*
X75307676Y-39207729D01*
X75307676Y-38982439D01*
X75631444Y-38982439D01*
X75631444Y-38856801D01*
X75307676Y-38856801D01*
X75307676Y-38658280D01*
X75658213Y-38658280D01*
X75658213Y-38531665D01*
X75166601Y-38531665D01*
X75166601Y-39332000D01*
G37*
G36*
X76086631Y-38531685D02*
G01*
X76130713Y-38532914D01*
X76172691Y-38536767D01*
X76212389Y-38544255D01*
X76249627Y-38556392D01*
X76289727Y-38577778D01*
X76300939Y-38585828D01*
X76330562Y-38613281D01*
X76353992Y-38645402D01*
X76371005Y-38681827D01*
X76381377Y-38722193D01*
X76384884Y-38766138D01*
X76384618Y-38779175D01*
X76378479Y-38827268D01*
X76364961Y-38869079D01*
X76345048Y-38904888D01*
X76319727Y-38934973D01*
X76281967Y-38964957D01*
X76239216Y-38986980D01*
X76193398Y-39001588D01*
X76393872Y-39332000D01*
X76231500Y-39332000D01*
X76046657Y-39019369D01*
X75955994Y-39019369D01*
X75955994Y-39332000D01*
X75813747Y-39332000D01*
X75813747Y-38898420D01*
X75955994Y-38898420D01*
X76072449Y-38898420D01*
X76091523Y-38897999D01*
X76135032Y-38893141D01*
X76178638Y-38879699D01*
X76211812Y-38857332D01*
X76235856Y-38819082D01*
X76242637Y-38775126D01*
X76240919Y-38751320D01*
X76227587Y-38712467D01*
X76196598Y-38680677D01*
X76158070Y-38663786D01*
X76118370Y-38656181D01*
X76072449Y-38653786D01*
X75955994Y-38653786D01*
X75955994Y-38898420D01*
X75813747Y-38898420D01*
X75813747Y-38531665D01*
X76079092Y-38531665D01*
X76086631Y-38531685D01*
G37*
G36*
X76525764Y-39332000D02*
G01*
X77025191Y-39332000D01*
X77025191Y-39207729D01*
X76666838Y-39207729D01*
X76666838Y-38982439D01*
X76990607Y-38982439D01*
X76990607Y-38856801D01*
X76666838Y-38856801D01*
X76666838Y-38658280D01*
X77017376Y-38658280D01*
X77017376Y-38531665D01*
X76525764Y-38531665D01*
X76525764Y-39332000D01*
G37*
G36*
X77115659Y-39100262D02*
G01*
X77121389Y-39140511D01*
X77137611Y-39189535D01*
X77163006Y-39232781D01*
X77196879Y-39269731D01*
X77238537Y-39299868D01*
X77274471Y-39317688D01*
X77314102Y-39331166D01*
X77357135Y-39340085D01*
X77403280Y-39344224D01*
X77419302Y-39344505D01*
X77466688Y-39341894D01*
X77511015Y-39334236D01*
X77551932Y-39321786D01*
X77589091Y-39304803D01*
X77622141Y-39283546D01*
X77659211Y-39248999D01*
X77687527Y-39207922D01*
X77706259Y-39160927D01*
X77713519Y-39122164D01*
X77714933Y-39094791D01*
X77711003Y-39045803D01*
X77699430Y-39004885D01*
X77674710Y-38963284D01*
X77639191Y-38930138D01*
X77603427Y-38908157D01*
X77561483Y-38888929D01*
X77513683Y-38871271D01*
X77487690Y-38862662D01*
X77431612Y-38845859D01*
X77394317Y-38833841D01*
X77355747Y-38818531D01*
X77320779Y-38797014D01*
X77296356Y-38763859D01*
X77290537Y-38730381D01*
X77298954Y-38690893D01*
X77323436Y-38659648D01*
X77362830Y-38639101D01*
X77401466Y-38632188D01*
X77415980Y-38631706D01*
X77458730Y-38635662D01*
X77499111Y-38649817D01*
X77533250Y-38677597D01*
X77555176Y-38716613D01*
X77560376Y-38733898D01*
X77695980Y-38733898D01*
X77687353Y-38685901D01*
X77670857Y-38642395D01*
X77646717Y-38603968D01*
X77615160Y-38571207D01*
X77576414Y-38544703D01*
X77530704Y-38525043D01*
X77491988Y-38515143D01*
X77449579Y-38509672D01*
X77419302Y-38508608D01*
X77374927Y-38511099D01*
X77333365Y-38518377D01*
X77294954Y-38530150D01*
X77249227Y-38552333D01*
X77210508Y-38581291D01*
X77179601Y-38616332D01*
X77157311Y-38656761D01*
X77144439Y-38701885D01*
X77141451Y-38738392D01*
X77145438Y-38783536D01*
X77157150Y-38823382D01*
X77176217Y-38858310D01*
X77202267Y-38888699D01*
X77234931Y-38914930D01*
X77273837Y-38937382D01*
X77318613Y-38956437D01*
X77355825Y-38968727D01*
X77368890Y-38972474D01*
X77421451Y-38987129D01*
X77461008Y-38998422D01*
X77501380Y-39012710D01*
X77537475Y-39033531D01*
X77562336Y-39067624D01*
X77568192Y-39103779D01*
X77561027Y-39147333D01*
X77539817Y-39182753D01*
X77504993Y-39208360D01*
X77464634Y-39221224D01*
X77423796Y-39224728D01*
X77382557Y-39221271D01*
X77339613Y-39208445D01*
X77304339Y-39186912D01*
X77277299Y-39157476D01*
X77259057Y-39120941D01*
X77253412Y-39100262D01*
X77115659Y-39100262D01*
G37*
G36*
X70537906Y-41788262D02*
G01*
X70543636Y-41828511D01*
X70559858Y-41877535D01*
X70585253Y-41920781D01*
X70619126Y-41957731D01*
X70660784Y-41987868D01*
X70696718Y-42005688D01*
X70736349Y-42019166D01*
X70779382Y-42028085D01*
X70825527Y-42032224D01*
X70841549Y-42032505D01*
X70888935Y-42029894D01*
X70933262Y-42022236D01*
X70974179Y-42009786D01*
X71011338Y-41992803D01*
X71044388Y-41971546D01*
X71081458Y-41936999D01*
X71109774Y-41895922D01*
X71128506Y-41848927D01*
X71135766Y-41810164D01*
X71137180Y-41782791D01*
X71133250Y-41733803D01*
X71121677Y-41692885D01*
X71096957Y-41651284D01*
X71061438Y-41618138D01*
X71025674Y-41596157D01*
X70983730Y-41576929D01*
X70935930Y-41559271D01*
X70909937Y-41550662D01*
X70853859Y-41533859D01*
X70816564Y-41521841D01*
X70777994Y-41506531D01*
X70743026Y-41485014D01*
X70718603Y-41451859D01*
X70712784Y-41418381D01*
X70721201Y-41378893D01*
X70745683Y-41347648D01*
X70785077Y-41327101D01*
X70823713Y-41320188D01*
X70838227Y-41319706D01*
X70880977Y-41323662D01*
X70921358Y-41337817D01*
X70955497Y-41365597D01*
X70977423Y-41404613D01*
X70982623Y-41421898D01*
X71118227Y-41421898D01*
X71109600Y-41373901D01*
X71093104Y-41330395D01*
X71068964Y-41291968D01*
X71037407Y-41259207D01*
X70998661Y-41232703D01*
X70952951Y-41213043D01*
X70914235Y-41203143D01*
X70871826Y-41197672D01*
X70841549Y-41196608D01*
X70797174Y-41199099D01*
X70755612Y-41206377D01*
X70717201Y-41218150D01*
X70671474Y-41240333D01*
X70632755Y-41269291D01*
X70601848Y-41304332D01*
X70579558Y-41344761D01*
X70566686Y-41389885D01*
X70563698Y-41426392D01*
X70567685Y-41471536D01*
X70579397Y-41511382D01*
X70598464Y-41546310D01*
X70624515Y-41576699D01*
X70657178Y-41602930D01*
X70696084Y-41625382D01*
X70740860Y-41644437D01*
X70778072Y-41656727D01*
X70791137Y-41660474D01*
X70843698Y-41675129D01*
X70883255Y-41686422D01*
X70923627Y-41700710D01*
X70959722Y-41721531D01*
X70984583Y-41755624D01*
X70990439Y-41791779D01*
X70983274Y-41835333D01*
X70962064Y-41870753D01*
X70927240Y-41896360D01*
X70886881Y-41909224D01*
X70846043Y-41912728D01*
X70804804Y-41909271D01*
X70761860Y-41896445D01*
X70726586Y-41874912D01*
X70699546Y-41845476D01*
X70681304Y-41808941D01*
X70675659Y-41788262D01*
X70537906Y-41788262D01*
G37*
G36*
X71836692Y-41786503D02*
G01*
X71812444Y-41823058D01*
X71782184Y-41855471D01*
X71745339Y-41881949D01*
X71709193Y-41898187D01*
X71667747Y-41908020D01*
X71630551Y-41910579D01*
X71587499Y-41907351D01*
X71547921Y-41897950D01*
X71500842Y-41876536D01*
X71460627Y-41845889D01*
X71427670Y-41807004D01*
X71407953Y-41773034D01*
X71392707Y-41735411D01*
X71382098Y-41694555D01*
X71376291Y-41650886D01*
X71375170Y-41620418D01*
X71377572Y-41575400D01*
X71384694Y-41532748D01*
X71396416Y-41492912D01*
X71412615Y-41456344D01*
X71440969Y-41413447D01*
X71476779Y-41378225D01*
X71519756Y-41351745D01*
X71556519Y-41338264D01*
X71597028Y-41330751D01*
X71626057Y-41329281D01*
X71670370Y-41332939D01*
X71710658Y-41343607D01*
X71746701Y-41360825D01*
X71778279Y-41384130D01*
X71805174Y-41413064D01*
X71827167Y-41447165D01*
X71834542Y-41462149D01*
X71990076Y-41462149D01*
X71975843Y-41421273D01*
X71957182Y-41383038D01*
X71934209Y-41347745D01*
X71907040Y-41315695D01*
X71875790Y-41287189D01*
X71840576Y-41262530D01*
X71801513Y-41242017D01*
X71758717Y-41225954D01*
X71712305Y-41214640D01*
X71662392Y-41208379D01*
X71627229Y-41207159D01*
X71582887Y-41209235D01*
X71540642Y-41215340D01*
X71500600Y-41225288D01*
X71462866Y-41238896D01*
X71427545Y-41255978D01*
X71379320Y-41287713D01*
X71337117Y-41326228D01*
X71301293Y-41370899D01*
X71272202Y-41421104D01*
X71256725Y-41457340D01*
X71244504Y-41495575D01*
X71235644Y-41535622D01*
X71230251Y-41577298D01*
X71228429Y-41620418D01*
X71230263Y-41663718D01*
X71235688Y-41705501D01*
X71244590Y-41745589D01*
X71256856Y-41783808D01*
X71272373Y-41819980D01*
X71301494Y-41870018D01*
X71337288Y-41914462D01*
X71379374Y-41952719D01*
X71427366Y-41984194D01*
X71480882Y-42008293D01*
X71519439Y-42019969D01*
X71560167Y-42027926D01*
X71602951Y-42031989D01*
X71625080Y-42032505D01*
X71677425Y-42029519D01*
X71726064Y-42020904D01*
X71770959Y-42007169D01*
X71812073Y-41988826D01*
X71849368Y-41966386D01*
X71882807Y-41940360D01*
X71912352Y-41911259D01*
X71937964Y-41879593D01*
X71959607Y-41845875D01*
X71977242Y-41810615D01*
X71986755Y-41786503D01*
X71836692Y-41786503D01*
G37*
G36*
X72601465Y-41670439D02*
G01*
X72601465Y-42020000D01*
X72743712Y-42020000D01*
X72743712Y-41219665D01*
X72601465Y-41219665D01*
X72601465Y-41544801D01*
X72259916Y-41544801D01*
X72259916Y-41219665D01*
X72117669Y-41219665D01*
X72117669Y-42020000D01*
X72259916Y-42020000D01*
X72259916Y-41670439D01*
X72601465Y-41670439D01*
G37*
G36*
X72933635Y-42020000D02*
G01*
X73397306Y-42020000D01*
X73397306Y-41895729D01*
X73075882Y-41895729D01*
X73075882Y-41219665D01*
X72933635Y-41219665D01*
X72933635Y-42020000D01*
G37*
G36*
X73522163Y-42020000D02*
G01*
X73664410Y-42020000D01*
X73664410Y-41219665D01*
X73522163Y-41219665D01*
X73522163Y-42020000D01*
G37*
G36*
X73998729Y-42020000D02*
G01*
X74140976Y-42020000D01*
X74140976Y-41346280D01*
X74341451Y-41346280D01*
X74341451Y-41219665D01*
X73798255Y-41219665D01*
X73798255Y-41346280D01*
X73998729Y-41346280D01*
X73998729Y-42020000D01*
G37*
G36*
X74620083Y-42020000D02*
G01*
X74762330Y-42020000D01*
X74762330Y-41346280D01*
X74962805Y-41346280D01*
X74962805Y-41219665D01*
X74419609Y-41219665D01*
X74419609Y-41346280D01*
X74620083Y-41346280D01*
X74620083Y-42020000D01*
G37*
G36*
X75097041Y-42020000D02*
G01*
X75596468Y-42020000D01*
X75596468Y-41895729D01*
X75238115Y-41895729D01*
X75238115Y-41670439D01*
X75561884Y-41670439D01*
X75561884Y-41544801D01*
X75238115Y-41544801D01*
X75238115Y-41346280D01*
X75588653Y-41346280D01*
X75588653Y-41219665D01*
X75097041Y-41219665D01*
X75097041Y-42020000D01*
G37*
G36*
X76017071Y-41219685D02*
G01*
X76061153Y-41220914D01*
X76103131Y-41224767D01*
X76142828Y-41232255D01*
X76180067Y-41244392D01*
X76220167Y-41265778D01*
X76231379Y-41273828D01*
X76261001Y-41301281D01*
X76284431Y-41333402D01*
X76301445Y-41369827D01*
X76311817Y-41410193D01*
X76315324Y-41454138D01*
X76315058Y-41467175D01*
X76308918Y-41515268D01*
X76295400Y-41557079D01*
X76275488Y-41592888D01*
X76250166Y-41622973D01*
X76212407Y-41652957D01*
X76169656Y-41674980D01*
X76123838Y-41689588D01*
X76324312Y-42020000D01*
X76161939Y-42020000D01*
X75977096Y-41707369D01*
X75886434Y-41707369D01*
X75886434Y-42020000D01*
X75744187Y-42020000D01*
X75744187Y-41586420D01*
X75886434Y-41586420D01*
X76002889Y-41586420D01*
X76021962Y-41585999D01*
X76065472Y-41581141D01*
X76109077Y-41567699D01*
X76142251Y-41545332D01*
X76166296Y-41507082D01*
X76173077Y-41463126D01*
X76171359Y-41439320D01*
X76158026Y-41400467D01*
X76127037Y-41368677D01*
X76088509Y-41351786D01*
X76048809Y-41344181D01*
X76002889Y-41341786D01*
X75886434Y-41341786D01*
X75886434Y-41586420D01*
X75744187Y-41586420D01*
X75744187Y-41219665D01*
X76009532Y-41219665D01*
X76017071Y-41219685D01*
G37*
G36*
X76456203Y-42020000D02*
G01*
X76595129Y-42020000D01*
X76595129Y-41673175D01*
X76595020Y-41626768D01*
X76594808Y-41581071D01*
X76594542Y-41533297D01*
X76594277Y-41487483D01*
X76594064Y-41447668D01*
X76593956Y-41413496D01*
X76595129Y-41413496D01*
X76616323Y-41450066D01*
X76637567Y-41485924D01*
X76659673Y-41523323D01*
X76680364Y-41558591D01*
X76693607Y-41581339D01*
X76951137Y-42020000D01*
X77120348Y-42020000D01*
X77120348Y-41219665D01*
X76984745Y-41219665D01*
X76984745Y-41614947D01*
X76984853Y-41659201D01*
X76985116Y-41703713D01*
X76985440Y-41746349D01*
X76985773Y-41790875D01*
X76985917Y-41826559D01*
X76984745Y-41827536D01*
X76963305Y-41790768D01*
X76943272Y-41756926D01*
X76922398Y-41721653D01*
X76902596Y-41687833D01*
X76897404Y-41678841D01*
X76630886Y-41219665D01*
X76456203Y-41219665D01*
X76456203Y-42020000D01*
G37*
G36*
X77528631Y-41219932D02*
G01*
X77572332Y-41221142D01*
X77615832Y-41223910D01*
X77658709Y-41228848D01*
X77700541Y-41236571D01*
X77740908Y-41247691D01*
X77779389Y-41262824D01*
X77815561Y-41282581D01*
X77834230Y-41295482D01*
X77868727Y-41325498D01*
X77899187Y-41360674D01*
X77925313Y-41400454D01*
X77946806Y-41444285D01*
X77963369Y-41491612D01*
X77974705Y-41541881D01*
X77979597Y-41581181D01*
X77981256Y-41621591D01*
X77978778Y-41670228D01*
X77971513Y-41716867D01*
X77959710Y-41761193D01*
X77943618Y-41802892D01*
X77923486Y-41841651D01*
X77899566Y-41877157D01*
X77872105Y-41909095D01*
X77841353Y-41937152D01*
X77832488Y-41944095D01*
X77796207Y-41968018D01*
X77758358Y-41986342D01*
X77718595Y-41999804D01*
X77676573Y-42009140D01*
X77631946Y-42015089D01*
X77584368Y-42018387D01*
X77533493Y-42019772D01*
X77492965Y-42020000D01*
X77310467Y-42020000D01*
X77310467Y-41346280D01*
X77452714Y-41346280D01*
X77452714Y-41896901D01*
X77531067Y-41896901D01*
X77582804Y-41895017D01*
X77630195Y-41889142D01*
X77673078Y-41878945D01*
X77711291Y-41864093D01*
X77754696Y-41836475D01*
X77789125Y-41799204D01*
X77808825Y-41764441D01*
X77823097Y-41723473D01*
X77831780Y-41675967D01*
X77834710Y-41621591D01*
X77831848Y-41572877D01*
X77823395Y-41528760D01*
X77809551Y-41489283D01*
X77790516Y-41454487D01*
X77757407Y-41415450D01*
X77715899Y-41384912D01*
X77679542Y-41367647D01*
X77638926Y-41355262D01*
X77594253Y-41347800D01*
X77545722Y-41345303D01*
X77532982Y-41345305D01*
X77491887Y-41345477D01*
X77452714Y-41346280D01*
X77310467Y-41346280D01*
X77310467Y-41219665D01*
X77485150Y-41219665D01*
X77528631Y-41219932D01*
G37*
G36*
X78124089Y-42020000D02*
G01*
X78623517Y-42020000D01*
X78623517Y-41895729D01*
X78265163Y-41895729D01*
X78265163Y-41670439D01*
X78588932Y-41670439D01*
X78588932Y-41544801D01*
X78265163Y-41544801D01*
X78265163Y-41346280D01*
X78615701Y-41346280D01*
X78615701Y-41219665D01*
X78124089Y-41219665D01*
X78124089Y-42020000D01*
G37*
G36*
X78990662Y-41788262D02*
G01*
X78996392Y-41828511D01*
X79012615Y-41877535D01*
X79038009Y-41920781D01*
X79071882Y-41957731D01*
X79113540Y-41987868D01*
X79149475Y-42005688D01*
X79189105Y-42019166D01*
X79232139Y-42028085D01*
X79278283Y-42032224D01*
X79294305Y-42032505D01*
X79341692Y-42029894D01*
X79386018Y-42022236D01*
X79426936Y-42009786D01*
X79464094Y-41992803D01*
X79497144Y-41971546D01*
X79534215Y-41936999D01*
X79562530Y-41895922D01*
X79581262Y-41848927D01*
X79588523Y-41810164D01*
X79589937Y-41782791D01*
X79586007Y-41733803D01*
X79574433Y-41692885D01*
X79549714Y-41651284D01*
X79514195Y-41618138D01*
X79478430Y-41596157D01*
X79436486Y-41576929D01*
X79388687Y-41559271D01*
X79362693Y-41550662D01*
X79306615Y-41533859D01*
X79269321Y-41521841D01*
X79230751Y-41506531D01*
X79195783Y-41485014D01*
X79171360Y-41451859D01*
X79165540Y-41418381D01*
X79173958Y-41378893D01*
X79198440Y-41347648D01*
X79237833Y-41327101D01*
X79276469Y-41320188D01*
X79290983Y-41319706D01*
X79333734Y-41323662D01*
X79374114Y-41337817D01*
X79408254Y-41365597D01*
X79430179Y-41404613D01*
X79435380Y-41421898D01*
X79570983Y-41421898D01*
X79562357Y-41373901D01*
X79545860Y-41330395D01*
X79521720Y-41291968D01*
X79490163Y-41259207D01*
X79451417Y-41232703D01*
X79405707Y-41213043D01*
X79366992Y-41203143D01*
X79324583Y-41197672D01*
X79294305Y-41196608D01*
X79249931Y-41199099D01*
X79208369Y-41206377D01*
X79169957Y-41218150D01*
X79124230Y-41240333D01*
X79085511Y-41269291D01*
X79054605Y-41304332D01*
X79032314Y-41344761D01*
X79019443Y-41389885D01*
X79016454Y-41426392D01*
X79020441Y-41471536D01*
X79032153Y-41511382D01*
X79051220Y-41546310D01*
X79077271Y-41576699D01*
X79109935Y-41602930D01*
X79148840Y-41625382D01*
X79193617Y-41644437D01*
X79230829Y-41656727D01*
X79243893Y-41660474D01*
X79296454Y-41675129D01*
X79336012Y-41686422D01*
X79376384Y-41700710D01*
X79412479Y-41721531D01*
X79437339Y-41755624D01*
X79443196Y-41791779D01*
X79436030Y-41835333D01*
X79414821Y-41870753D01*
X79379997Y-41896360D01*
X79339637Y-41909224D01*
X79298799Y-41912728D01*
X79257560Y-41909271D01*
X79214616Y-41896445D01*
X79179342Y-41874912D01*
X79152302Y-41845476D01*
X79134061Y-41808941D01*
X79128415Y-41788262D01*
X78990662Y-41788262D01*
G37*
G36*
X79866029Y-42020000D02*
G01*
X80008276Y-42020000D01*
X80008276Y-41346280D01*
X80208750Y-41346280D01*
X80208750Y-41219665D01*
X79665554Y-41219665D01*
X79665554Y-41346280D01*
X79866029Y-41346280D01*
X79866029Y-42020000D01*
G37*
G36*
X80342986Y-42020000D02*
G01*
X80842414Y-42020000D01*
X80842414Y-41895729D01*
X80484061Y-41895729D01*
X80484061Y-41670439D01*
X80807829Y-41670439D01*
X80807829Y-41544801D01*
X80484061Y-41544801D01*
X80484061Y-41346280D01*
X80834598Y-41346280D01*
X80834598Y-41219665D01*
X80342986Y-41219665D01*
X80342986Y-42020000D01*
G37*
G36*
X80990132Y-42020000D02*
G01*
X81132379Y-42020000D01*
X81132379Y-41219665D01*
X80990132Y-41219665D01*
X80990132Y-42020000D01*
G37*
G36*
X81322302Y-42020000D02*
G01*
X81461228Y-42020000D01*
X81461228Y-41673175D01*
X81461120Y-41626768D01*
X81460907Y-41581071D01*
X81460642Y-41533297D01*
X81460376Y-41487483D01*
X81460164Y-41447668D01*
X81460055Y-41413496D01*
X81461228Y-41413496D01*
X81482422Y-41450066D01*
X81503666Y-41485924D01*
X81525772Y-41523323D01*
X81546463Y-41558591D01*
X81559706Y-41581339D01*
X81817236Y-42020000D01*
X81986448Y-42020000D01*
X81986448Y-41219665D01*
X81850844Y-41219665D01*
X81850844Y-41614947D01*
X81850952Y-41659201D01*
X81851215Y-41703713D01*
X81851539Y-41746349D01*
X81851872Y-41790875D01*
X81852016Y-41826559D01*
X81850844Y-41827536D01*
X81829404Y-41790768D01*
X81809371Y-41756926D01*
X81788497Y-41721653D01*
X81768695Y-41687833D01*
X81763503Y-41678841D01*
X81496985Y-41219665D01*
X81322302Y-41219665D01*
X81322302Y-42020000D01*
G37*
G36*
X82176566Y-42020000D02*
G01*
X82675994Y-42020000D01*
X82675994Y-41895729D01*
X82317641Y-41895729D01*
X82317641Y-41670439D01*
X82641409Y-41670439D01*
X82641409Y-41544801D01*
X82317641Y-41544801D01*
X82317641Y-41346280D01*
X82668178Y-41346280D01*
X82668178Y-41219665D01*
X82176566Y-41219665D01*
X82176566Y-42020000D01*
G37*
G36*
X70806574Y-42563789D02*
G01*
X70865934Y-42565761D01*
X70919351Y-42570418D01*
X70966804Y-42578129D01*
X71008272Y-42589262D01*
X71054215Y-42610064D01*
X71089429Y-42638476D01*
X71113864Y-42675369D01*
X71127470Y-42721617D01*
X71130537Y-42762967D01*
X71129855Y-42780414D01*
X71122609Y-42820250D01*
X71104965Y-42860872D01*
X71079698Y-42893594D01*
X71049072Y-42918348D01*
X71009588Y-42937063D01*
X71022599Y-42941289D01*
X71063025Y-42959680D01*
X71095885Y-42982080D01*
X71125277Y-43011504D01*
X71148657Y-43048506D01*
X71163479Y-43093639D01*
X71167466Y-43135974D01*
X71166967Y-43153648D01*
X71159760Y-43201311D01*
X71144740Y-43241416D01*
X71122871Y-43274577D01*
X71084724Y-43309053D01*
X71050623Y-43328402D01*
X71012887Y-43342856D01*
X70972480Y-43353028D01*
X70930365Y-43359533D01*
X70887507Y-43362985D01*
X70844870Y-43364000D01*
X70595157Y-43364000D01*
X70595157Y-43240901D01*
X70735059Y-43240901D01*
X70819078Y-43240901D01*
X70829830Y-43240857D01*
X70871140Y-43239565D01*
X70918059Y-43234447D01*
X70958330Y-43223883D01*
X70995755Y-43201677D01*
X71018830Y-43166359D01*
X71025219Y-43124837D01*
X71024391Y-43109357D01*
X71012546Y-43070685D01*
X70983041Y-43039013D01*
X70946542Y-43022004D01*
X70901760Y-43013071D01*
X70859525Y-43010922D01*
X70735059Y-43010922D01*
X70735059Y-43240901D01*
X70595157Y-43240901D01*
X70595157Y-42888801D01*
X70735059Y-42888801D01*
X70852686Y-42888801D01*
X70876484Y-42887028D01*
X70917413Y-42879888D01*
X70957833Y-42860804D01*
X70981589Y-42827664D01*
X70988290Y-42784460D01*
X70981788Y-42744806D01*
X70954611Y-42710874D01*
X70915900Y-42695180D01*
X70873425Y-42689331D01*
X70832561Y-42688131D01*
X70735059Y-42688131D01*
X70735059Y-42888801D01*
X70595157Y-42888801D01*
X70595157Y-42563665D01*
X70785471Y-42563665D01*
X70806574Y-42563789D01*
G37*
G36*
X71582402Y-42563685D02*
G01*
X71626484Y-42564914D01*
X71668462Y-42568767D01*
X71708160Y-42576255D01*
X71745398Y-42588392D01*
X71785498Y-42609778D01*
X71796710Y-42617828D01*
X71826333Y-42645281D01*
X71849763Y-42677402D01*
X71866776Y-42713827D01*
X71877148Y-42754193D01*
X71880655Y-42798138D01*
X71880389Y-42811175D01*
X71874250Y-42859268D01*
X71860732Y-42901079D01*
X71840819Y-42936888D01*
X71815498Y-42966973D01*
X71777738Y-42996957D01*
X71734988Y-43018980D01*
X71689169Y-43033588D01*
X71889644Y-43364000D01*
X71727271Y-43364000D01*
X71542428Y-43051369D01*
X71451765Y-43051369D01*
X71451765Y-43364000D01*
X71309518Y-43364000D01*
X71309518Y-42930420D01*
X71451765Y-42930420D01*
X71568220Y-42930420D01*
X71587294Y-42929999D01*
X71630803Y-42925141D01*
X71674409Y-42911699D01*
X71707583Y-42889332D01*
X71731627Y-42851082D01*
X71738408Y-42807126D01*
X71736690Y-42783320D01*
X71723358Y-42744467D01*
X71692369Y-42712677D01*
X71653841Y-42695786D01*
X71614141Y-42688181D01*
X71568220Y-42685786D01*
X71451765Y-42685786D01*
X71451765Y-42930420D01*
X71309518Y-42930420D01*
X71309518Y-42563665D01*
X71574863Y-42563665D01*
X71582402Y-42563685D01*
G37*
G36*
X72021535Y-43364000D02*
G01*
X72520963Y-43364000D01*
X72520963Y-43239729D01*
X72162609Y-43239729D01*
X72162609Y-43014439D01*
X72486378Y-43014439D01*
X72486378Y-42888801D01*
X72162609Y-42888801D01*
X72162609Y-42690280D01*
X72513147Y-42690280D01*
X72513147Y-42563665D01*
X72021535Y-42563665D01*
X72021535Y-43364000D01*
G37*
G36*
X73376594Y-43364000D02*
G01*
X73228681Y-43364000D01*
X73222809Y-43349720D01*
X73205474Y-43306966D01*
X73188460Y-43264284D01*
X73171633Y-43221604D01*
X73154863Y-43178857D01*
X73138018Y-43135974D01*
X72801939Y-43135974D01*
X72712254Y-43364000D01*
X72566685Y-43364000D01*
X72583708Y-43323608D01*
X72601251Y-43281428D01*
X72620134Y-43235597D01*
X72641176Y-43184253D01*
X72656807Y-43146042D01*
X72674005Y-43104003D01*
X72693012Y-43057583D01*
X72710944Y-43013853D01*
X72849030Y-43013853D01*
X73090928Y-43013853D01*
X73083602Y-42995588D01*
X73069630Y-42958752D01*
X73062942Y-42940856D01*
X73049260Y-42904123D01*
X73034886Y-42865380D01*
X73018914Y-42822116D01*
X73002681Y-42777834D01*
X72987524Y-42736038D01*
X72972128Y-42692625D01*
X72969979Y-42692625D01*
X72963677Y-42709148D01*
X72947923Y-42750724D01*
X72932170Y-42792543D01*
X72916416Y-42834429D01*
X72900662Y-42876209D01*
X72884909Y-42917708D01*
X72869155Y-42958752D01*
X72849030Y-43013853D01*
X72710944Y-43013853D01*
X72714070Y-43006231D01*
X72737423Y-42949396D01*
X72763312Y-42886526D01*
X72791982Y-42817069D01*
X72807435Y-42779699D01*
X72823674Y-42740475D01*
X72840729Y-42699328D01*
X72858631Y-42656190D01*
X72877410Y-42610992D01*
X72897096Y-42563665D01*
X73051653Y-42563665D01*
X73376594Y-43364000D01*
G37*
G36*
X73466671Y-43364000D02*
G01*
X73608918Y-43364000D01*
X73608918Y-42963050D01*
X73692937Y-43072667D01*
X73916859Y-43364000D01*
X74090565Y-43364000D01*
X73756636Y-42935304D01*
X74080404Y-42563665D01*
X73907871Y-42563665D01*
X73882668Y-42594436D01*
X73857478Y-42624710D01*
X73832315Y-42654632D01*
X73800922Y-42691758D01*
X73769620Y-42728840D01*
X73738436Y-42766160D01*
X73713592Y-42796376D01*
X73707397Y-42804000D01*
X73608918Y-42926316D01*
X73608918Y-42563665D01*
X73466671Y-42563665D01*
X73466671Y-43364000D01*
G37*
G36*
X74534982Y-42553162D02*
G01*
X74577000Y-42559067D01*
X74617042Y-42568719D01*
X74654970Y-42581961D01*
X74707602Y-42608219D01*
X74754712Y-42641683D01*
X74795838Y-42681828D01*
X74830519Y-42728130D01*
X74849833Y-42762160D01*
X74865941Y-42798538D01*
X74878707Y-42837108D01*
X74887995Y-42877715D01*
X74893668Y-42920203D01*
X74895589Y-42964418D01*
X74893718Y-43008459D01*
X74888182Y-43050791D01*
X74879100Y-43091258D01*
X74866591Y-43129703D01*
X74850774Y-43165972D01*
X74821103Y-43215949D01*
X74784654Y-43260147D01*
X74741827Y-43298040D01*
X74693022Y-43329099D01*
X74657361Y-43345748D01*
X74619339Y-43358970D01*
X74579076Y-43368607D01*
X74536688Y-43374504D01*
X74492295Y-43376505D01*
X74448257Y-43374504D01*
X74406132Y-43368607D01*
X74366050Y-43358970D01*
X74328137Y-43345748D01*
X74292522Y-43329099D01*
X74243687Y-43298040D01*
X74200743Y-43260147D01*
X74164120Y-43215949D01*
X74134250Y-43165972D01*
X74118302Y-43129703D01*
X74105675Y-43091258D01*
X74096497Y-43050791D01*
X74090897Y-43008459D01*
X74089002Y-42964418D01*
X74089044Y-42963441D01*
X74235743Y-42963441D01*
X74236863Y-42994081D01*
X74242670Y-43037968D01*
X74253279Y-43078999D01*
X74268526Y-43116758D01*
X74288243Y-43150830D01*
X74321199Y-43189807D01*
X74361414Y-43220506D01*
X74408494Y-43241943D01*
X74448071Y-43251351D01*
X74491123Y-43254579D01*
X74520215Y-43253144D01*
X74561033Y-43245800D01*
X74598309Y-43232582D01*
X74642193Y-43206511D01*
X74679043Y-43171658D01*
X74708438Y-43128975D01*
X74725338Y-43092395D01*
X74737629Y-43052345D01*
X74745134Y-43009227D01*
X74747676Y-42963441D01*
X74746554Y-42932265D01*
X74740740Y-42887870D01*
X74730102Y-42846635D01*
X74714798Y-42808916D01*
X74687397Y-42764710D01*
X74652340Y-42728234D01*
X74609992Y-42700332D01*
X74573667Y-42685541D01*
X74533602Y-42676405D01*
X74489951Y-42673281D01*
X74460885Y-42674702D01*
X74420195Y-42681983D01*
X74383131Y-42695098D01*
X74339622Y-42720988D01*
X74303203Y-42755639D01*
X74274238Y-42798131D01*
X74257628Y-42834591D01*
X74245573Y-42874555D01*
X74238226Y-42917634D01*
X74235743Y-42963441D01*
X74089044Y-42963441D01*
X74090909Y-42920397D01*
X74096543Y-42878051D01*
X74105767Y-42837543D01*
X74118448Y-42799032D01*
X74134450Y-42762680D01*
X74164386Y-42712548D01*
X74201036Y-42668176D01*
X74243946Y-42630105D01*
X74292660Y-42598876D01*
X74328137Y-42582126D01*
X74365856Y-42568819D01*
X74405683Y-42559115D01*
X74447484Y-42553175D01*
X74491123Y-42551159D01*
X74534982Y-42553162D01*
G37*
G36*
X75325457Y-43376505D02*
G01*
X75372068Y-43373530D01*
X75416788Y-43364846D01*
X75458727Y-43350809D01*
X75496993Y-43331778D01*
X75530698Y-43308110D01*
X75558952Y-43280162D01*
X75568527Y-43267866D01*
X75589303Y-43234211D01*
X75604248Y-43197946D01*
X75614163Y-43158523D01*
X75619855Y-43115394D01*
X75621950Y-43076225D01*
X75622260Y-43051173D01*
X75622260Y-42563665D01*
X75480013Y-42563665D01*
X75480013Y-43043553D01*
X75479397Y-43083856D01*
X75476143Y-43122958D01*
X75465914Y-43163576D01*
X75459888Y-43176812D01*
X75433994Y-43210687D01*
X75402140Y-43233586D01*
X75363551Y-43247960D01*
X75325457Y-43252234D01*
X75282195Y-43246687D01*
X75244319Y-43231156D01*
X75210108Y-43203826D01*
X75191025Y-43176812D01*
X75177542Y-43138535D01*
X75172217Y-43097566D01*
X75170928Y-43054171D01*
X75170900Y-43043553D01*
X75170900Y-42563665D01*
X75028653Y-42563665D01*
X75028653Y-43051173D01*
X75029546Y-43092268D01*
X75033426Y-43137456D01*
X75041129Y-43178664D01*
X75053459Y-43216439D01*
X75071219Y-43251330D01*
X75082386Y-43267866D01*
X75108137Y-43297424D01*
X75139605Y-43322847D01*
X75175979Y-43343776D01*
X75216451Y-43359853D01*
X75260210Y-43370722D01*
X75306449Y-43376023D01*
X75325457Y-43376505D01*
G37*
G36*
X75947983Y-43364000D02*
G01*
X76090230Y-43364000D01*
X76090230Y-42690280D01*
X76290704Y-42690280D01*
X76290704Y-42563665D01*
X75747508Y-42563665D01*
X75747508Y-42690280D01*
X75947983Y-42690280D01*
X75947983Y-43364000D01*
G37*
G36*
X76884899Y-42563789D02*
G01*
X76944259Y-42565761D01*
X76997676Y-42570418D01*
X77045129Y-42578129D01*
X77086597Y-42589262D01*
X77132540Y-42610064D01*
X77167754Y-42638476D01*
X77192189Y-42675369D01*
X77205795Y-42721617D01*
X77208862Y-42762967D01*
X77208180Y-42780414D01*
X77200934Y-42820250D01*
X77183291Y-42860872D01*
X77158023Y-42893594D01*
X77127397Y-42918348D01*
X77087913Y-42937063D01*
X77100924Y-42941289D01*
X77141350Y-42959680D01*
X77174210Y-42982080D01*
X77203602Y-43011504D01*
X77226982Y-43048506D01*
X77241805Y-43093639D01*
X77245792Y-43135974D01*
X77245292Y-43153648D01*
X77238085Y-43201311D01*
X77223065Y-43241416D01*
X77201196Y-43274577D01*
X77163049Y-43309053D01*
X77128949Y-43328402D01*
X77091213Y-43342856D01*
X77050805Y-43353028D01*
X77008690Y-43359533D01*
X76965833Y-43362985D01*
X76923196Y-43364000D01*
X76673482Y-43364000D01*
X76673482Y-43240901D01*
X76813384Y-43240901D01*
X76897404Y-43240901D01*
X76908155Y-43240857D01*
X76949465Y-43239565D01*
X76996385Y-43234447D01*
X77036655Y-43223883D01*
X77074080Y-43201677D01*
X77097155Y-43166359D01*
X77103545Y-43124837D01*
X77102716Y-43109357D01*
X77090871Y-43070685D01*
X77061367Y-43039013D01*
X77024868Y-43022004D01*
X76980085Y-43013071D01*
X76937850Y-43010922D01*
X76813384Y-43010922D01*
X76813384Y-43240901D01*
X76673482Y-43240901D01*
X76673482Y-42888801D01*
X76813384Y-42888801D01*
X76931011Y-42888801D01*
X76954809Y-42887028D01*
X76995739Y-42879888D01*
X77036158Y-42860804D01*
X77059914Y-42827664D01*
X77066615Y-42784460D01*
X77060113Y-42744806D01*
X77032937Y-42710874D01*
X76994226Y-42695180D01*
X76951750Y-42689331D01*
X76910886Y-42688131D01*
X76813384Y-42688131D01*
X76813384Y-42888801D01*
X76673482Y-42888801D01*
X76673482Y-42563665D01*
X76863796Y-42563665D01*
X76884899Y-42563789D01*
G37*
G36*
X77785561Y-42553162D02*
G01*
X77827579Y-42559067D01*
X77867621Y-42568719D01*
X77905549Y-42581961D01*
X77958181Y-42608219D01*
X78005291Y-42641683D01*
X78046417Y-42681828D01*
X78081099Y-42728130D01*
X78100412Y-42762160D01*
X78116520Y-42798538D01*
X78129287Y-42837108D01*
X78138574Y-42877715D01*
X78144247Y-42920203D01*
X78146168Y-42964418D01*
X78144297Y-43008459D01*
X78138761Y-43050791D01*
X78129679Y-43091258D01*
X78117171Y-43129703D01*
X78101353Y-43165972D01*
X78071682Y-43215949D01*
X78035233Y-43260147D01*
X77992406Y-43298040D01*
X77943601Y-43329099D01*
X77907940Y-43345748D01*
X77869919Y-43358970D01*
X77829655Y-43368607D01*
X77787267Y-43374504D01*
X77742875Y-43376505D01*
X77698836Y-43374504D01*
X77656711Y-43368607D01*
X77616629Y-43358970D01*
X77578716Y-43345748D01*
X77543101Y-43329099D01*
X77494267Y-43298040D01*
X77451322Y-43260147D01*
X77414699Y-43215949D01*
X77384829Y-43165972D01*
X77368881Y-43129703D01*
X77356254Y-43091258D01*
X77347076Y-43050791D01*
X77341476Y-43008459D01*
X77339581Y-42964418D01*
X77339623Y-42963441D01*
X77486322Y-42963441D01*
X77487443Y-42994081D01*
X77493249Y-43037968D01*
X77503859Y-43078999D01*
X77519105Y-43116758D01*
X77538822Y-43150830D01*
X77571778Y-43189807D01*
X77611993Y-43220506D01*
X77659073Y-43241943D01*
X77698651Y-43251351D01*
X77741702Y-43254579D01*
X77770794Y-43253144D01*
X77811612Y-43245800D01*
X77848888Y-43232582D01*
X77892773Y-43206511D01*
X77929623Y-43171658D01*
X77959017Y-43128975D01*
X77975917Y-43092395D01*
X77988209Y-43052345D01*
X77995714Y-43009227D01*
X77998255Y-42963441D01*
X77997134Y-42932265D01*
X77991319Y-42887870D01*
X77980682Y-42846635D01*
X77965377Y-42808916D01*
X77937977Y-42764710D01*
X77902919Y-42728234D01*
X77860571Y-42700332D01*
X77824246Y-42685541D01*
X77784181Y-42676405D01*
X77740530Y-42673281D01*
X77711464Y-42674702D01*
X77670774Y-42681983D01*
X77633710Y-42695098D01*
X77590201Y-42720988D01*
X77553782Y-42755639D01*
X77524818Y-42798131D01*
X77508208Y-42834591D01*
X77496152Y-42874555D01*
X77488805Y-42917634D01*
X77486322Y-42963441D01*
X77339623Y-42963441D01*
X77341489Y-42920397D01*
X77347122Y-42878051D01*
X77356347Y-42837543D01*
X77369027Y-42799032D01*
X77385029Y-42762680D01*
X77414965Y-42712548D01*
X77451615Y-42668176D01*
X77494525Y-42630105D01*
X77543239Y-42598876D01*
X77578716Y-42582126D01*
X77616435Y-42568819D01*
X77656263Y-42559115D01*
X77698063Y-42553175D01*
X77741702Y-42551159D01*
X77785561Y-42553162D01*
G37*
G36*
X78977376Y-43364000D02*
G01*
X78829462Y-43364000D01*
X78823590Y-43349720D01*
X78806256Y-43306966D01*
X78789241Y-43264284D01*
X78772414Y-43221604D01*
X78755644Y-43178857D01*
X78738799Y-43135974D01*
X78402721Y-43135974D01*
X78313035Y-43364000D01*
X78167466Y-43364000D01*
X78184489Y-43323608D01*
X78202033Y-43281428D01*
X78220916Y-43235597D01*
X78241957Y-43184253D01*
X78257589Y-43146042D01*
X78274787Y-43104003D01*
X78293793Y-43057583D01*
X78311726Y-43013853D01*
X78449811Y-43013853D01*
X78691709Y-43013853D01*
X78684384Y-42995588D01*
X78670411Y-42958752D01*
X78663724Y-42940856D01*
X78650041Y-42904123D01*
X78635667Y-42865380D01*
X78619695Y-42822116D01*
X78603462Y-42777834D01*
X78588305Y-42736038D01*
X78572909Y-42692625D01*
X78570760Y-42692625D01*
X78564459Y-42709148D01*
X78548705Y-42750724D01*
X78532951Y-42792543D01*
X78517198Y-42834429D01*
X78501444Y-42876209D01*
X78485690Y-42917708D01*
X78469937Y-42958752D01*
X78449811Y-43013853D01*
X78311726Y-43013853D01*
X78314852Y-43006231D01*
X78338204Y-42949396D01*
X78364094Y-42886526D01*
X78392764Y-42817069D01*
X78408217Y-42779699D01*
X78424456Y-42740475D01*
X78441511Y-42699328D01*
X78459413Y-42656190D01*
X78478192Y-42610992D01*
X78497878Y-42563665D01*
X78652435Y-42563665D01*
X78977376Y-43364000D01*
G37*
G36*
X79340337Y-42563685D02*
G01*
X79384418Y-42564914D01*
X79426397Y-42568767D01*
X79466094Y-42576255D01*
X79503333Y-42588392D01*
X79543433Y-42609778D01*
X79554645Y-42617828D01*
X79584267Y-42645281D01*
X79607697Y-42677402D01*
X79624710Y-42713827D01*
X79635083Y-42754193D01*
X79638590Y-42798138D01*
X79638323Y-42811175D01*
X79632184Y-42859268D01*
X79618666Y-42901079D01*
X79598754Y-42936888D01*
X79573432Y-42966973D01*
X79535673Y-42996957D01*
X79492922Y-43018980D01*
X79447103Y-43033588D01*
X79647578Y-43364000D01*
X79485205Y-43364000D01*
X79300362Y-43051369D01*
X79209699Y-43051369D01*
X79209699Y-43364000D01*
X79067452Y-43364000D01*
X79067452Y-42930420D01*
X79209699Y-42930420D01*
X79326154Y-42930420D01*
X79345228Y-42929999D01*
X79388737Y-42925141D01*
X79432343Y-42911699D01*
X79465517Y-42889332D01*
X79489562Y-42851082D01*
X79496343Y-42807126D01*
X79494624Y-42783320D01*
X79481292Y-42744467D01*
X79450303Y-42712677D01*
X79411775Y-42695786D01*
X79372075Y-42688181D01*
X79326154Y-42685786D01*
X79209699Y-42685786D01*
X79209699Y-42930420D01*
X79067452Y-42930420D01*
X79067452Y-42563665D01*
X79332798Y-42563665D01*
X79340337Y-42563685D01*
G37*
G36*
X79997633Y-42563932D02*
G01*
X80041334Y-42565142D01*
X80084834Y-42567910D01*
X80127711Y-42572848D01*
X80169543Y-42580571D01*
X80209911Y-42591691D01*
X80248391Y-42606824D01*
X80284563Y-42626581D01*
X80303233Y-42639482D01*
X80337729Y-42669498D01*
X80368189Y-42704674D01*
X80394315Y-42744454D01*
X80415808Y-42788285D01*
X80432371Y-42835612D01*
X80443707Y-42885881D01*
X80448599Y-42925181D01*
X80450258Y-42965591D01*
X80447781Y-43014228D01*
X80440515Y-43060867D01*
X80428712Y-43105193D01*
X80412620Y-43146892D01*
X80392489Y-43185651D01*
X80368568Y-43221157D01*
X80341107Y-43253095D01*
X80310355Y-43281152D01*
X80301490Y-43288095D01*
X80265209Y-43312018D01*
X80227360Y-43330342D01*
X80187597Y-43343804D01*
X80145575Y-43353140D01*
X80100948Y-43359089D01*
X80053370Y-43362387D01*
X80002495Y-43363772D01*
X79961967Y-43364000D01*
X79779469Y-43364000D01*
X79779469Y-42690280D01*
X79921716Y-42690280D01*
X79921716Y-43240901D01*
X80000069Y-43240901D01*
X80051806Y-43239017D01*
X80099197Y-43233142D01*
X80142080Y-43222945D01*
X80180293Y-43208093D01*
X80223698Y-43180475D01*
X80258127Y-43143204D01*
X80277827Y-43108441D01*
X80292099Y-43067473D01*
X80300782Y-43019967D01*
X80303712Y-42965591D01*
X80300850Y-42916877D01*
X80292397Y-42872760D01*
X80278553Y-42833283D01*
X80259518Y-42798487D01*
X80226409Y-42759450D01*
X80184901Y-42728912D01*
X80148544Y-42711647D01*
X80107928Y-42699262D01*
X80063255Y-42691800D01*
X80014724Y-42689303D01*
X80001984Y-42689305D01*
X79960889Y-42689477D01*
X79921716Y-42690280D01*
X79779469Y-42690280D01*
X79779469Y-42563665D01*
X79954152Y-42563665D01*
X79997633Y-42563932D01*
G37*
D11*
G36*
X97364000Y-59460921D02*
G01*
X97364000Y-58894082D01*
X97262199Y-58894082D01*
X97262199Y-59319846D01*
X97228953Y-59296198D01*
X97196575Y-59273345D01*
X97167042Y-59252630D01*
X96786609Y-58987090D01*
X96749965Y-58962285D01*
X96717009Y-58940327D01*
X96682333Y-58917547D01*
X96659994Y-58903070D01*
X96563665Y-58903070D01*
X96563665Y-59446266D01*
X96666833Y-59446266D01*
X96666833Y-59041995D01*
X96699915Y-59064063D01*
X96732402Y-59085971D01*
X96757496Y-59103545D01*
X97123469Y-59362247D01*
X97158046Y-59386489D01*
X97193831Y-59410811D01*
X97227768Y-59433383D01*
X97263769Y-59456891D01*
X97270015Y-59460921D01*
X97364000Y-59460921D01*
G37*
G36*
X97364000Y-58637920D02*
G01*
X97001348Y-58637920D01*
X97001348Y-58266085D01*
X97364000Y-58266085D01*
X97364000Y-58149630D01*
X96563665Y-58149630D01*
X96563665Y-58266085D01*
X96901697Y-58266085D01*
X96901697Y-58637920D01*
X96563665Y-58637920D01*
X96563665Y-58755547D01*
X97364000Y-58755547D01*
X97364000Y-58637920D01*
G37*
G36*
X96986228Y-57292398D02*
G01*
X97026620Y-57295262D01*
X97065674Y-57301082D01*
X97121320Y-57315568D01*
X97172865Y-57337248D01*
X97219656Y-57366448D01*
X97261040Y-57403495D01*
X97296364Y-57448713D01*
X97316224Y-57483558D01*
X97332907Y-57522277D01*
X97346220Y-57564964D01*
X97355968Y-57611718D01*
X97361959Y-57662634D01*
X97364000Y-57717808D01*
X97364000Y-57955212D01*
X96563665Y-57955212D01*
X96563665Y-57736762D01*
X96563701Y-57734417D01*
X96664488Y-57734417D01*
X96664565Y-57754215D01*
X96665019Y-57796227D01*
X96665660Y-57836413D01*
X97264348Y-57836413D01*
X97264348Y-57745750D01*
X97262230Y-57689310D01*
X97255665Y-57637891D01*
X97244338Y-57591608D01*
X97227934Y-57550578D01*
X97206139Y-57514917D01*
X97178637Y-57484739D01*
X97145114Y-57460162D01*
X97105255Y-57441301D01*
X97058744Y-57428272D01*
X97005267Y-57421191D01*
X96965591Y-57419832D01*
X96929751Y-57421152D01*
X96880108Y-57428023D01*
X96835452Y-57440657D01*
X96795840Y-57458929D01*
X96761328Y-57482717D01*
X96731971Y-57511899D01*
X96707827Y-57546352D01*
X96688950Y-57585952D01*
X96675397Y-57630579D01*
X96667225Y-57680108D01*
X96664488Y-57734417D01*
X96563701Y-57734417D01*
X96564084Y-57709372D01*
X96567423Y-57657210D01*
X96574061Y-57608536D01*
X96583956Y-57563348D01*
X96597068Y-57521644D01*
X96613355Y-57483423D01*
X96632774Y-57448684D01*
X96667688Y-57403101D01*
X96709417Y-57365344D01*
X96757822Y-57335408D01*
X96793732Y-57319793D01*
X96832505Y-57307651D01*
X96874101Y-57298980D01*
X96918476Y-57293778D01*
X96965591Y-57292044D01*
X96986228Y-57292398D01*
G37*
G36*
X97364000Y-57144717D02*
G01*
X97364000Y-57028262D01*
X96956602Y-57028262D01*
X96994906Y-56997849D01*
X97033028Y-56967212D01*
X97071024Y-56936419D01*
X97108947Y-56905534D01*
X97146854Y-56874624D01*
X97184799Y-56843753D01*
X97222837Y-56812988D01*
X97261024Y-56782395D01*
X97299414Y-56752038D01*
X97338063Y-56721984D01*
X97364000Y-56702149D01*
X97364000Y-56553258D01*
X97323877Y-56585081D01*
X97283457Y-56617482D01*
X97242799Y-56650329D01*
X97201966Y-56683491D01*
X97161019Y-56716834D01*
X97120022Y-56750226D01*
X97079034Y-56783535D01*
X97038118Y-56816629D01*
X96997337Y-56849374D01*
X96956751Y-56881640D01*
X96929833Y-56902819D01*
X96563665Y-56563419D01*
X96563665Y-56707815D01*
X96927489Y-57028262D01*
X96563665Y-57028262D01*
X96563665Y-57144717D01*
X97364000Y-57144717D01*
G37*
G36*
X97482213Y-56536454D02*
G01*
X97482213Y-56428988D01*
X96563665Y-56106392D01*
X96563665Y-56211709D01*
X97482213Y-56536454D01*
G37*
G36*
X97364000Y-55461591D02*
G01*
X97123860Y-55557920D01*
X97123860Y-55908457D01*
X97364000Y-56002442D01*
X97364000Y-56123391D01*
X97314330Y-56103215D01*
X97264607Y-56082990D01*
X97214832Y-56062724D01*
X97165006Y-56042424D01*
X97115131Y-56022097D01*
X97065208Y-56001749D01*
X97015238Y-55981387D01*
X96965224Y-55961018D01*
X96915166Y-55940650D01*
X96865067Y-55920288D01*
X96814926Y-55899940D01*
X96764747Y-55879612D01*
X96714529Y-55859312D01*
X96664275Y-55839047D01*
X96613987Y-55818822D01*
X96563665Y-55798646D01*
X96563665Y-55730258D01*
X96671327Y-55730258D01*
X96671327Y-55732602D01*
X96715201Y-55750110D01*
X96759196Y-55767370D01*
X96803324Y-55784466D01*
X96847597Y-55801479D01*
X96892025Y-55818492D01*
X96936620Y-55835587D01*
X96981394Y-55852848D01*
X97026358Y-55870355D01*
X97026358Y-55595826D01*
X96999076Y-55606361D01*
X96962004Y-55620359D01*
X96922082Y-55635333D01*
X96881219Y-55650791D01*
X96837245Y-55667553D01*
X96795988Y-55683363D01*
X96791470Y-55685034D01*
X96751789Y-55700111D01*
X96711354Y-55715729D01*
X96671327Y-55730258D01*
X96563665Y-55730258D01*
X96563665Y-55656399D01*
X97364000Y-55337124D01*
X97364000Y-55461591D01*
G37*
G36*
X97364000Y-55241577D02*
G01*
X97364000Y-54731988D01*
X97262199Y-54731988D01*
X97262199Y-55122777D01*
X97003302Y-55122777D01*
X97003302Y-54766573D01*
X96901306Y-54766573D01*
X96901306Y-55122777D01*
X96666833Y-55122777D01*
X96666833Y-54739804D01*
X96563665Y-54739804D01*
X96563665Y-55241577D01*
X97364000Y-55241577D01*
G37*
G36*
X97482213Y-54653635D02*
G01*
X97482213Y-54546168D01*
X96563665Y-54223572D01*
X96563665Y-54328890D01*
X97482213Y-54653635D01*
G37*
G36*
X97364000Y-54099692D02*
G01*
X97364000Y-53980893D01*
X97004474Y-53980893D01*
X97004474Y-53636022D01*
X96901306Y-53636022D01*
X96901306Y-53980893D01*
X96666833Y-53980893D01*
X96666833Y-53609057D01*
X96563665Y-53609057D01*
X96563665Y-54099692D01*
X97364000Y-54099692D01*
G37*
G36*
X97364000Y-52962107D02*
G01*
X97123860Y-53058436D01*
X97123860Y-53408974D01*
X97364000Y-53502958D01*
X97364000Y-53623907D01*
X97314330Y-53603731D01*
X97264607Y-53583507D01*
X97214832Y-53563241D01*
X97165006Y-53542941D01*
X97115131Y-53522613D01*
X97065208Y-53502265D01*
X97015238Y-53481903D01*
X96965224Y-53461535D01*
X96915166Y-53441166D01*
X96865067Y-53420804D01*
X96814926Y-53400456D01*
X96764747Y-53380129D01*
X96714529Y-53359829D01*
X96664275Y-53339563D01*
X96613987Y-53319338D01*
X96563665Y-53299162D01*
X96563665Y-53230774D01*
X96671327Y-53230774D01*
X96671327Y-53233119D01*
X96715201Y-53250626D01*
X96759196Y-53267887D01*
X96803324Y-53284982D01*
X96847597Y-53301995D01*
X96892025Y-53319008D01*
X96936620Y-53336104D01*
X96981394Y-53353364D01*
X97026358Y-53370872D01*
X97026358Y-53096343D01*
X96999076Y-53106878D01*
X96962004Y-53120876D01*
X96922082Y-53135849D01*
X96881219Y-53151307D01*
X96837245Y-53168070D01*
X96795988Y-53183879D01*
X96791470Y-53185550D01*
X96751789Y-53200628D01*
X96711354Y-53216245D01*
X96671327Y-53230774D01*
X96563665Y-53230774D01*
X96563665Y-53156915D01*
X97364000Y-52837641D01*
X97364000Y-52962107D01*
G37*
G36*
X97482213Y-52811458D02*
G01*
X97482213Y-52703991D01*
X96563665Y-52381395D01*
X96563665Y-52486713D01*
X97482213Y-52811458D01*
G37*
G36*
X97364000Y-52052547D02*
G01*
X97364000Y-51910300D01*
X96563665Y-51613496D01*
X96563665Y-51737766D01*
X97008187Y-51894473D01*
X97045224Y-51907712D01*
X97082000Y-51920970D01*
X97125863Y-51936727D01*
X97169519Y-51952112D01*
X97213062Y-51966910D01*
X97242073Y-51976343D01*
X97242073Y-51978492D01*
X97204040Y-51990841D01*
X97161164Y-52005111D01*
X97119953Y-52019156D01*
X97078978Y-52033369D01*
X97036809Y-52048146D01*
X97014830Y-52055868D01*
X96563665Y-52212575D01*
X96563665Y-52343684D01*
X96612049Y-52326298D01*
X96651762Y-52312089D01*
X96696529Y-52296092D01*
X96745568Y-52278570D01*
X96798100Y-52259786D01*
X96853342Y-52240004D01*
X96910513Y-52219486D01*
X96968834Y-52198495D01*
X97027521Y-52177294D01*
X97085795Y-52156147D01*
X97142874Y-52135317D01*
X97197977Y-52115065D01*
X97250323Y-52095656D01*
X97299130Y-52077353D01*
X97343619Y-52060419D01*
X97364000Y-52052547D01*
G37*
G36*
X97364000Y-51287773D02*
G01*
X97364000Y-51171318D01*
X96563665Y-51171318D01*
X96563665Y-51269797D01*
X96601695Y-51279136D01*
X96637502Y-51300455D01*
X96663454Y-51333973D01*
X96678217Y-51372117D01*
X96687307Y-51420308D01*
X96690853Y-51466574D01*
X96691257Y-51479260D01*
X96776254Y-51479260D01*
X96776254Y-51379609D01*
X96776172Y-51339290D01*
X96775599Y-51299405D01*
X96775277Y-51287773D01*
X96816554Y-51288140D01*
X96856951Y-51287773D01*
X97364000Y-51287773D01*
G37*
G36*
X66925332Y-60885527D02*
G01*
X66925332Y-61026944D01*
X67271180Y-61026944D01*
X67262651Y-61078334D01*
X67246458Y-61126289D01*
X67222399Y-61169757D01*
X67190274Y-61207683D01*
X67149883Y-61239015D01*
X67101026Y-61262699D01*
X67043502Y-61277682D01*
X66994551Y-61282575D01*
X66977111Y-61282910D01*
X66921008Y-61278881D01*
X66869478Y-61267113D01*
X66822727Y-61248083D01*
X66780962Y-61222271D01*
X66733387Y-61178130D01*
X66704059Y-61138350D01*
X66680404Y-61093382D01*
X66662630Y-61043702D01*
X66650943Y-60989790D01*
X66645549Y-60932123D01*
X66645185Y-60912150D01*
X66648331Y-60855670D01*
X66657655Y-60802513D01*
X66672982Y-60753165D01*
X66694142Y-60708113D01*
X66731128Y-60655572D01*
X66777766Y-60612694D01*
X66833645Y-60580636D01*
X66881374Y-60564387D01*
X66933898Y-60555363D01*
X66971494Y-60553601D01*
X67027196Y-60557947D01*
X67077439Y-60570694D01*
X67122094Y-60591406D01*
X67168123Y-60626160D01*
X67205697Y-60671003D01*
X67230391Y-60715534D01*
X67432136Y-60715534D01*
X67413486Y-60666799D01*
X67389146Y-60620657D01*
X67359339Y-60577588D01*
X67324287Y-60538073D01*
X67284212Y-60502594D01*
X67239335Y-60471629D01*
X67189880Y-60445660D01*
X67136067Y-60425167D01*
X67078121Y-60410632D01*
X67016262Y-60402534D01*
X66972959Y-60400949D01*
X66916664Y-60403492D01*
X66862917Y-60410979D01*
X66811868Y-60423196D01*
X66763666Y-60439929D01*
X66718461Y-60460963D01*
X66676401Y-60486086D01*
X66619539Y-60530967D01*
X66570598Y-60583842D01*
X66530081Y-60643990D01*
X66508000Y-60687771D01*
X66490037Y-60734251D01*
X66476342Y-60783213D01*
X66467065Y-60834445D01*
X66462355Y-60887733D01*
X66461759Y-60915080D01*
X66464170Y-60971648D01*
X66471269Y-61025746D01*
X66482855Y-61077211D01*
X66498727Y-61125881D01*
X66518686Y-61171593D01*
X66555845Y-61234258D01*
X66601069Y-61289352D01*
X66653679Y-61336325D01*
X66712999Y-61374628D01*
X66778350Y-61403711D01*
X66849056Y-61423025D01*
X66898833Y-61430202D01*
X66950489Y-61432631D01*
X67006814Y-61430102D01*
X67058265Y-61422888D01*
X67115902Y-61408132D01*
X67166336Y-61388016D01*
X67209796Y-61363632D01*
X67253064Y-61330272D01*
X67271180Y-61312464D01*
X67271180Y-61417000D01*
X67432136Y-61417000D01*
X67432136Y-60885527D01*
X66925332Y-60885527D01*
G37*
G36*
X67630949Y-61417000D02*
G01*
X67804606Y-61417000D01*
X67804606Y-60983468D01*
X67804471Y-60925460D01*
X67804206Y-60868339D01*
X67803873Y-60808621D01*
X67803541Y-60751354D01*
X67803276Y-60701586D01*
X67803141Y-60658870D01*
X67804606Y-60658870D01*
X67831099Y-60704583D01*
X67857654Y-60749405D01*
X67885286Y-60796153D01*
X67911151Y-60840238D01*
X67927704Y-60868674D01*
X68249616Y-61417000D01*
X68461131Y-61417000D01*
X68461131Y-60416581D01*
X68291626Y-60416581D01*
X68291626Y-60910684D01*
X68291761Y-60966002D01*
X68292090Y-61021641D01*
X68292496Y-61074936D01*
X68292912Y-61130594D01*
X68293092Y-61175199D01*
X68291626Y-61176420D01*
X68264827Y-61130460D01*
X68239786Y-61088157D01*
X68213692Y-61044066D01*
X68188940Y-61001792D01*
X68182450Y-60990551D01*
X67849302Y-60416581D01*
X67630949Y-60416581D01*
X67630949Y-61417000D01*
G37*
G36*
X68971484Y-60416915D02*
G01*
X69026110Y-60418428D01*
X69080485Y-60421887D01*
X69134081Y-60428060D01*
X69186372Y-60437714D01*
X69236831Y-60451614D01*
X69284931Y-60470530D01*
X69330147Y-60495227D01*
X69353483Y-60511353D01*
X69396604Y-60548873D01*
X69434679Y-60592842D01*
X69467336Y-60642568D01*
X69494202Y-60697356D01*
X69514907Y-60756515D01*
X69529076Y-60819352D01*
X69535191Y-60868477D01*
X69537265Y-60918988D01*
X69534168Y-60979785D01*
X69525087Y-61038083D01*
X69510333Y-61093491D01*
X69490217Y-61145615D01*
X69465053Y-61194064D01*
X69435152Y-61238447D01*
X69400826Y-61278369D01*
X69362387Y-61313441D01*
X69351305Y-61322118D01*
X69305953Y-61352023D01*
X69258642Y-61374928D01*
X69208939Y-61391755D01*
X69156412Y-61403425D01*
X69100628Y-61410861D01*
X69041155Y-61414984D01*
X68977561Y-61416716D01*
X68926902Y-61417000D01*
X68698779Y-61417000D01*
X68698779Y-60574850D01*
X68876588Y-60574850D01*
X68876588Y-61263127D01*
X68974529Y-61263127D01*
X69039200Y-61260771D01*
X69098439Y-61253428D01*
X69152043Y-61240682D01*
X69199809Y-61222117D01*
X69254065Y-61187594D01*
X69297101Y-61141005D01*
X69321726Y-61097552D01*
X69339567Y-61046341D01*
X69350420Y-60986959D01*
X69354083Y-60918988D01*
X69350505Y-60858096D01*
X69339939Y-60802950D01*
X69322634Y-60753604D01*
X69298840Y-60710109D01*
X69257454Y-60661312D01*
X69205569Y-60623140D01*
X69160122Y-60601558D01*
X69109353Y-60586077D01*
X69053511Y-60576750D01*
X68992847Y-60573629D01*
X68976922Y-60573631D01*
X68925554Y-60573846D01*
X68876588Y-60574850D01*
X68698779Y-60574850D01*
X68698779Y-60416581D01*
X68917132Y-60416581D01*
X68971484Y-60416915D01*
G37*
G36*
X66925332Y-55885527D02*
G01*
X66925332Y-56026944D01*
X67271180Y-56026944D01*
X67262651Y-56078334D01*
X67246458Y-56126289D01*
X67222399Y-56169757D01*
X67190274Y-56207683D01*
X67149883Y-56239015D01*
X67101026Y-56262699D01*
X67043502Y-56277682D01*
X66994551Y-56282575D01*
X66977111Y-56282910D01*
X66921008Y-56278881D01*
X66869478Y-56267113D01*
X66822727Y-56248083D01*
X66780962Y-56222271D01*
X66733387Y-56178130D01*
X66704059Y-56138350D01*
X66680404Y-56093382D01*
X66662630Y-56043702D01*
X66650943Y-55989790D01*
X66645549Y-55932123D01*
X66645185Y-55912150D01*
X66648331Y-55855670D01*
X66657655Y-55802513D01*
X66672982Y-55753165D01*
X66694142Y-55708113D01*
X66731128Y-55655572D01*
X66777766Y-55612694D01*
X66833645Y-55580636D01*
X66881374Y-55564387D01*
X66933898Y-55555363D01*
X66971494Y-55553601D01*
X67027196Y-55557947D01*
X67077439Y-55570694D01*
X67122094Y-55591406D01*
X67168123Y-55626160D01*
X67205697Y-55671003D01*
X67230391Y-55715534D01*
X67432136Y-55715534D01*
X67413486Y-55666799D01*
X67389146Y-55620657D01*
X67359339Y-55577588D01*
X67324287Y-55538073D01*
X67284212Y-55502594D01*
X67239335Y-55471629D01*
X67189880Y-55445660D01*
X67136067Y-55425167D01*
X67078121Y-55410632D01*
X67016262Y-55402534D01*
X66972959Y-55400949D01*
X66916664Y-55403492D01*
X66862917Y-55410979D01*
X66811868Y-55423196D01*
X66763666Y-55439929D01*
X66718461Y-55460963D01*
X66676401Y-55486086D01*
X66619539Y-55530967D01*
X66570598Y-55583842D01*
X66530081Y-55643990D01*
X66508000Y-55687771D01*
X66490037Y-55734251D01*
X66476342Y-55783213D01*
X66467065Y-55834445D01*
X66462355Y-55887733D01*
X66461759Y-55915080D01*
X66464170Y-55971648D01*
X66471269Y-56025746D01*
X66482855Y-56077211D01*
X66498727Y-56125881D01*
X66518686Y-56171593D01*
X66555845Y-56234258D01*
X66601069Y-56289352D01*
X66653679Y-56336325D01*
X66712999Y-56374628D01*
X66778350Y-56403711D01*
X66849056Y-56423025D01*
X66898833Y-56430202D01*
X66950489Y-56432631D01*
X67006814Y-56430102D01*
X67058265Y-56422888D01*
X67115902Y-56408132D01*
X67166336Y-56388016D01*
X67209796Y-56363632D01*
X67253064Y-56330272D01*
X67271180Y-56312464D01*
X67271180Y-56417000D01*
X67432136Y-56417000D01*
X67432136Y-55885527D01*
X66925332Y-55885527D01*
G37*
G36*
X67630949Y-56417000D02*
G01*
X67804606Y-56417000D01*
X67804606Y-55983468D01*
X67804471Y-55925460D01*
X67804206Y-55868339D01*
X67803873Y-55808621D01*
X67803541Y-55751354D01*
X67803276Y-55701586D01*
X67803141Y-55658870D01*
X67804606Y-55658870D01*
X67831099Y-55704583D01*
X67857654Y-55749405D01*
X67885286Y-55796153D01*
X67911151Y-55840238D01*
X67927704Y-55868674D01*
X68249616Y-56417000D01*
X68461131Y-56417000D01*
X68461131Y-55416581D01*
X68291626Y-55416581D01*
X68291626Y-55910684D01*
X68291761Y-55966002D01*
X68292090Y-56021641D01*
X68292496Y-56074936D01*
X68292912Y-56130594D01*
X68293092Y-56175199D01*
X68291626Y-56176420D01*
X68264827Y-56130460D01*
X68239786Y-56088157D01*
X68213692Y-56044066D01*
X68188940Y-56001792D01*
X68182450Y-55990551D01*
X67849302Y-55416581D01*
X67630949Y-55416581D01*
X67630949Y-56417000D01*
G37*
G36*
X68971484Y-55416915D02*
G01*
X69026110Y-55418428D01*
X69080485Y-55421887D01*
X69134081Y-55428060D01*
X69186372Y-55437714D01*
X69236831Y-55451614D01*
X69284931Y-55470530D01*
X69330147Y-55495227D01*
X69353483Y-55511353D01*
X69396604Y-55548873D01*
X69434679Y-55592842D01*
X69467336Y-55642568D01*
X69494202Y-55697356D01*
X69514907Y-55756515D01*
X69529076Y-55819352D01*
X69535191Y-55868477D01*
X69537265Y-55918988D01*
X69534168Y-55979785D01*
X69525087Y-56038083D01*
X69510333Y-56093491D01*
X69490217Y-56145615D01*
X69465053Y-56194064D01*
X69435152Y-56238447D01*
X69400826Y-56278369D01*
X69362387Y-56313441D01*
X69351305Y-56322118D01*
X69305953Y-56352023D01*
X69258642Y-56374928D01*
X69208939Y-56391755D01*
X69156412Y-56403425D01*
X69100628Y-56410861D01*
X69041155Y-56414984D01*
X68977561Y-56416716D01*
X68926902Y-56417000D01*
X68698779Y-56417000D01*
X68698779Y-55574850D01*
X68876588Y-55574850D01*
X68876588Y-56263127D01*
X68974529Y-56263127D01*
X69039200Y-56260771D01*
X69098439Y-56253428D01*
X69152043Y-56240682D01*
X69199809Y-56222117D01*
X69254065Y-56187594D01*
X69297101Y-56141005D01*
X69321726Y-56097552D01*
X69339567Y-56046341D01*
X69350420Y-55986959D01*
X69354083Y-55918988D01*
X69350505Y-55858096D01*
X69339939Y-55802950D01*
X69322634Y-55753604D01*
X69298840Y-55710109D01*
X69257454Y-55661312D01*
X69205569Y-55623140D01*
X69160122Y-55601558D01*
X69109353Y-55586077D01*
X69053511Y-55576750D01*
X68992847Y-55573629D01*
X68976922Y-55573631D01*
X68925554Y-55573846D01*
X68876588Y-55574850D01*
X68698779Y-55574850D01*
X68698779Y-55416581D01*
X68917132Y-55416581D01*
X68971484Y-55416915D01*
G37*
G36*
X94925332Y-66885527D02*
G01*
X94925332Y-67026944D01*
X95271180Y-67026944D01*
X95262651Y-67078334D01*
X95246458Y-67126289D01*
X95222399Y-67169757D01*
X95190274Y-67207683D01*
X95149883Y-67239015D01*
X95101026Y-67262699D01*
X95043502Y-67277682D01*
X94994551Y-67282575D01*
X94977111Y-67282910D01*
X94921008Y-67278881D01*
X94869478Y-67267113D01*
X94822727Y-67248083D01*
X94780962Y-67222271D01*
X94733387Y-67178130D01*
X94704059Y-67138350D01*
X94680404Y-67093382D01*
X94662630Y-67043702D01*
X94650943Y-66989790D01*
X94645549Y-66932123D01*
X94645185Y-66912150D01*
X94648331Y-66855670D01*
X94657655Y-66802513D01*
X94672982Y-66753165D01*
X94694142Y-66708113D01*
X94731128Y-66655572D01*
X94777766Y-66612694D01*
X94833645Y-66580636D01*
X94881374Y-66564387D01*
X94933898Y-66555363D01*
X94971494Y-66553601D01*
X95027196Y-66557947D01*
X95077439Y-66570694D01*
X95122094Y-66591406D01*
X95168123Y-66626160D01*
X95205697Y-66671003D01*
X95230391Y-66715534D01*
X95432136Y-66715534D01*
X95413486Y-66666799D01*
X95389146Y-66620657D01*
X95359339Y-66577588D01*
X95324287Y-66538073D01*
X95284212Y-66502594D01*
X95239335Y-66471629D01*
X95189880Y-66445660D01*
X95136067Y-66425167D01*
X95078121Y-66410632D01*
X95016262Y-66402534D01*
X94972959Y-66400949D01*
X94916664Y-66403492D01*
X94862917Y-66410979D01*
X94811868Y-66423196D01*
X94763666Y-66439929D01*
X94718461Y-66460963D01*
X94676401Y-66486086D01*
X94619539Y-66530967D01*
X94570598Y-66583842D01*
X94530081Y-66643990D01*
X94508000Y-66687771D01*
X94490037Y-66734251D01*
X94476342Y-66783213D01*
X94467065Y-66834445D01*
X94462355Y-66887733D01*
X94461759Y-66915080D01*
X94464170Y-66971648D01*
X94471269Y-67025746D01*
X94482855Y-67077211D01*
X94498727Y-67125881D01*
X94518686Y-67171593D01*
X94555845Y-67234258D01*
X94601069Y-67289352D01*
X94653679Y-67336325D01*
X94712999Y-67374628D01*
X94778350Y-67403711D01*
X94849056Y-67423025D01*
X94898833Y-67430202D01*
X94950489Y-67432631D01*
X95006814Y-67430102D01*
X95058265Y-67422888D01*
X95115902Y-67408132D01*
X95166336Y-67388016D01*
X95209796Y-67363632D01*
X95253064Y-67330272D01*
X95271180Y-67312464D01*
X95271180Y-67417000D01*
X95432136Y-67417000D01*
X95432136Y-66885527D01*
X94925332Y-66885527D01*
G37*
G36*
X95630949Y-67417000D02*
G01*
X95804606Y-67417000D01*
X95804606Y-66983468D01*
X95804471Y-66925460D01*
X95804206Y-66868339D01*
X95803873Y-66808621D01*
X95803541Y-66751354D01*
X95803276Y-66701586D01*
X95803141Y-66658870D01*
X95804606Y-66658870D01*
X95831099Y-66704583D01*
X95857654Y-66749405D01*
X95885286Y-66796153D01*
X95911151Y-66840238D01*
X95927704Y-66868674D01*
X96249616Y-67417000D01*
X96461131Y-67417000D01*
X96461131Y-66416581D01*
X96291626Y-66416581D01*
X96291626Y-66910684D01*
X96291761Y-66966002D01*
X96292090Y-67021641D01*
X96292496Y-67074936D01*
X96292912Y-67130594D01*
X96293092Y-67175199D01*
X96291626Y-67176420D01*
X96264827Y-67130460D01*
X96239786Y-67088157D01*
X96213692Y-67044066D01*
X96188940Y-67001792D01*
X96182450Y-66990551D01*
X95849302Y-66416581D01*
X95630949Y-66416581D01*
X95630949Y-67417000D01*
G37*
G36*
X96971484Y-66416915D02*
G01*
X97026110Y-66418428D01*
X97080485Y-66421887D01*
X97134081Y-66428060D01*
X97186372Y-66437714D01*
X97236831Y-66451614D01*
X97284931Y-66470530D01*
X97330147Y-66495227D01*
X97353483Y-66511353D01*
X97396604Y-66548873D01*
X97434679Y-66592842D01*
X97467336Y-66642568D01*
X97494202Y-66697356D01*
X97514907Y-66756515D01*
X97529076Y-66819352D01*
X97535191Y-66868477D01*
X97537265Y-66918988D01*
X97534168Y-66979785D01*
X97525087Y-67038083D01*
X97510333Y-67093491D01*
X97490217Y-67145615D01*
X97465053Y-67194064D01*
X97435152Y-67238447D01*
X97400826Y-67278369D01*
X97362387Y-67313441D01*
X97351305Y-67322118D01*
X97305953Y-67352023D01*
X97258642Y-67374928D01*
X97208939Y-67391755D01*
X97156412Y-67403425D01*
X97100628Y-67410861D01*
X97041155Y-67414984D01*
X96977561Y-67416716D01*
X96926902Y-67417000D01*
X96698779Y-67417000D01*
X96698779Y-66574850D01*
X96876588Y-66574850D01*
X96876588Y-67263127D01*
X96974529Y-67263127D01*
X97039200Y-67260771D01*
X97098439Y-67253428D01*
X97152043Y-67240682D01*
X97199809Y-67222117D01*
X97254065Y-67187594D01*
X97297101Y-67141005D01*
X97321726Y-67097552D01*
X97339567Y-67046341D01*
X97350420Y-66986959D01*
X97354083Y-66918988D01*
X97350505Y-66858096D01*
X97339939Y-66802950D01*
X97322634Y-66753604D01*
X97298840Y-66710109D01*
X97257454Y-66661312D01*
X97205569Y-66623140D01*
X97160122Y-66601558D01*
X97109353Y-66586077D01*
X97053511Y-66576750D01*
X96992847Y-66573629D01*
X96976922Y-66573631D01*
X96925554Y-66573846D01*
X96876588Y-66574850D01*
X96698779Y-66574850D01*
X96698779Y-66416581D01*
X96917132Y-66416581D01*
X96971484Y-66416915D01*
G37*
G36*
X95438730Y-62417000D02*
G01*
X95438730Y-62267279D01*
X95007641Y-62267279D01*
X95053840Y-62226691D01*
X95104563Y-62184538D01*
X95157830Y-62140506D01*
X95211660Y-62094279D01*
X95264074Y-62045542D01*
X95313090Y-61993980D01*
X95356729Y-61939277D01*
X95393011Y-61881119D01*
X95419954Y-61819191D01*
X95435579Y-61753176D01*
X95438730Y-61706741D01*
X95432973Y-61643603D01*
X95416031Y-61585494D01*
X95388395Y-61533458D01*
X95350558Y-61488541D01*
X95303013Y-61451787D01*
X95246251Y-61424240D01*
X95197928Y-61410251D01*
X95144905Y-61402470D01*
X95107048Y-61400949D01*
X95049027Y-61404769D01*
X94996331Y-61415847D01*
X94949044Y-61433608D01*
X94894553Y-61466695D01*
X94850022Y-61509286D01*
X94815651Y-61560021D01*
X94791635Y-61617540D01*
X94778174Y-61680483D01*
X94775122Y-61730433D01*
X94776588Y-61740203D01*
X94943161Y-61740203D01*
X94949223Y-61683846D01*
X94966100Y-61635149D01*
X95000144Y-61590815D01*
X95042213Y-61565907D01*
X95096719Y-61555297D01*
X95107048Y-61555066D01*
X95157073Y-61561452D01*
X95204051Y-61583895D01*
X95237673Y-61620587D01*
X95256787Y-61669534D01*
X95260921Y-61710893D01*
X95255064Y-61762937D01*
X95237042Y-61813998D01*
X95212242Y-61857171D01*
X95178134Y-61902086D01*
X95143882Y-61940011D01*
X95103222Y-61980319D01*
X95080426Y-62001542D01*
X95033874Y-62044695D01*
X94996884Y-62078659D01*
X94959432Y-62112841D01*
X94922709Y-62146202D01*
X94876930Y-62187610D01*
X94837373Y-62223251D01*
X94800968Y-62255943D01*
X94783671Y-62271431D01*
X94783671Y-62417000D01*
X95438730Y-62417000D01*
G37*
G36*
X96161933Y-62067000D02*
G01*
X96293580Y-62067000D01*
X96293580Y-62213789D01*
X96161933Y-62213789D01*
X96161933Y-62417000D01*
X96003664Y-62417000D01*
X96003664Y-62213789D01*
X95550105Y-62213789D01*
X95550105Y-62076769D01*
X95556889Y-62067000D01*
X95723761Y-62067000D01*
X96003664Y-62067000D01*
X96003664Y-61820314D01*
X96003729Y-61798856D01*
X96004291Y-61746070D01*
X96005265Y-61692625D01*
X96006595Y-61640796D01*
X96003664Y-61640796D01*
X95979239Y-61681510D01*
X95953826Y-61723365D01*
X95924517Y-61770299D01*
X95894487Y-61816162D01*
X95828786Y-61912638D01*
X95810599Y-61939046D01*
X95778935Y-61985408D01*
X95751095Y-62026462D01*
X95723761Y-62067000D01*
X95556889Y-62067000D01*
X95849791Y-61645192D01*
X95878956Y-61602833D01*
X95910662Y-61556366D01*
X95941941Y-61510267D01*
X95974733Y-61461741D01*
X96005129Y-61416581D01*
X96161933Y-61416581D01*
X96161933Y-62067000D01*
G37*
G36*
X96823343Y-62229421D02*
G01*
X96806187Y-62175955D01*
X96789070Y-62123521D01*
X96772898Y-62075355D01*
X96755385Y-62024690D01*
X96740789Y-61983224D01*
X96546127Y-61416581D01*
X96350244Y-61416581D01*
X96371458Y-61474898D01*
X96389109Y-61523684D01*
X96409155Y-61579186D01*
X96431239Y-61640368D01*
X96455008Y-61706195D01*
X96480107Y-61775628D01*
X96506182Y-61847633D01*
X96532877Y-61921172D01*
X96559839Y-61995208D01*
X96586713Y-62068706D01*
X96613144Y-62140629D01*
X96638777Y-62209941D01*
X96663259Y-62275604D01*
X96686234Y-62336582D01*
X96707348Y-62391840D01*
X96717097Y-62417000D01*
X96924215Y-62417000D01*
X97293754Y-61416581D01*
X97107641Y-61416581D01*
X96912980Y-61974920D01*
X96894973Y-62026090D01*
X96878461Y-62072791D01*
X96860261Y-62125080D01*
X96842270Y-62178921D01*
X96826274Y-62229421D01*
X96823343Y-62229421D01*
G37*
G36*
X67207432Y-50951961D02*
G01*
X67257319Y-50959262D01*
X67305650Y-50967377D01*
X67354302Y-50975545D01*
X67364236Y-50977118D01*
X67394908Y-50936352D01*
X67440052Y-50906354D01*
X67493424Y-50892852D01*
X67513957Y-50891877D01*
X67563716Y-50897976D01*
X67613785Y-50919935D01*
X67652560Y-50955402D01*
X67679220Y-51001769D01*
X67692943Y-51056427D01*
X67694697Y-51086050D01*
X67689927Y-51137875D01*
X67671965Y-51192169D01*
X67641242Y-51235926D01*
X67598389Y-51267107D01*
X67544032Y-51283675D01*
X67512736Y-51285841D01*
X67460819Y-51279361D01*
X67412195Y-51257034D01*
X67376027Y-51221477D01*
X67351885Y-51175498D01*
X67341766Y-51137830D01*
X67169575Y-51137830D01*
X67181663Y-51200215D01*
X67203818Y-51256948D01*
X67235482Y-51307206D01*
X67276095Y-51350169D01*
X67325101Y-51385014D01*
X67381940Y-51410920D01*
X67429375Y-51423990D01*
X67480667Y-51431223D01*
X67516888Y-51432631D01*
X67574095Y-51428728D01*
X67627322Y-51417354D01*
X67676211Y-51399009D01*
X67720401Y-51374195D01*
X67759532Y-51343412D01*
X67793244Y-51307162D01*
X67821179Y-51265946D01*
X67842975Y-51220266D01*
X67858274Y-51170621D01*
X67866714Y-51117514D01*
X67868354Y-51080433D01*
X67865010Y-51026327D01*
X67855206Y-50975817D01*
X67839283Y-50929281D01*
X67809121Y-50874065D01*
X67769492Y-50827476D01*
X67721204Y-50790407D01*
X67665063Y-50763750D01*
X67601877Y-50748400D01*
X67550349Y-50744843D01*
X67500482Y-50748610D01*
X67449966Y-50760980D01*
X67404640Y-50780547D01*
X67376937Y-50796867D01*
X67388172Y-50717732D01*
X67394216Y-50667172D01*
X67399752Y-50616666D01*
X67406246Y-50570698D01*
X67798256Y-50570698D01*
X67798256Y-50416581D01*
X67268982Y-50416581D01*
X67263145Y-50467603D01*
X67257427Y-50518006D01*
X67251791Y-50567946D01*
X67246201Y-50617577D01*
X67240621Y-50667054D01*
X67235014Y-50716530D01*
X67229344Y-50766161D01*
X67223575Y-50816101D01*
X67217671Y-50866505D01*
X67211596Y-50917527D01*
X67207432Y-50951961D01*
G37*
G36*
X68413504Y-51229421D02*
G01*
X68396348Y-51175955D01*
X68379231Y-51123521D01*
X68363059Y-51075355D01*
X68345546Y-51024690D01*
X68330950Y-50983224D01*
X68136288Y-50416581D01*
X67940405Y-50416581D01*
X67961619Y-50474898D01*
X67979270Y-50523684D01*
X67999316Y-50579186D01*
X68021400Y-50640368D01*
X68045169Y-50706195D01*
X68070268Y-50775628D01*
X68096343Y-50847633D01*
X68123038Y-50921172D01*
X68150000Y-50995208D01*
X68176874Y-51068706D01*
X68203305Y-51140629D01*
X68228938Y-51209941D01*
X68253420Y-51275604D01*
X68276395Y-51336582D01*
X68297509Y-51391840D01*
X68307258Y-51417000D01*
X68514376Y-51417000D01*
X68883915Y-50416581D01*
X68697802Y-50416581D01*
X68503141Y-50974920D01*
X68485134Y-51026090D01*
X68468622Y-51072791D01*
X68450422Y-51125080D01*
X68432431Y-51178921D01*
X68416435Y-51229421D01*
X68413504Y-51229421D01*
G37*
D10*
G36*
X79608454Y-72525262D02*
G01*
X79614184Y-72565511D01*
X79630406Y-72614535D01*
X79655801Y-72657781D01*
X79689674Y-72694731D01*
X79731332Y-72724868D01*
X79767266Y-72742688D01*
X79806897Y-72756166D01*
X79849930Y-72765085D01*
X79896075Y-72769224D01*
X79912097Y-72769505D01*
X79959483Y-72766894D01*
X80003810Y-72759236D01*
X80044727Y-72746786D01*
X80081886Y-72729803D01*
X80114936Y-72708546D01*
X80152006Y-72673999D01*
X80180322Y-72632922D01*
X80199054Y-72585927D01*
X80206314Y-72547164D01*
X80207728Y-72519791D01*
X80203798Y-72470803D01*
X80192225Y-72429885D01*
X80167505Y-72388284D01*
X80131986Y-72355138D01*
X80096222Y-72333157D01*
X80054278Y-72313929D01*
X80006478Y-72296271D01*
X79980485Y-72287662D01*
X79924407Y-72270859D01*
X79887112Y-72258841D01*
X79848542Y-72243531D01*
X79813574Y-72222014D01*
X79789151Y-72188859D01*
X79783332Y-72155381D01*
X79791749Y-72115893D01*
X79816231Y-72084648D01*
X79855625Y-72064101D01*
X79894261Y-72057188D01*
X79908775Y-72056706D01*
X79951525Y-72060662D01*
X79991906Y-72074817D01*
X80026045Y-72102597D01*
X80047971Y-72141613D01*
X80053171Y-72158898D01*
X80188775Y-72158898D01*
X80180148Y-72110901D01*
X80163652Y-72067395D01*
X80139512Y-72028968D01*
X80107955Y-71996207D01*
X80069209Y-71969703D01*
X80023499Y-71950043D01*
X79984783Y-71940143D01*
X79942374Y-71934672D01*
X79912097Y-71933608D01*
X79867722Y-71936099D01*
X79826160Y-71943377D01*
X79787749Y-71955150D01*
X79742022Y-71977333D01*
X79703303Y-72006291D01*
X79672396Y-72041332D01*
X79650106Y-72081761D01*
X79637234Y-72126885D01*
X79634246Y-72163392D01*
X79638233Y-72208536D01*
X79649945Y-72248382D01*
X79669012Y-72283310D01*
X79695063Y-72313699D01*
X79727726Y-72339930D01*
X79766632Y-72362382D01*
X79811408Y-72381437D01*
X79848620Y-72393727D01*
X79861685Y-72397474D01*
X79914246Y-72412129D01*
X79953803Y-72423422D01*
X79994175Y-72437710D01*
X80030270Y-72458531D01*
X80055131Y-72492624D01*
X80060987Y-72528779D01*
X80053822Y-72572333D01*
X80032612Y-72607753D01*
X79997788Y-72633360D01*
X79957429Y-72646224D01*
X79916591Y-72649728D01*
X79875352Y-72646271D01*
X79832408Y-72633445D01*
X79797134Y-72611912D01*
X79770094Y-72582476D01*
X79751852Y-72545941D01*
X79746207Y-72525262D01*
X79608454Y-72525262D01*
G37*
G36*
X80483820Y-72757000D02*
G01*
X80626067Y-72757000D01*
X80626067Y-72083280D01*
X80826542Y-72083280D01*
X80826542Y-71956665D01*
X80283346Y-71956665D01*
X80283346Y-72083280D01*
X80483820Y-72083280D01*
X80483820Y-72757000D01*
G37*
G36*
X80960778Y-72757000D02*
G01*
X81460206Y-72757000D01*
X81460206Y-72632729D01*
X81101852Y-72632729D01*
X81101852Y-72407439D01*
X81425621Y-72407439D01*
X81425621Y-72281801D01*
X81101852Y-72281801D01*
X81101852Y-72083280D01*
X81452390Y-72083280D01*
X81452390Y-71956665D01*
X80960778Y-71956665D01*
X80960778Y-72757000D01*
G37*
G36*
X81889527Y-71957088D02*
G01*
X81934500Y-71959258D01*
X81979157Y-71965312D01*
X82019365Y-71976633D01*
X82059284Y-71994766D01*
X82083918Y-72010371D01*
X82115490Y-72039725D01*
X82140202Y-72075513D01*
X82157598Y-72116948D01*
X82166178Y-72155222D01*
X82169096Y-72196413D01*
X82168714Y-72211802D01*
X82162984Y-72256421D01*
X82150391Y-72298061D01*
X82130952Y-72335882D01*
X82104681Y-72369040D01*
X82071594Y-72396692D01*
X82047877Y-72410559D01*
X82009870Y-72425698D01*
X81968866Y-72435185D01*
X81924770Y-72440304D01*
X81885595Y-72442157D01*
X81844155Y-72442610D01*
X81750171Y-72442610D01*
X81750171Y-72757000D01*
X81607924Y-72757000D01*
X81607924Y-72319316D01*
X81750171Y-72319316D01*
X81869947Y-72319316D01*
X81878188Y-72319218D01*
X81917386Y-72315649D01*
X81958799Y-72304077D01*
X81996849Y-72279439D01*
X82020841Y-72241511D01*
X82027826Y-72197390D01*
X82027195Y-72183011D01*
X82015001Y-72140396D01*
X81987111Y-72109512D01*
X81950554Y-72092117D01*
X81911070Y-72083856D01*
X81863304Y-72081131D01*
X81750171Y-72081131D01*
X81750171Y-72319316D01*
X81607924Y-72319316D01*
X81607924Y-71956665D01*
X81845328Y-71956665D01*
X81889527Y-71957088D01*
G37*
G36*
X82767888Y-71956932D02*
G01*
X82811589Y-71958142D01*
X82855089Y-71960910D01*
X82897966Y-71965848D01*
X82939798Y-71973571D01*
X82980165Y-71984691D01*
X83018646Y-71999824D01*
X83054818Y-72019581D01*
X83073487Y-72032482D01*
X83107984Y-72062498D01*
X83138444Y-72097674D01*
X83164570Y-72137454D01*
X83186063Y-72181285D01*
X83202626Y-72228612D01*
X83213962Y-72278881D01*
X83218854Y-72318181D01*
X83220513Y-72358591D01*
X83218035Y-72407228D01*
X83210770Y-72453867D01*
X83198967Y-72498193D01*
X83182875Y-72539892D01*
X83162743Y-72578651D01*
X83138823Y-72614157D01*
X83111362Y-72646095D01*
X83080610Y-72674152D01*
X83071745Y-72681095D01*
X83035464Y-72705018D01*
X82997615Y-72723342D01*
X82957852Y-72736804D01*
X82915830Y-72746140D01*
X82871203Y-72752089D01*
X82823625Y-72755387D01*
X82772750Y-72756772D01*
X82732222Y-72757000D01*
X82549724Y-72757000D01*
X82549724Y-72083280D01*
X82691971Y-72083280D01*
X82691971Y-72633901D01*
X82770324Y-72633901D01*
X82822061Y-72632017D01*
X82869452Y-72626142D01*
X82912335Y-72615945D01*
X82950548Y-72601093D01*
X82993953Y-72573475D01*
X83028382Y-72536204D01*
X83048082Y-72501441D01*
X83062354Y-72460473D01*
X83071037Y-72412967D01*
X83073967Y-72358591D01*
X83071105Y-72309877D01*
X83062652Y-72265760D01*
X83048808Y-72226283D01*
X83029773Y-72191487D01*
X82996664Y-72152450D01*
X82955156Y-72121912D01*
X82918799Y-72104647D01*
X82878183Y-72092262D01*
X82833510Y-72084800D01*
X82784979Y-72082303D01*
X82772239Y-72082305D01*
X82731144Y-72082477D01*
X82691971Y-72083280D01*
X82549724Y-72083280D01*
X82549724Y-71956665D01*
X82724407Y-71956665D01*
X82767888Y-71956932D01*
G37*
G36*
X83761063Y-71946162D02*
G01*
X83803082Y-71952067D01*
X83843124Y-71961719D01*
X83881052Y-71974961D01*
X83933684Y-72001219D01*
X83980794Y-72034683D01*
X84021919Y-72074828D01*
X84056601Y-72121130D01*
X84075915Y-72155160D01*
X84092023Y-72191538D01*
X84104789Y-72230108D01*
X84114077Y-72270715D01*
X84119750Y-72313203D01*
X84121671Y-72357418D01*
X84119799Y-72401459D01*
X84114264Y-72443791D01*
X84105182Y-72484258D01*
X84092673Y-72522703D01*
X84076856Y-72558972D01*
X84047185Y-72608949D01*
X84010736Y-72653147D01*
X83967909Y-72691040D01*
X83919103Y-72722099D01*
X83883443Y-72738748D01*
X83845421Y-72751970D01*
X83805157Y-72761607D01*
X83762770Y-72767504D01*
X83718377Y-72769505D01*
X83674339Y-72767504D01*
X83632214Y-72761607D01*
X83592131Y-72751970D01*
X83554219Y-72738748D01*
X83518604Y-72722099D01*
X83469769Y-72691040D01*
X83426825Y-72653147D01*
X83390201Y-72608949D01*
X83360332Y-72558972D01*
X83344383Y-72522703D01*
X83331757Y-72484258D01*
X83322579Y-72443791D01*
X83316979Y-72401459D01*
X83315083Y-72357418D01*
X83315125Y-72356441D01*
X83461825Y-72356441D01*
X83462945Y-72387081D01*
X83468752Y-72430968D01*
X83479361Y-72471999D01*
X83494607Y-72509758D01*
X83514324Y-72543830D01*
X83547281Y-72582807D01*
X83587496Y-72613506D01*
X83634575Y-72634943D01*
X83674153Y-72644351D01*
X83717205Y-72647579D01*
X83746297Y-72646144D01*
X83787115Y-72638800D01*
X83824391Y-72625582D01*
X83868275Y-72599511D01*
X83905125Y-72564658D01*
X83934520Y-72521975D01*
X83951420Y-72485395D01*
X83963711Y-72445345D01*
X83971216Y-72402227D01*
X83973758Y-72356441D01*
X83972636Y-72325265D01*
X83966821Y-72280870D01*
X83956184Y-72239635D01*
X83940879Y-72201916D01*
X83913479Y-72157710D01*
X83878422Y-72121234D01*
X83836074Y-72093332D01*
X83799749Y-72078541D01*
X83759684Y-72069405D01*
X83716032Y-72066281D01*
X83686967Y-72067702D01*
X83646276Y-72074983D01*
X83609213Y-72088098D01*
X83565704Y-72113988D01*
X83529284Y-72148639D01*
X83500320Y-72191131D01*
X83483710Y-72227591D01*
X83471655Y-72267555D01*
X83464308Y-72310634D01*
X83461825Y-72356441D01*
X83315125Y-72356441D01*
X83316991Y-72313397D01*
X83322625Y-72271051D01*
X83331849Y-72230543D01*
X83344530Y-72192032D01*
X83360532Y-72155680D01*
X83390467Y-72105548D01*
X83427118Y-72061176D01*
X83470027Y-72023105D01*
X83518742Y-71991876D01*
X83554219Y-71975126D01*
X83591938Y-71961819D01*
X83631765Y-71952115D01*
X83673566Y-71946175D01*
X83717205Y-71944159D01*
X83761063Y-71946162D01*
G37*
G36*
X85200834Y-71956665D02*
G01*
X85061908Y-71956665D01*
X84973590Y-72413496D01*
X84965783Y-72453466D01*
X84957826Y-72493099D01*
X84949978Y-72533390D01*
X84943071Y-72573901D01*
X84937415Y-72614075D01*
X84936465Y-72621591D01*
X84934316Y-72621591D01*
X84927953Y-72580018D01*
X84921188Y-72538722D01*
X84913868Y-72498829D01*
X84904669Y-72453662D01*
X84896214Y-72414473D01*
X84795390Y-71956665D01*
X84607226Y-71956665D01*
X84503081Y-72420140D01*
X84494298Y-72458256D01*
X84485107Y-72499714D01*
X84476819Y-72541193D01*
X84469371Y-72583011D01*
X84462829Y-72621591D01*
X84459312Y-72621591D01*
X84453974Y-72582681D01*
X84447391Y-72540701D01*
X84439809Y-72499170D01*
X84431844Y-72457492D01*
X84424728Y-72418967D01*
X84339536Y-71956665D01*
X84189473Y-71956665D01*
X84358489Y-72757000D01*
X84554665Y-72757000D01*
X84656465Y-72285904D01*
X84665397Y-72244990D01*
X84673880Y-72206396D01*
X84682982Y-72162940D01*
X84690522Y-72122241D01*
X84697889Y-72077809D01*
X84700233Y-72077809D01*
X84707394Y-72122425D01*
X84714285Y-72163571D01*
X84722349Y-72207350D01*
X84730013Y-72245707D01*
X84738335Y-72285904D01*
X84840136Y-72757000D01*
X85027323Y-72757000D01*
X85200834Y-71956665D01*
G37*
G36*
X85321196Y-72757000D02*
G01*
X85460122Y-72757000D01*
X85460122Y-72410175D01*
X85460014Y-72363768D01*
X85459801Y-72318071D01*
X85459536Y-72270297D01*
X85459270Y-72224483D01*
X85459058Y-72184668D01*
X85458949Y-72150496D01*
X85460122Y-72150496D01*
X85481317Y-72187066D01*
X85502560Y-72222924D01*
X85524666Y-72260323D01*
X85545357Y-72295591D01*
X85558601Y-72318339D01*
X85816130Y-72757000D01*
X85985342Y-72757000D01*
X85985342Y-71956665D01*
X85849738Y-71956665D01*
X85849738Y-72351947D01*
X85849846Y-72396201D01*
X85850109Y-72440713D01*
X85850434Y-72483349D01*
X85850767Y-72527875D01*
X85850910Y-72563559D01*
X85849738Y-72564536D01*
X85828299Y-72527768D01*
X85808266Y-72493926D01*
X85787391Y-72458653D01*
X85767589Y-72424833D01*
X85762397Y-72415841D01*
X85495879Y-71956665D01*
X85321196Y-71956665D01*
X85321196Y-72757000D01*
G37*
G36*
X86434162Y-72384969D02*
G01*
X86474072Y-72390809D01*
X86512736Y-72397301D01*
X86551658Y-72403836D01*
X86559605Y-72405094D01*
X86584143Y-72372481D01*
X86620258Y-72348483D01*
X86662956Y-72337682D01*
X86679382Y-72336902D01*
X86719189Y-72341781D01*
X86759245Y-72359348D01*
X86790265Y-72387722D01*
X86811592Y-72424815D01*
X86822571Y-72468542D01*
X86823974Y-72492240D01*
X86820158Y-72533700D01*
X86805788Y-72577135D01*
X86781210Y-72612141D01*
X86746928Y-72637086D01*
X86703442Y-72650340D01*
X86678405Y-72652073D01*
X86636871Y-72646889D01*
X86597972Y-72629027D01*
X86569038Y-72600581D01*
X86549724Y-72563798D01*
X86541629Y-72533664D01*
X86403876Y-72533664D01*
X86413547Y-72583572D01*
X86431271Y-72628958D01*
X86456602Y-72669165D01*
X86489093Y-72703535D01*
X86528297Y-72731411D01*
X86573768Y-72752136D01*
X86611716Y-72762592D01*
X86652750Y-72768378D01*
X86681727Y-72769505D01*
X86727492Y-72766382D01*
X86770074Y-72757283D01*
X86809185Y-72742607D01*
X86844537Y-72722756D01*
X86875842Y-72698129D01*
X86902812Y-72669130D01*
X86925159Y-72636157D01*
X86942597Y-72599612D01*
X86954835Y-72559897D01*
X86961588Y-72517411D01*
X86962899Y-72487746D01*
X86960224Y-72444461D01*
X86952381Y-72404054D01*
X86939643Y-72366825D01*
X86915513Y-72322652D01*
X86883810Y-72285381D01*
X86845180Y-72255726D01*
X86800267Y-72234400D01*
X86749718Y-72222120D01*
X86708496Y-72219274D01*
X86668602Y-72222288D01*
X86628189Y-72232184D01*
X86591929Y-72247838D01*
X86569766Y-72260893D01*
X86578754Y-72197586D01*
X86583589Y-72157138D01*
X86588018Y-72116733D01*
X86593213Y-72079958D01*
X86906821Y-72079958D01*
X86906821Y-71956665D01*
X86483402Y-71956665D01*
X86478733Y-71997482D01*
X86474158Y-72037805D01*
X86469649Y-72077757D01*
X86465177Y-72117462D01*
X86460713Y-72157043D01*
X86456227Y-72196624D01*
X86451692Y-72236329D01*
X86447077Y-72276281D01*
X86442353Y-72316604D01*
X86437493Y-72357421D01*
X86434162Y-72384969D01*
G37*
G36*
X87399019Y-72606937D02*
G01*
X87385295Y-72564164D01*
X87371601Y-72522217D01*
X87358664Y-72483684D01*
X87344653Y-72443152D01*
X87332976Y-72409979D01*
X87177247Y-71956665D01*
X87020541Y-71956665D01*
X87037511Y-72003318D01*
X87051633Y-72042347D01*
X87067669Y-72086749D01*
X87085336Y-72135695D01*
X87104352Y-72188356D01*
X87124431Y-72243903D01*
X87145291Y-72301506D01*
X87166647Y-72360337D01*
X87188216Y-72419567D01*
X87209715Y-72478365D01*
X87230860Y-72535903D01*
X87251367Y-72591352D01*
X87270952Y-72643883D01*
X87289332Y-72692666D01*
X87306224Y-72736872D01*
X87314023Y-72757000D01*
X87479717Y-72757000D01*
X87775349Y-71956665D01*
X87626458Y-71956665D01*
X87470729Y-72403336D01*
X87456324Y-72444272D01*
X87443114Y-72481632D01*
X87428554Y-72523464D01*
X87414162Y-72566536D01*
X87401364Y-72606937D01*
X87399019Y-72606937D01*
G37*
G36*
X83257868Y-68667421D02*
G01*
X83240712Y-68613955D01*
X83223595Y-68561521D01*
X83207423Y-68513355D01*
X83189910Y-68462690D01*
X83175314Y-68421224D01*
X82980652Y-67854581D01*
X82784769Y-67854581D01*
X82805983Y-67912898D01*
X82823634Y-67961684D01*
X82843680Y-68017186D01*
X82865764Y-68078368D01*
X82889533Y-68144195D01*
X82914632Y-68213628D01*
X82940707Y-68285633D01*
X82967402Y-68359172D01*
X82994364Y-68433208D01*
X83021238Y-68506706D01*
X83047669Y-68578629D01*
X83073302Y-68647941D01*
X83097784Y-68713604D01*
X83120759Y-68774582D01*
X83141873Y-68829840D01*
X83151622Y-68855000D01*
X83358740Y-68855000D01*
X83728279Y-67854581D01*
X83542166Y-67854581D01*
X83347505Y-68412920D01*
X83329499Y-68464090D01*
X83312986Y-68510791D01*
X83294786Y-68563080D01*
X83276795Y-68616921D01*
X83260799Y-68667421D01*
X83257868Y-68667421D01*
G37*
G36*
X84125059Y-67854915D02*
G01*
X84179686Y-67856428D01*
X84234060Y-67859887D01*
X84287657Y-67866060D01*
X84339947Y-67875714D01*
X84390406Y-67889614D01*
X84438507Y-67908530D01*
X84483722Y-67933227D01*
X84507059Y-67949353D01*
X84550180Y-67986873D01*
X84588255Y-68030842D01*
X84620912Y-68080568D01*
X84647778Y-68135356D01*
X84668482Y-68194515D01*
X84682652Y-68257352D01*
X84688767Y-68306477D01*
X84690840Y-68356988D01*
X84687744Y-68417785D01*
X84678663Y-68476083D01*
X84663908Y-68531491D01*
X84643793Y-68583615D01*
X84618629Y-68632064D01*
X84588728Y-68676447D01*
X84554402Y-68716369D01*
X84515963Y-68751441D01*
X84504880Y-68760118D01*
X84459529Y-68790023D01*
X84412218Y-68812928D01*
X84362515Y-68829755D01*
X84309987Y-68841425D01*
X84254203Y-68848861D01*
X84194731Y-68852984D01*
X84131137Y-68854716D01*
X84080478Y-68855000D01*
X83852355Y-68855000D01*
X83852355Y-68012850D01*
X84030163Y-68012850D01*
X84030163Y-68701127D01*
X84128105Y-68701127D01*
X84192776Y-68698771D01*
X84252015Y-68691428D01*
X84305619Y-68678682D01*
X84353385Y-68660117D01*
X84407641Y-68625594D01*
X84450677Y-68579005D01*
X84475302Y-68535552D01*
X84493143Y-68484341D01*
X84503996Y-68424959D01*
X84507658Y-68356988D01*
X84504081Y-68296096D01*
X84493514Y-68240950D01*
X84476210Y-68191604D01*
X84452416Y-68148109D01*
X84411030Y-68099312D01*
X84359145Y-68061140D01*
X84313698Y-68039558D01*
X84262929Y-68024077D01*
X84207087Y-68014750D01*
X84146423Y-68011629D01*
X84130498Y-68011631D01*
X84079130Y-68011846D01*
X84030163Y-68012850D01*
X83852355Y-68012850D01*
X83852355Y-67854581D01*
X84070708Y-67854581D01*
X84125059Y-67854915D01*
G37*
G36*
X85142087Y-67854915D02*
G01*
X85196713Y-67856428D01*
X85251088Y-67859887D01*
X85304684Y-67866060D01*
X85356975Y-67875714D01*
X85407434Y-67889614D01*
X85455534Y-67908530D01*
X85500750Y-67933227D01*
X85524086Y-67949353D01*
X85567207Y-67986873D01*
X85605282Y-68030842D01*
X85637939Y-68080568D01*
X85664805Y-68135356D01*
X85685509Y-68194515D01*
X85699679Y-68257352D01*
X85705794Y-68306477D01*
X85707868Y-68356988D01*
X85704771Y-68417785D01*
X85695690Y-68476083D01*
X85680936Y-68531491D01*
X85660820Y-68583615D01*
X85635656Y-68632064D01*
X85605755Y-68676447D01*
X85571429Y-68716369D01*
X85532990Y-68751441D01*
X85521908Y-68760118D01*
X85476556Y-68790023D01*
X85429245Y-68812928D01*
X85379542Y-68829755D01*
X85327014Y-68841425D01*
X85271230Y-68848861D01*
X85211758Y-68852984D01*
X85148164Y-68854716D01*
X85097505Y-68855000D01*
X84869382Y-68855000D01*
X84869382Y-68012850D01*
X85047191Y-68012850D01*
X85047191Y-68701127D01*
X85145132Y-68701127D01*
X85209803Y-68698771D01*
X85269042Y-68691428D01*
X85322646Y-68678682D01*
X85370412Y-68660117D01*
X85424668Y-68625594D01*
X85467704Y-68579005D01*
X85492329Y-68535552D01*
X85510170Y-68484341D01*
X85521023Y-68424959D01*
X85524685Y-68356988D01*
X85521108Y-68296096D01*
X85510542Y-68240950D01*
X85493237Y-68191604D01*
X85469443Y-68148109D01*
X85428057Y-68099312D01*
X85376172Y-68061140D01*
X85330725Y-68039558D01*
X85279956Y-68024077D01*
X85224114Y-68014750D01*
X85163450Y-68011629D01*
X85147525Y-68011631D01*
X85096157Y-68011846D01*
X85047191Y-68012850D01*
X84869382Y-68012850D01*
X84869382Y-67854581D01*
X85087735Y-67854581D01*
X85142087Y-67854915D01*
G37*
G36*
X87893946Y-68855000D02*
G01*
X88071755Y-68855000D01*
X88071755Y-67854581D01*
X87893946Y-67854581D01*
X87893946Y-68855000D01*
G37*
G36*
X88309159Y-68855000D02*
G01*
X88482815Y-68855000D01*
X88482815Y-68421468D01*
X88482680Y-68363460D01*
X88482415Y-68306339D01*
X88482083Y-68246621D01*
X88481750Y-68189354D01*
X88481485Y-68139586D01*
X88481350Y-68096870D01*
X88482815Y-68096870D01*
X88509309Y-68142583D01*
X88535863Y-68187405D01*
X88563496Y-68234153D01*
X88589360Y-68278238D01*
X88605914Y-68306674D01*
X88927826Y-68855000D01*
X89139340Y-68855000D01*
X89139340Y-67854581D01*
X88969836Y-67854581D01*
X88969836Y-68348684D01*
X88969971Y-68404002D01*
X88970299Y-68459641D01*
X88970705Y-68512936D01*
X88971121Y-68568594D01*
X88971301Y-68613199D01*
X88969836Y-68614420D01*
X88943036Y-68568460D01*
X88917995Y-68526157D01*
X88891902Y-68482066D01*
X88867150Y-68439792D01*
X88860659Y-68428551D01*
X88527512Y-67854581D01*
X88309159Y-67854581D01*
X88309159Y-68855000D01*
G37*
G36*
X83297191Y-76323527D02*
G01*
X83297191Y-76464944D01*
X83643039Y-76464944D01*
X83634510Y-76516334D01*
X83618317Y-76564289D01*
X83594258Y-76607757D01*
X83562133Y-76645683D01*
X83521742Y-76677015D01*
X83472885Y-76700699D01*
X83415361Y-76715682D01*
X83366410Y-76720575D01*
X83348970Y-76720910D01*
X83292867Y-76716881D01*
X83241337Y-76705113D01*
X83194586Y-76686083D01*
X83152821Y-76660271D01*
X83105246Y-76616130D01*
X83075918Y-76576350D01*
X83052263Y-76531382D01*
X83034489Y-76481702D01*
X83022802Y-76427790D01*
X83017408Y-76370123D01*
X83017044Y-76350150D01*
X83020190Y-76293670D01*
X83029514Y-76240513D01*
X83044841Y-76191165D01*
X83066001Y-76146113D01*
X83102987Y-76093572D01*
X83149625Y-76050694D01*
X83205504Y-76018636D01*
X83253233Y-76002387D01*
X83305757Y-75993363D01*
X83343353Y-75991601D01*
X83399055Y-75995947D01*
X83449298Y-76008694D01*
X83493953Y-76029406D01*
X83539982Y-76064160D01*
X83577556Y-76109003D01*
X83602250Y-76153534D01*
X83803995Y-76153534D01*
X83785345Y-76104799D01*
X83761005Y-76058657D01*
X83731198Y-76015588D01*
X83696146Y-75976073D01*
X83656071Y-75940594D01*
X83611194Y-75909629D01*
X83561739Y-75883660D01*
X83507926Y-75863167D01*
X83449980Y-75848632D01*
X83388121Y-75840534D01*
X83344818Y-75838949D01*
X83288523Y-75841492D01*
X83234776Y-75848979D01*
X83183727Y-75861196D01*
X83135525Y-75877929D01*
X83090320Y-75898963D01*
X83048260Y-75924086D01*
X82991398Y-75968967D01*
X82942457Y-76021842D01*
X82901940Y-76081990D01*
X82879859Y-76125771D01*
X82861896Y-76172251D01*
X82848201Y-76221213D01*
X82838924Y-76272445D01*
X82834214Y-76325733D01*
X82833618Y-76353080D01*
X82836029Y-76409648D01*
X82843128Y-76463746D01*
X82854714Y-76515211D01*
X82870586Y-76563881D01*
X82890545Y-76609593D01*
X82927704Y-76672258D01*
X82972928Y-76727352D01*
X83025538Y-76774325D01*
X83084858Y-76812628D01*
X83150209Y-76841711D01*
X83220915Y-76861025D01*
X83270692Y-76868202D01*
X83322348Y-76870631D01*
X83378673Y-76868102D01*
X83430124Y-76860888D01*
X83487761Y-76846132D01*
X83538195Y-76826016D01*
X83581655Y-76801632D01*
X83624923Y-76768272D01*
X83643039Y-76750464D01*
X83643039Y-76855000D01*
X83803995Y-76855000D01*
X83803995Y-76323527D01*
X83297191Y-76323527D01*
G37*
G36*
X84002808Y-76855000D02*
G01*
X84176465Y-76855000D01*
X84176465Y-76421468D01*
X84176330Y-76363460D01*
X84176065Y-76306339D01*
X84175732Y-76246621D01*
X84175400Y-76189354D01*
X84175135Y-76139586D01*
X84175000Y-76096870D01*
X84176465Y-76096870D01*
X84202958Y-76142583D01*
X84229513Y-76187405D01*
X84257145Y-76234153D01*
X84283010Y-76278238D01*
X84299563Y-76306674D01*
X84621475Y-76855000D01*
X84832990Y-76855000D01*
X84832990Y-75854581D01*
X84663485Y-75854581D01*
X84663485Y-76348684D01*
X84663620Y-76404002D01*
X84663949Y-76459641D01*
X84664355Y-76512936D01*
X84664771Y-76568594D01*
X84664951Y-76613199D01*
X84663485Y-76614420D01*
X84636686Y-76568460D01*
X84611645Y-76526157D01*
X84585551Y-76482066D01*
X84560799Y-76439792D01*
X84554309Y-76428551D01*
X84221161Y-75854581D01*
X84002808Y-75854581D01*
X84002808Y-76855000D01*
G37*
G36*
X85343343Y-75854915D02*
G01*
X85397969Y-75856428D01*
X85452344Y-75859887D01*
X85505940Y-75866060D01*
X85558231Y-75875714D01*
X85608690Y-75889614D01*
X85656790Y-75908530D01*
X85702006Y-75933227D01*
X85725342Y-75949353D01*
X85768463Y-75986873D01*
X85806538Y-76030842D01*
X85839195Y-76080568D01*
X85866061Y-76135356D01*
X85886766Y-76194515D01*
X85900935Y-76257352D01*
X85907050Y-76306477D01*
X85909124Y-76356988D01*
X85906027Y-76417785D01*
X85896946Y-76476083D01*
X85882192Y-76531491D01*
X85862076Y-76583615D01*
X85836912Y-76632064D01*
X85807011Y-76676447D01*
X85772685Y-76716369D01*
X85734246Y-76751441D01*
X85723164Y-76760118D01*
X85677812Y-76790023D01*
X85630501Y-76812928D01*
X85580798Y-76829755D01*
X85528271Y-76841425D01*
X85472487Y-76848861D01*
X85413014Y-76852984D01*
X85349420Y-76854716D01*
X85298761Y-76855000D01*
X85070638Y-76855000D01*
X85070638Y-76012850D01*
X85248447Y-76012850D01*
X85248447Y-76701127D01*
X85346388Y-76701127D01*
X85411059Y-76698771D01*
X85470298Y-76691428D01*
X85523902Y-76678682D01*
X85571668Y-76660117D01*
X85625924Y-76625594D01*
X85668960Y-76579005D01*
X85693585Y-76535552D01*
X85711426Y-76484341D01*
X85722279Y-76424959D01*
X85725942Y-76356988D01*
X85722364Y-76296096D01*
X85711798Y-76240950D01*
X85694493Y-76191604D01*
X85670699Y-76148109D01*
X85629313Y-76099312D01*
X85577428Y-76061140D01*
X85531981Y-76039558D01*
X85481212Y-76024077D01*
X85425370Y-76014750D01*
X85364706Y-76011629D01*
X85348781Y-76011631D01*
X85297413Y-76011846D01*
X85248447Y-76012850D01*
X85070638Y-76012850D01*
X85070638Y-75854581D01*
X85288991Y-75854581D01*
X85343343Y-75854915D01*
G37*
G36*
X85310070Y-37582000D02*
G01*
X85773740Y-37582000D01*
X85773740Y-37457729D01*
X85452317Y-37457729D01*
X85452317Y-36781665D01*
X85310070Y-36781665D01*
X85310070Y-37582000D01*
G37*
G36*
X86272086Y-36771162D02*
G01*
X86314104Y-36777067D01*
X86354146Y-36786719D01*
X86392074Y-36799961D01*
X86444706Y-36826219D01*
X86491816Y-36859683D01*
X86532942Y-36899828D01*
X86567624Y-36946130D01*
X86586937Y-36980160D01*
X86603045Y-37016538D01*
X86615812Y-37055108D01*
X86625099Y-37095715D01*
X86630772Y-37138203D01*
X86632693Y-37182418D01*
X86630822Y-37226459D01*
X86625286Y-37268791D01*
X86616204Y-37309258D01*
X86603696Y-37347703D01*
X86587878Y-37383972D01*
X86558207Y-37433949D01*
X86521758Y-37478147D01*
X86478931Y-37516040D01*
X86430126Y-37547099D01*
X86394465Y-37563748D01*
X86356444Y-37576970D01*
X86316180Y-37586607D01*
X86273792Y-37592504D01*
X86229400Y-37594505D01*
X86185361Y-37592504D01*
X86143236Y-37586607D01*
X86103154Y-37576970D01*
X86065241Y-37563748D01*
X86029626Y-37547099D01*
X85980792Y-37516040D01*
X85937847Y-37478147D01*
X85901224Y-37433949D01*
X85871354Y-37383972D01*
X85855406Y-37347703D01*
X85842779Y-37309258D01*
X85833601Y-37268791D01*
X85828001Y-37226459D01*
X85826106Y-37182418D01*
X85826148Y-37181441D01*
X85972847Y-37181441D01*
X85973968Y-37212081D01*
X85979774Y-37255968D01*
X85990384Y-37296999D01*
X86005630Y-37334758D01*
X86025347Y-37368830D01*
X86058303Y-37407807D01*
X86098518Y-37438506D01*
X86145598Y-37459943D01*
X86185176Y-37469351D01*
X86228227Y-37472579D01*
X86257319Y-37471144D01*
X86298137Y-37463800D01*
X86335413Y-37450582D01*
X86379298Y-37424511D01*
X86416148Y-37389658D01*
X86445542Y-37346975D01*
X86462442Y-37310395D01*
X86474734Y-37270345D01*
X86482239Y-37227227D01*
X86484780Y-37181441D01*
X86483659Y-37150265D01*
X86477844Y-37105870D01*
X86467207Y-37064635D01*
X86451902Y-37026916D01*
X86424502Y-36982710D01*
X86389444Y-36946234D01*
X86347096Y-36918332D01*
X86310771Y-36903541D01*
X86270706Y-36894405D01*
X86227055Y-36891281D01*
X86197989Y-36892702D01*
X86157299Y-36899983D01*
X86120235Y-36913098D01*
X86076726Y-36938988D01*
X86040307Y-36973639D01*
X86011343Y-37016131D01*
X85994733Y-37052591D01*
X85982677Y-37092555D01*
X85975330Y-37135634D01*
X85972847Y-37181441D01*
X85826148Y-37181441D01*
X85828014Y-37138397D01*
X85833647Y-37096051D01*
X85842872Y-37055543D01*
X85855552Y-37017032D01*
X85871554Y-36980680D01*
X85901490Y-36930548D01*
X85938140Y-36886176D01*
X85981050Y-36848105D01*
X86029764Y-36816876D01*
X86065241Y-36800126D01*
X86102960Y-36786819D01*
X86142788Y-36777115D01*
X86184588Y-36771175D01*
X86228227Y-36769159D01*
X86272086Y-36771162D01*
G37*
G36*
X87097341Y-37156822D02*
G01*
X87097341Y-37269955D01*
X87374019Y-37269955D01*
X87367196Y-37311067D01*
X87354242Y-37349431D01*
X87334995Y-37384206D01*
X87309295Y-37414547D01*
X87276982Y-37439612D01*
X87237897Y-37458559D01*
X87191877Y-37470545D01*
X87152717Y-37474460D01*
X87138765Y-37474728D01*
X87093882Y-37471505D01*
X87052658Y-37462090D01*
X87015257Y-37446867D01*
X86981845Y-37426217D01*
X86943785Y-37390904D01*
X86920322Y-37359080D01*
X86901399Y-37323105D01*
X86887179Y-37283362D01*
X86877830Y-37240232D01*
X86873515Y-37194099D01*
X86873224Y-37178120D01*
X86875741Y-37132936D01*
X86883199Y-37090410D01*
X86895462Y-37050932D01*
X86912389Y-37014891D01*
X86941978Y-36972858D01*
X86979288Y-36938555D01*
X87023992Y-36912908D01*
X87062175Y-36899910D01*
X87104194Y-36892690D01*
X87134270Y-36891281D01*
X87178832Y-36894757D01*
X87219027Y-36904955D01*
X87254751Y-36921525D01*
X87291574Y-36949328D01*
X87321633Y-36985202D01*
X87341388Y-37020827D01*
X87502784Y-37020827D01*
X87487864Y-36981839D01*
X87468393Y-36944925D01*
X87444547Y-36910470D01*
X87416505Y-36878859D01*
X87384445Y-36850475D01*
X87348544Y-36825703D01*
X87308979Y-36804928D01*
X87265930Y-36788534D01*
X87219572Y-36776905D01*
X87170085Y-36770427D01*
X87135443Y-36769159D01*
X87090407Y-36771194D01*
X87047409Y-36777183D01*
X87006570Y-36786957D01*
X86968008Y-36800343D01*
X86931844Y-36817171D01*
X86898197Y-36837269D01*
X86852707Y-36873173D01*
X86813554Y-36915473D01*
X86781141Y-36963592D01*
X86763476Y-36998617D01*
X86749105Y-37035801D01*
X86738149Y-37074971D01*
X86730728Y-37115956D01*
X86726959Y-37158586D01*
X86726483Y-37180464D01*
X86728411Y-37225718D01*
X86734090Y-37268997D01*
X86743359Y-37310169D01*
X86756057Y-37349105D01*
X86772024Y-37385674D01*
X86801752Y-37435806D01*
X86837931Y-37479882D01*
X86880019Y-37517460D01*
X86927475Y-37548102D01*
X86979756Y-37571369D01*
X87036320Y-37586820D01*
X87076142Y-37592562D01*
X87117467Y-37594505D01*
X87162527Y-37592482D01*
X87203687Y-37586710D01*
X87249798Y-37574905D01*
X87290145Y-37558813D01*
X87324913Y-37539306D01*
X87359527Y-37512617D01*
X87374019Y-37498371D01*
X87374019Y-37582000D01*
X87502784Y-37582000D01*
X87502784Y-37156822D01*
X87097341Y-37156822D01*
G37*
G36*
X87661835Y-37582000D02*
G01*
X87804082Y-37582000D01*
X87804082Y-36781665D01*
X87661835Y-36781665D01*
X87661835Y-37582000D01*
G37*
G36*
X88554005Y-37348503D02*
G01*
X88529757Y-37385058D01*
X88499497Y-37417471D01*
X88462653Y-37443949D01*
X88426507Y-37460187D01*
X88385060Y-37470020D01*
X88347864Y-37472579D01*
X88304813Y-37469351D01*
X88265235Y-37459950D01*
X88218155Y-37438536D01*
X88177940Y-37407889D01*
X88144984Y-37369004D01*
X88125267Y-37335034D01*
X88110021Y-37297411D01*
X88099411Y-37256555D01*
X88093605Y-37212886D01*
X88092484Y-37182418D01*
X88094885Y-37137400D01*
X88102007Y-37094748D01*
X88113729Y-37054912D01*
X88129929Y-37018344D01*
X88158283Y-36975447D01*
X88194093Y-36940225D01*
X88237070Y-36913745D01*
X88273832Y-36900264D01*
X88314342Y-36892751D01*
X88343370Y-36891281D01*
X88387684Y-36894939D01*
X88427972Y-36905607D01*
X88464014Y-36922825D01*
X88495593Y-36946130D01*
X88522488Y-36975064D01*
X88544481Y-37009165D01*
X88551856Y-37024149D01*
X88707390Y-37024149D01*
X88693157Y-36983273D01*
X88674496Y-36945038D01*
X88651523Y-36909745D01*
X88624353Y-36877695D01*
X88593103Y-36849189D01*
X88557889Y-36824530D01*
X88518826Y-36804017D01*
X88476031Y-36787954D01*
X88429619Y-36776640D01*
X88379706Y-36770379D01*
X88344543Y-36769159D01*
X88300200Y-36771235D01*
X88257956Y-36777340D01*
X88217913Y-36787288D01*
X88180179Y-36800896D01*
X88144859Y-36817978D01*
X88096634Y-36849713D01*
X88054431Y-36888228D01*
X88018607Y-36932899D01*
X87989516Y-36983104D01*
X87974038Y-37019340D01*
X87961817Y-37057575D01*
X87952957Y-37097622D01*
X87947564Y-37139298D01*
X87945743Y-37182418D01*
X87947576Y-37225718D01*
X87953001Y-37267501D01*
X87961903Y-37307589D01*
X87974170Y-37345808D01*
X87989686Y-37381980D01*
X88018807Y-37432018D01*
X88054602Y-37476462D01*
X88096687Y-37514719D01*
X88144680Y-37546194D01*
X88198196Y-37570293D01*
X88236753Y-37581969D01*
X88277480Y-37589926D01*
X88320265Y-37593989D01*
X88342393Y-37594505D01*
X88394738Y-37591519D01*
X88443377Y-37582904D01*
X88488273Y-37569169D01*
X88529387Y-37550826D01*
X88566682Y-37528386D01*
X88600121Y-37502360D01*
X88629665Y-37473259D01*
X88655278Y-37441593D01*
X88676920Y-37407875D01*
X88694556Y-37372615D01*
X88704068Y-37348503D01*
X88554005Y-37348503D01*
G37*
G36*
X89111661Y-37582000D02*
G01*
X89575331Y-37582000D01*
X89575331Y-37457729D01*
X89253908Y-37457729D01*
X89253908Y-36781665D01*
X89111661Y-36781665D01*
X89111661Y-37582000D01*
G37*
G36*
X89700188Y-37582000D02*
G01*
X90199616Y-37582000D01*
X90199616Y-37457729D01*
X89841263Y-37457729D01*
X89841263Y-37232439D01*
X90165031Y-37232439D01*
X90165031Y-37106801D01*
X89841263Y-37106801D01*
X89841263Y-36908280D01*
X90191800Y-36908280D01*
X90191800Y-36781665D01*
X89700188Y-36781665D01*
X89700188Y-37582000D01*
G37*
G36*
X90638471Y-37431937D02*
G01*
X90624747Y-37389164D01*
X90611054Y-37347217D01*
X90598116Y-37308684D01*
X90584105Y-37268152D01*
X90572428Y-37234979D01*
X90416699Y-36781665D01*
X90259993Y-36781665D01*
X90276964Y-36828318D01*
X90291085Y-36867347D01*
X90307121Y-36911749D01*
X90324789Y-36960695D01*
X90343804Y-37013356D01*
X90363883Y-37068903D01*
X90384743Y-37126506D01*
X90406099Y-37185337D01*
X90427669Y-37244567D01*
X90449168Y-37303365D01*
X90470312Y-37360903D01*
X90490819Y-37416352D01*
X90510404Y-37468883D01*
X90528785Y-37517666D01*
X90545676Y-37561872D01*
X90553475Y-37582000D01*
X90719169Y-37582000D01*
X91014801Y-36781665D01*
X90865910Y-36781665D01*
X90710181Y-37228336D01*
X90695776Y-37269272D01*
X90682566Y-37306632D01*
X90668006Y-37348464D01*
X90653614Y-37391536D01*
X90640816Y-37431937D01*
X90638471Y-37431937D01*
G37*
G36*
X91114061Y-37582000D02*
G01*
X91613489Y-37582000D01*
X91613489Y-37457729D01*
X91255136Y-37457729D01*
X91255136Y-37232439D01*
X91578904Y-37232439D01*
X91578904Y-37106801D01*
X91255136Y-37106801D01*
X91255136Y-36908280D01*
X91605673Y-36908280D01*
X91605673Y-36781665D01*
X91114061Y-36781665D01*
X91114061Y-37582000D01*
G37*
G36*
X91761207Y-37582000D02*
G01*
X92224878Y-37582000D01*
X92224878Y-37457729D01*
X91903454Y-37457729D01*
X91903454Y-36781665D01*
X91761207Y-36781665D01*
X91761207Y-37582000D01*
G37*
G36*
X93157494Y-37348503D02*
G01*
X93133247Y-37385058D01*
X93102986Y-37417471D01*
X93066142Y-37443949D01*
X93029996Y-37460187D01*
X92988549Y-37470020D01*
X92951354Y-37472579D01*
X92908302Y-37469351D01*
X92868724Y-37459950D01*
X92821644Y-37438536D01*
X92781429Y-37407889D01*
X92748473Y-37369004D01*
X92728756Y-37335034D01*
X92713510Y-37297411D01*
X92702900Y-37256555D01*
X92697094Y-37212886D01*
X92695973Y-37182418D01*
X92698374Y-37137400D01*
X92705497Y-37094748D01*
X92717218Y-37054912D01*
X92733418Y-37018344D01*
X92761772Y-36975447D01*
X92797582Y-36940225D01*
X92840559Y-36913745D01*
X92877321Y-36900264D01*
X92917831Y-36892751D01*
X92946859Y-36891281D01*
X92991173Y-36894939D01*
X93031461Y-36905607D01*
X93067503Y-36922825D01*
X93099082Y-36946130D01*
X93125977Y-36975064D01*
X93147970Y-37009165D01*
X93155345Y-37024149D01*
X93310879Y-37024149D01*
X93296646Y-36983273D01*
X93277985Y-36945038D01*
X93255012Y-36909745D01*
X93227843Y-36877695D01*
X93196593Y-36849189D01*
X93161378Y-36824530D01*
X93122315Y-36804017D01*
X93079520Y-36787954D01*
X93033108Y-36776640D01*
X92983195Y-36770379D01*
X92948032Y-36769159D01*
X92903690Y-36771235D01*
X92861445Y-36777340D01*
X92821403Y-36787288D01*
X92783669Y-36800896D01*
X92748348Y-36817978D01*
X92700123Y-36849713D01*
X92657920Y-36888228D01*
X92622096Y-36932899D01*
X92593005Y-36983104D01*
X92577528Y-37019340D01*
X92565306Y-37057575D01*
X92556446Y-37097622D01*
X92551053Y-37139298D01*
X92549232Y-37182418D01*
X92551066Y-37225718D01*
X92556490Y-37267501D01*
X92565393Y-37307589D01*
X92577659Y-37345808D01*
X92593176Y-37381980D01*
X92622296Y-37432018D01*
X92658091Y-37476462D01*
X92700177Y-37514719D01*
X92748169Y-37546194D01*
X92801685Y-37570293D01*
X92840242Y-37581969D01*
X92880969Y-37589926D01*
X92923754Y-37593989D01*
X92945882Y-37594505D01*
X92998227Y-37591519D01*
X93046866Y-37582904D01*
X93091762Y-37569169D01*
X93132876Y-37550826D01*
X93170171Y-37528386D01*
X93203610Y-37502360D01*
X93233154Y-37473259D01*
X93258767Y-37441593D01*
X93280410Y-37407875D01*
X93298045Y-37372615D01*
X93307557Y-37348503D01*
X93157494Y-37348503D01*
G37*
G36*
X93836189Y-36771162D02*
G01*
X93878207Y-36777067D01*
X93918249Y-36786719D01*
X93956178Y-36799961D01*
X94008810Y-36826219D01*
X94055919Y-36859683D01*
X94097045Y-36899828D01*
X94131727Y-36946130D01*
X94151040Y-36980160D01*
X94167149Y-37016538D01*
X94179915Y-37055108D01*
X94189203Y-37095715D01*
X94194875Y-37138203D01*
X94196797Y-37182418D01*
X94194925Y-37226459D01*
X94189389Y-37268791D01*
X94180308Y-37309258D01*
X94167799Y-37347703D01*
X94151981Y-37383972D01*
X94122311Y-37433949D01*
X94085862Y-37478147D01*
X94043034Y-37516040D01*
X93994229Y-37547099D01*
X93958568Y-37563748D01*
X93920547Y-37576970D01*
X93880283Y-37586607D01*
X93837896Y-37592504D01*
X93793503Y-37594505D01*
X93749464Y-37592504D01*
X93707340Y-37586607D01*
X93667257Y-37576970D01*
X93629344Y-37563748D01*
X93593729Y-37547099D01*
X93544895Y-37516040D01*
X93501950Y-37478147D01*
X93465327Y-37433949D01*
X93435457Y-37383972D01*
X93419509Y-37347703D01*
X93406882Y-37309258D01*
X93397705Y-37268791D01*
X93392104Y-37226459D01*
X93390209Y-37182418D01*
X93390251Y-37181441D01*
X93536950Y-37181441D01*
X93538071Y-37212081D01*
X93543877Y-37255968D01*
X93554487Y-37296999D01*
X93569733Y-37334758D01*
X93589450Y-37368830D01*
X93622406Y-37407807D01*
X93662621Y-37438506D01*
X93709701Y-37459943D01*
X93749279Y-37469351D01*
X93792331Y-37472579D01*
X93821422Y-37471144D01*
X93862240Y-37463800D01*
X93899516Y-37450582D01*
X93943401Y-37424511D01*
X93980251Y-37389658D01*
X94009646Y-37346975D01*
X94026545Y-37310395D01*
X94038837Y-37270345D01*
X94046342Y-37227227D01*
X94048883Y-37181441D01*
X94047762Y-37150265D01*
X94041947Y-37105870D01*
X94031310Y-37064635D01*
X94016005Y-37026916D01*
X93988605Y-36982710D01*
X93953548Y-36946234D01*
X93911200Y-36918332D01*
X93874875Y-36903541D01*
X93834809Y-36894405D01*
X93791158Y-36891281D01*
X93762092Y-36892702D01*
X93721402Y-36899983D01*
X93684339Y-36913098D01*
X93640830Y-36938988D01*
X93604410Y-36973639D01*
X93575446Y-37016131D01*
X93558836Y-37052591D01*
X93546780Y-37092555D01*
X93539433Y-37135634D01*
X93536950Y-37181441D01*
X93390251Y-37181441D01*
X93392117Y-37138397D01*
X93397750Y-37096051D01*
X93406975Y-37055543D01*
X93419656Y-37017032D01*
X93435658Y-36980680D01*
X93465593Y-36930548D01*
X93502243Y-36886176D01*
X93545153Y-36848105D01*
X93593868Y-36816876D01*
X93629344Y-36800126D01*
X93667064Y-36786819D01*
X93706891Y-36777115D01*
X93748692Y-36771175D01*
X93792331Y-36769159D01*
X93836189Y-36771162D01*
G37*
G36*
X94338848Y-37582000D02*
G01*
X94477774Y-37582000D01*
X94477774Y-37235175D01*
X94477665Y-37188768D01*
X94477453Y-37143071D01*
X94477187Y-37095297D01*
X94476922Y-37049483D01*
X94476709Y-37009668D01*
X94476601Y-36975496D01*
X94477774Y-36975496D01*
X94498968Y-37012066D01*
X94520212Y-37047924D01*
X94542318Y-37085323D01*
X94563009Y-37120591D01*
X94576252Y-37143339D01*
X94833782Y-37582000D01*
X95002993Y-37582000D01*
X95002993Y-36781665D01*
X94867390Y-36781665D01*
X94867390Y-37176947D01*
X94867498Y-37221201D01*
X94867761Y-37265713D01*
X94868085Y-37308349D01*
X94868418Y-37352875D01*
X94868562Y-37388559D01*
X94867390Y-37389536D01*
X94845950Y-37352768D01*
X94825917Y-37318926D01*
X94805043Y-37283653D01*
X94785241Y-37249833D01*
X94780049Y-37240841D01*
X94513531Y-36781665D01*
X94338848Y-36781665D01*
X94338848Y-37582000D01*
G37*
G36*
X95484250Y-37431937D02*
G01*
X95470525Y-37389164D01*
X95456832Y-37347217D01*
X95443894Y-37308684D01*
X95429884Y-37268152D01*
X95418206Y-37234979D01*
X95262477Y-36781665D01*
X95105771Y-36781665D01*
X95122742Y-36828318D01*
X95136863Y-36867347D01*
X95152899Y-36911749D01*
X95170567Y-36960695D01*
X95189582Y-37013356D01*
X95209661Y-37068903D01*
X95230521Y-37126506D01*
X95251877Y-37185337D01*
X95273447Y-37244567D01*
X95294946Y-37303365D01*
X95316090Y-37360903D01*
X95336597Y-37416352D01*
X95356183Y-37468883D01*
X95374563Y-37517666D01*
X95391454Y-37561872D01*
X95399253Y-37582000D01*
X95564947Y-37582000D01*
X95860579Y-36781665D01*
X95711688Y-36781665D01*
X95555959Y-37228336D01*
X95541554Y-37269272D01*
X95528345Y-37306632D01*
X95513784Y-37348464D01*
X95499392Y-37391536D01*
X95486594Y-37431937D01*
X95484250Y-37431937D01*
G37*
G36*
X95870349Y-37582000D02*
G01*
X96014745Y-37582000D01*
X96014745Y-37431937D01*
X95870349Y-37431937D01*
X95870349Y-37582000D01*
G37*
G36*
X84278953Y-34014439D02*
G01*
X84278953Y-34364000D01*
X84421200Y-34364000D01*
X84421200Y-33563665D01*
X84278953Y-33563665D01*
X84278953Y-33888801D01*
X83937404Y-33888801D01*
X83937404Y-33563665D01*
X83795157Y-33563665D01*
X83795157Y-34364000D01*
X83937404Y-34364000D01*
X83937404Y-34014439D01*
X84278953Y-34014439D01*
G37*
G36*
X84902260Y-34213937D02*
G01*
X84888536Y-34171164D01*
X84874843Y-34129217D01*
X84861905Y-34090684D01*
X84847895Y-34050152D01*
X84836217Y-34016979D01*
X84680488Y-33563665D01*
X84523782Y-33563665D01*
X84540753Y-33610318D01*
X84554874Y-33649347D01*
X84570910Y-33693749D01*
X84588578Y-33742695D01*
X84607593Y-33795356D01*
X84627672Y-33850903D01*
X84648532Y-33908506D01*
X84669888Y-33967337D01*
X84691458Y-34026567D01*
X84712957Y-34085365D01*
X84734101Y-34142903D01*
X84754608Y-34198352D01*
X84774193Y-34250883D01*
X84792574Y-34299666D01*
X84809465Y-34343872D01*
X84817264Y-34364000D01*
X84982958Y-34364000D01*
X85278590Y-33563665D01*
X85129699Y-33563665D01*
X84973970Y-34010336D01*
X84959565Y-34051272D01*
X84946355Y-34088632D01*
X84931795Y-34130464D01*
X84917403Y-34173536D01*
X84904605Y-34213937D01*
X84902260Y-34213937D01*
G37*
G36*
X85597278Y-34364000D02*
G01*
X85737376Y-34364000D01*
X85737376Y-33563665D01*
X85614082Y-33563665D01*
X85604417Y-33601919D01*
X85582991Y-33637328D01*
X85549563Y-33662476D01*
X85511565Y-33676502D01*
X85463511Y-33685006D01*
X85417302Y-33688323D01*
X85404619Y-33688717D01*
X85404619Y-33795207D01*
X85597278Y-33795207D01*
X85597278Y-34364000D01*
G37*
D11*
G36*
X67473298Y-44416915D02*
G01*
X67527924Y-44418428D01*
X67582299Y-44421887D01*
X67635895Y-44428060D01*
X67688185Y-44437714D01*
X67738644Y-44451614D01*
X67786745Y-44470530D01*
X67831961Y-44495227D01*
X67855297Y-44511353D01*
X67898418Y-44548873D01*
X67936493Y-44592842D01*
X67969150Y-44642568D01*
X67996016Y-44697356D01*
X68016720Y-44756515D01*
X68030890Y-44819352D01*
X68037005Y-44868477D01*
X68039078Y-44918988D01*
X68035982Y-44979785D01*
X68026901Y-45038083D01*
X68012146Y-45093491D01*
X67992031Y-45145615D01*
X67966867Y-45194064D01*
X67936966Y-45238447D01*
X67902640Y-45278369D01*
X67864201Y-45313441D01*
X67853118Y-45322118D01*
X67807767Y-45352023D01*
X67760456Y-45374928D01*
X67710753Y-45391755D01*
X67658225Y-45403425D01*
X67602441Y-45410861D01*
X67542969Y-45414984D01*
X67479375Y-45416716D01*
X67428716Y-45417000D01*
X67200593Y-45417000D01*
X67200593Y-44574850D01*
X67378402Y-44574850D01*
X67378402Y-45263127D01*
X67476343Y-45263127D01*
X67541014Y-45260771D01*
X67600253Y-45253428D01*
X67653857Y-45240682D01*
X67701623Y-45222117D01*
X67755879Y-45187594D01*
X67798915Y-45141005D01*
X67823540Y-45097552D01*
X67841381Y-45046341D01*
X67852234Y-44986959D01*
X67855896Y-44918988D01*
X67852319Y-44858096D01*
X67841752Y-44802950D01*
X67824448Y-44753604D01*
X67800654Y-44710109D01*
X67759268Y-44661312D01*
X67707383Y-44623140D01*
X67661936Y-44601558D01*
X67611167Y-44586077D01*
X67555325Y-44576750D01*
X67494661Y-44573629D01*
X67478736Y-44573631D01*
X67427368Y-44573846D01*
X67378402Y-44574850D01*
X67200593Y-44574850D01*
X67200593Y-44416581D01*
X67418946Y-44416581D01*
X67473298Y-44416915D01*
G37*
G36*
X68195150Y-44951961D02*
G01*
X68245036Y-44959262D01*
X68293367Y-44967377D01*
X68342019Y-44975545D01*
X68351954Y-44977118D01*
X68382625Y-44936352D01*
X68427769Y-44906354D01*
X68481142Y-44892852D01*
X68501674Y-44891877D01*
X68551434Y-44897976D01*
X68601503Y-44919935D01*
X68640277Y-44955402D01*
X68666937Y-45001769D01*
X68680660Y-45056427D01*
X68682414Y-45086050D01*
X68677645Y-45137875D01*
X68659682Y-45192169D01*
X68628960Y-45235926D01*
X68586106Y-45267107D01*
X68531749Y-45283675D01*
X68500453Y-45285841D01*
X68448536Y-45279361D01*
X68399912Y-45257034D01*
X68363744Y-45221477D01*
X68339602Y-45175498D01*
X68329483Y-45137830D01*
X68157292Y-45137830D01*
X68169381Y-45200215D01*
X68191536Y-45256948D01*
X68223199Y-45307206D01*
X68263812Y-45350169D01*
X68312818Y-45385014D01*
X68369657Y-45410920D01*
X68417092Y-45423990D01*
X68468384Y-45431223D01*
X68504605Y-45432631D01*
X68561812Y-45428728D01*
X68615039Y-45417354D01*
X68663928Y-45399009D01*
X68708118Y-45374195D01*
X68747249Y-45343412D01*
X68780962Y-45307162D01*
X68808896Y-45265946D01*
X68830692Y-45220266D01*
X68845991Y-45170621D01*
X68854431Y-45117514D01*
X68856071Y-45080433D01*
X68852727Y-45026327D01*
X68842924Y-44975817D01*
X68827000Y-44929281D01*
X68796838Y-44874065D01*
X68757210Y-44827476D01*
X68708921Y-44790407D01*
X68652780Y-44763750D01*
X68589594Y-44748400D01*
X68538067Y-44744843D01*
X68488199Y-44748610D01*
X68437683Y-44760980D01*
X68392357Y-44780547D01*
X68364654Y-44796867D01*
X68375889Y-44717732D01*
X68381934Y-44667172D01*
X68387469Y-44616666D01*
X68393963Y-44570698D01*
X68785973Y-44570698D01*
X68785973Y-44416581D01*
X68256699Y-44416581D01*
X68250862Y-44467603D01*
X68245144Y-44518006D01*
X68239508Y-44567946D01*
X68233918Y-44617577D01*
X68228338Y-44667054D01*
X68222731Y-44716530D01*
X68217061Y-44766161D01*
X68211293Y-44816101D01*
X68205389Y-44866505D01*
X68199313Y-44917527D01*
X68195150Y-44951961D01*
G37*
G36*
X67473298Y-39416915D02*
G01*
X67527924Y-39418428D01*
X67582299Y-39421887D01*
X67635895Y-39428060D01*
X67688185Y-39437714D01*
X67738644Y-39451614D01*
X67786745Y-39470530D01*
X67831961Y-39495227D01*
X67855297Y-39511353D01*
X67898418Y-39548873D01*
X67936493Y-39592842D01*
X67969150Y-39642568D01*
X67996016Y-39697356D01*
X68016720Y-39756515D01*
X68030890Y-39819352D01*
X68037005Y-39868477D01*
X68039078Y-39918988D01*
X68035982Y-39979785D01*
X68026901Y-40038083D01*
X68012146Y-40093491D01*
X67992031Y-40145615D01*
X67966867Y-40194064D01*
X67936966Y-40238447D01*
X67902640Y-40278369D01*
X67864201Y-40313441D01*
X67853118Y-40322118D01*
X67807767Y-40352023D01*
X67760456Y-40374928D01*
X67710753Y-40391755D01*
X67658225Y-40403425D01*
X67602441Y-40410861D01*
X67542969Y-40414984D01*
X67479375Y-40416716D01*
X67428716Y-40417000D01*
X67200593Y-40417000D01*
X67200593Y-39574850D01*
X67378402Y-39574850D01*
X67378402Y-40263127D01*
X67476343Y-40263127D01*
X67541014Y-40260771D01*
X67600253Y-40253428D01*
X67653857Y-40240682D01*
X67701623Y-40222117D01*
X67755879Y-40187594D01*
X67798915Y-40141005D01*
X67823540Y-40097552D01*
X67841381Y-40046341D01*
X67852234Y-39986959D01*
X67855896Y-39918988D01*
X67852319Y-39858096D01*
X67841752Y-39802950D01*
X67824448Y-39753604D01*
X67800654Y-39710109D01*
X67759268Y-39661312D01*
X67707383Y-39623140D01*
X67661936Y-39601558D01*
X67611167Y-39586077D01*
X67555325Y-39576750D01*
X67494661Y-39573629D01*
X67478736Y-39573631D01*
X67427368Y-39573846D01*
X67378402Y-39574850D01*
X67200593Y-39574850D01*
X67200593Y-39416581D01*
X67418946Y-39416581D01*
X67473298Y-39416915D01*
G37*
G36*
X68739811Y-40067000D02*
G01*
X68871458Y-40067000D01*
X68871458Y-40213789D01*
X68739811Y-40213789D01*
X68739811Y-40417000D01*
X68581542Y-40417000D01*
X68581542Y-40213789D01*
X68127983Y-40213789D01*
X68127983Y-40076769D01*
X68134767Y-40067000D01*
X68301640Y-40067000D01*
X68581542Y-40067000D01*
X68581542Y-39820314D01*
X68581608Y-39798856D01*
X68582169Y-39746070D01*
X68583144Y-39692625D01*
X68584473Y-39640796D01*
X68581542Y-39640796D01*
X68557117Y-39681510D01*
X68531704Y-39723365D01*
X68502395Y-39770299D01*
X68472365Y-39816162D01*
X68406664Y-39912638D01*
X68388477Y-39939046D01*
X68356813Y-39985408D01*
X68328973Y-40026462D01*
X68301640Y-40067000D01*
X68134767Y-40067000D01*
X68427669Y-39645192D01*
X68456834Y-39602833D01*
X68488540Y-39556366D01*
X68519819Y-39510267D01*
X68552611Y-39461741D01*
X68583007Y-39416581D01*
X68739811Y-39416581D01*
X68739811Y-40067000D01*
G37*
G36*
X67473298Y-34416915D02*
G01*
X67527924Y-34418428D01*
X67582299Y-34421887D01*
X67635895Y-34428060D01*
X67688185Y-34437714D01*
X67738644Y-34451614D01*
X67786745Y-34470530D01*
X67831961Y-34495227D01*
X67855297Y-34511353D01*
X67898418Y-34548873D01*
X67936493Y-34592842D01*
X67969150Y-34642568D01*
X67996016Y-34697356D01*
X68016720Y-34756515D01*
X68030890Y-34819352D01*
X68037005Y-34868477D01*
X68039078Y-34918988D01*
X68035982Y-34979785D01*
X68026901Y-35038083D01*
X68012146Y-35093491D01*
X67992031Y-35145615D01*
X67966867Y-35194064D01*
X67936966Y-35238447D01*
X67902640Y-35278369D01*
X67864201Y-35313441D01*
X67853118Y-35322118D01*
X67807767Y-35352023D01*
X67760456Y-35374928D01*
X67710753Y-35391755D01*
X67658225Y-35403425D01*
X67602441Y-35410861D01*
X67542969Y-35414984D01*
X67479375Y-35416716D01*
X67428716Y-35417000D01*
X67200593Y-35417000D01*
X67200593Y-34574850D01*
X67378402Y-34574850D01*
X67378402Y-35263127D01*
X67476343Y-35263127D01*
X67541014Y-35260771D01*
X67600253Y-35253428D01*
X67653857Y-35240682D01*
X67701623Y-35222117D01*
X67755879Y-35187594D01*
X67798915Y-35141005D01*
X67823540Y-35097552D01*
X67841381Y-35046341D01*
X67852234Y-34986959D01*
X67855896Y-34918988D01*
X67852319Y-34858096D01*
X67841752Y-34802950D01*
X67824448Y-34753604D01*
X67800654Y-34710109D01*
X67759268Y-34661312D01*
X67707383Y-34623140D01*
X67661936Y-34601558D01*
X67611167Y-34586077D01*
X67555325Y-34576750D01*
X67494661Y-34573629D01*
X67478736Y-34573631D01*
X67427368Y-34573846D01*
X67378402Y-34574850D01*
X67200593Y-34574850D01*
X67200593Y-34416581D01*
X67418946Y-34416581D01*
X67473298Y-34416915D01*
G37*
G36*
X68154605Y-35128793D02*
G01*
X68164304Y-35190936D01*
X68183926Y-35248396D01*
X68213274Y-35300063D01*
X68252150Y-35344826D01*
X68300357Y-35381575D01*
X68357697Y-35409199D01*
X68406577Y-35423261D01*
X68460401Y-35431097D01*
X68498988Y-35432631D01*
X68557492Y-35429299D01*
X68611508Y-35419553D01*
X68660759Y-35403765D01*
X68704969Y-35382309D01*
X68755595Y-35345528D01*
X68796113Y-35300218D01*
X68825865Y-35247262D01*
X68844197Y-35187546D01*
X68850057Y-35138855D01*
X68850453Y-35121954D01*
X68845673Y-35067374D01*
X68831528Y-35017585D01*
X68808317Y-34973159D01*
X68776334Y-34934665D01*
X68735876Y-34902673D01*
X68687240Y-34877755D01*
X68665561Y-34869896D01*
X68707616Y-34843198D01*
X68748374Y-34804571D01*
X68778450Y-34758343D01*
X68796017Y-34704988D01*
X68799895Y-34662778D01*
X68794557Y-34606928D01*
X68778943Y-34556334D01*
X68753656Y-34511669D01*
X68719295Y-34473612D01*
X68676462Y-34442835D01*
X68625757Y-34420015D01*
X68567783Y-34405828D01*
X68503140Y-34400949D01*
X68454145Y-34403885D01*
X68394589Y-34416502D01*
X68342110Y-34438293D01*
X68297231Y-34468418D01*
X68260475Y-34506035D01*
X68232367Y-34550302D01*
X68213430Y-34600379D01*
X68204188Y-34655422D01*
X68203454Y-34669861D01*
X68364654Y-34669861D01*
X68378912Y-34617551D01*
X68412131Y-34575093D01*
X68460275Y-34551404D01*
X68498988Y-34546762D01*
X68548672Y-34554158D01*
X68593919Y-34580509D01*
X68621832Y-34626515D01*
X68627704Y-34668395D01*
X68618973Y-34720741D01*
X68588983Y-34764482D01*
X68541420Y-34791912D01*
X68489653Y-34804314D01*
X68440656Y-34808003D01*
X68430356Y-34808102D01*
X68430356Y-34948053D01*
X68469679Y-34948053D01*
X68521400Y-34951762D01*
X68576523Y-34966453D01*
X68621664Y-34993072D01*
X68654273Y-35032422D01*
X68671800Y-35085303D01*
X68674110Y-35117069D01*
X68667332Y-35167291D01*
X68643260Y-35218087D01*
X68603389Y-35257041D01*
X68557917Y-35278261D01*
X68503140Y-35285841D01*
X68447152Y-35279388D01*
X68401864Y-35260905D01*
X68362256Y-35225890D01*
X68336557Y-35178376D01*
X68325331Y-35129281D01*
X68154605Y-35128793D01*
G37*
G36*
X67473298Y-29416915D02*
G01*
X67527924Y-29418428D01*
X67582299Y-29421887D01*
X67635895Y-29428060D01*
X67688185Y-29437714D01*
X67738644Y-29451614D01*
X67786745Y-29470530D01*
X67831961Y-29495227D01*
X67855297Y-29511353D01*
X67898418Y-29548873D01*
X67936493Y-29592842D01*
X67969150Y-29642568D01*
X67996016Y-29697356D01*
X68016720Y-29756515D01*
X68030890Y-29819352D01*
X68037005Y-29868477D01*
X68039078Y-29918988D01*
X68035982Y-29979785D01*
X68026901Y-30038083D01*
X68012146Y-30093491D01*
X67992031Y-30145615D01*
X67966867Y-30194064D01*
X67936966Y-30238447D01*
X67902640Y-30278369D01*
X67864201Y-30313441D01*
X67853118Y-30322118D01*
X67807767Y-30352023D01*
X67760456Y-30374928D01*
X67710753Y-30391755D01*
X67658225Y-30403425D01*
X67602441Y-30410861D01*
X67542969Y-30414984D01*
X67479375Y-30416716D01*
X67428716Y-30417000D01*
X67200593Y-30417000D01*
X67200593Y-29574850D01*
X67378402Y-29574850D01*
X67378402Y-30263127D01*
X67476343Y-30263127D01*
X67541014Y-30260771D01*
X67600253Y-30253428D01*
X67653857Y-30240682D01*
X67701623Y-30222117D01*
X67755879Y-30187594D01*
X67798915Y-30141005D01*
X67823540Y-30097552D01*
X67841381Y-30046341D01*
X67852234Y-29986959D01*
X67855896Y-29918988D01*
X67852319Y-29858096D01*
X67841752Y-29802950D01*
X67824448Y-29753604D01*
X67800654Y-29710109D01*
X67759268Y-29661312D01*
X67707383Y-29623140D01*
X67661936Y-29601558D01*
X67611167Y-29586077D01*
X67555325Y-29576750D01*
X67494661Y-29573629D01*
X67478736Y-29573631D01*
X67427368Y-29573846D01*
X67378402Y-29574850D01*
X67200593Y-29574850D01*
X67200593Y-29416581D01*
X67418946Y-29416581D01*
X67473298Y-29416915D01*
G37*
G36*
X68836287Y-30417000D02*
G01*
X68836287Y-30267279D01*
X68405198Y-30267279D01*
X68451397Y-30226691D01*
X68502120Y-30184538D01*
X68555387Y-30140506D01*
X68609218Y-30094279D01*
X68661631Y-30045542D01*
X68710648Y-29993980D01*
X68754287Y-29939277D01*
X68790568Y-29881119D01*
X68817511Y-29819191D01*
X68833136Y-29753176D01*
X68836287Y-29706741D01*
X68830530Y-29643603D01*
X68813588Y-29585494D01*
X68785952Y-29533458D01*
X68748115Y-29488541D01*
X68700570Y-29451787D01*
X68643808Y-29424240D01*
X68595485Y-29410251D01*
X68542462Y-29402470D01*
X68504605Y-29400949D01*
X68446584Y-29404769D01*
X68393888Y-29415847D01*
X68346601Y-29433608D01*
X68292110Y-29466695D01*
X68247579Y-29509286D01*
X68213208Y-29560021D01*
X68189193Y-29617540D01*
X68175731Y-29680483D01*
X68172679Y-29730433D01*
X68174145Y-29740203D01*
X68340718Y-29740203D01*
X68346780Y-29683846D01*
X68363658Y-29635149D01*
X68397701Y-29590815D01*
X68439770Y-29565907D01*
X68494276Y-29555297D01*
X68504605Y-29555066D01*
X68554631Y-29561452D01*
X68601609Y-29583895D01*
X68635230Y-29620587D01*
X68654344Y-29669534D01*
X68658478Y-29710893D01*
X68652621Y-29762937D01*
X68634599Y-29813998D01*
X68609800Y-29857171D01*
X68575691Y-29902086D01*
X68541439Y-29940011D01*
X68500779Y-29980319D01*
X68477983Y-30001542D01*
X68431432Y-30044695D01*
X68394441Y-30078659D01*
X68356990Y-30112841D01*
X68320266Y-30146202D01*
X68274487Y-30187610D01*
X68234930Y-30223251D01*
X68198526Y-30255943D01*
X68181228Y-30271431D01*
X68181228Y-30417000D01*
X68836287Y-30417000D01*
G37*
D10*
G36*
X68015366Y-70332000D02*
G01*
X68155464Y-70332000D01*
X68155464Y-69531665D01*
X68032170Y-69531665D01*
X68022506Y-69569919D01*
X68001079Y-69605328D01*
X67967652Y-69630476D01*
X67929653Y-69644502D01*
X67881599Y-69653006D01*
X67835391Y-69656323D01*
X67822708Y-69656717D01*
X67822708Y-69763207D01*
X68015366Y-69763207D01*
X68015366Y-70332000D01*
G37*
G36*
X68705894Y-69519751D02*
G01*
X68745370Y-69524375D01*
X68797136Y-69539368D01*
X68840552Y-69563160D01*
X68876280Y-69594770D01*
X68904984Y-69633220D01*
X68927325Y-69677529D01*
X68943968Y-69726719D01*
X68955573Y-69779809D01*
X68962804Y-69835821D01*
X68966324Y-69893774D01*
X68966936Y-69933004D01*
X68966251Y-69975879D01*
X68964085Y-70017332D01*
X68960270Y-70057178D01*
X68951090Y-70113527D01*
X68937261Y-70165215D01*
X68918218Y-70211618D01*
X68893397Y-70252109D01*
X68862234Y-70286062D01*
X68824164Y-70312851D01*
X68778624Y-70331850D01*
X68725050Y-70342434D01*
X68684592Y-70344505D01*
X68644135Y-70342434D01*
X68590572Y-70331850D01*
X68545050Y-70312851D01*
X68507003Y-70286062D01*
X68475866Y-70252109D01*
X68451072Y-70211618D01*
X68432056Y-70165215D01*
X68418251Y-70113527D01*
X68409091Y-70057178D01*
X68405285Y-70017332D01*
X68403125Y-69975879D01*
X68402442Y-69933004D01*
X68551333Y-69933004D01*
X68552059Y-69979301D01*
X68554421Y-70022761D01*
X68558697Y-70063008D01*
X68567850Y-70111026D01*
X68581549Y-70151779D01*
X68606064Y-70191149D01*
X68639985Y-70216044D01*
X68684592Y-70224728D01*
X68729589Y-70216044D01*
X68763639Y-70191149D01*
X68788100Y-70151779D01*
X68801678Y-70111026D01*
X68810687Y-70063008D01*
X68814862Y-70022761D01*
X68817152Y-69979301D01*
X68817851Y-69933004D01*
X68817260Y-69889880D01*
X68815248Y-69848471D01*
X68811453Y-69809330D01*
X68803000Y-69761622D01*
X68789883Y-69720233D01*
X68765630Y-69679376D01*
X68731089Y-69652989D01*
X68684592Y-69643625D01*
X68638095Y-69652989D01*
X68603553Y-69679376D01*
X68579300Y-69720233D01*
X68566184Y-69761622D01*
X68557730Y-69809330D01*
X68553936Y-69848471D01*
X68551923Y-69889880D01*
X68551333Y-69933004D01*
X68402442Y-69933004D01*
X68403851Y-69874301D01*
X68408522Y-69816886D01*
X68417118Y-69761739D01*
X68430304Y-69709840D01*
X68448746Y-69662169D01*
X68473107Y-69619704D01*
X68504053Y-69583425D01*
X68542247Y-69554312D01*
X68588355Y-69533344D01*
X68643041Y-69521501D01*
X68684592Y-69519159D01*
X68705894Y-69519751D01*
G37*
G36*
X69361637Y-69519751D02*
G01*
X69401114Y-69524375D01*
X69452879Y-69539368D01*
X69496295Y-69563160D01*
X69532024Y-69594770D01*
X69560727Y-69633220D01*
X69583069Y-69677529D01*
X69599711Y-69726719D01*
X69611316Y-69779809D01*
X69618548Y-69835821D01*
X69622068Y-69893774D01*
X69622680Y-69933004D01*
X69621995Y-69975879D01*
X69619828Y-70017332D01*
X69616013Y-70057178D01*
X69606833Y-70113527D01*
X69593004Y-70165215D01*
X69573961Y-70211618D01*
X69549140Y-70252109D01*
X69517977Y-70286062D01*
X69479907Y-70312851D01*
X69434368Y-70331850D01*
X69380793Y-70342434D01*
X69340335Y-70344505D01*
X69299879Y-70342434D01*
X69246315Y-70331850D01*
X69200793Y-70312851D01*
X69162746Y-70286062D01*
X69131609Y-70252109D01*
X69106816Y-70211618D01*
X69087799Y-70165215D01*
X69073994Y-70113527D01*
X69064834Y-70057178D01*
X69061029Y-70017332D01*
X69058868Y-69975879D01*
X69058186Y-69933004D01*
X69207076Y-69933004D01*
X69207802Y-69979301D01*
X69210165Y-70022761D01*
X69214440Y-70063008D01*
X69223593Y-70111026D01*
X69237292Y-70151779D01*
X69261807Y-70191149D01*
X69295729Y-70216044D01*
X69340335Y-70224728D01*
X69385332Y-70216044D01*
X69419382Y-70191149D01*
X69443843Y-70151779D01*
X69457422Y-70111026D01*
X69466430Y-70063008D01*
X69470606Y-70022761D01*
X69472896Y-69979301D01*
X69473594Y-69933004D01*
X69473003Y-69889880D01*
X69470991Y-69848471D01*
X69467196Y-69809330D01*
X69458743Y-69761622D01*
X69445626Y-69720233D01*
X69421373Y-69679376D01*
X69386832Y-69652989D01*
X69340335Y-69643625D01*
X69293838Y-69652989D01*
X69259297Y-69679376D01*
X69235043Y-69720233D01*
X69221927Y-69761622D01*
X69213473Y-69809330D01*
X69209679Y-69848471D01*
X69207667Y-69889880D01*
X69207076Y-69933004D01*
X69058186Y-69933004D01*
X69059595Y-69874301D01*
X69064265Y-69816886D01*
X69072861Y-69761739D01*
X69086048Y-69709840D01*
X69104489Y-69662169D01*
X69128850Y-69619704D01*
X69159796Y-69583425D01*
X69197990Y-69554312D01*
X69244098Y-69533344D01*
X69298784Y-69521501D01*
X69340335Y-69519159D01*
X69361637Y-69519751D01*
G37*
G36*
X69884117Y-70532083D02*
G01*
X69884117Y-70326724D01*
X69922607Y-70339068D01*
X69962766Y-70344246D01*
X69974780Y-70344505D01*
X70019214Y-70339751D01*
X70060286Y-70325662D01*
X70096596Y-70302496D01*
X70126746Y-70270509D01*
X70140670Y-70248371D01*
X70140670Y-70332000D01*
X70271584Y-70332000D01*
X70270754Y-70290495D01*
X70270608Y-70251021D01*
X70270607Y-70242509D01*
X70270607Y-69744254D01*
X70132659Y-69744254D01*
X70132659Y-70046528D01*
X70131001Y-70088924D01*
X70124947Y-70129619D01*
X70109602Y-70173046D01*
X70082799Y-70206911D01*
X70041740Y-70227335D01*
X70005066Y-70231567D01*
X69966093Y-70226374D01*
X69930710Y-70207360D01*
X69906359Y-70175963D01*
X69891574Y-70133837D01*
X69885499Y-70091729D01*
X69884117Y-70054149D01*
X69884117Y-69744254D01*
X69746364Y-69744254D01*
X69746364Y-70532083D01*
X69884117Y-70532083D01*
G37*
G36*
X70443922Y-70332000D02*
G01*
X70586169Y-70332000D01*
X70586169Y-69994358D01*
X70892938Y-69994358D01*
X70892938Y-69868915D01*
X70586169Y-69868915D01*
X70586169Y-69658280D01*
X70918730Y-69658280D01*
X70918730Y-69531665D01*
X70443922Y-69531665D01*
X70443922Y-70332000D01*
G37*
G36*
X71811096Y-70332000D02*
G01*
X71811096Y-70212223D01*
X71466225Y-70212223D01*
X71503184Y-70179752D01*
X71543762Y-70146030D01*
X71586376Y-70110805D01*
X71629440Y-70073823D01*
X71671371Y-70034833D01*
X71710584Y-69993584D01*
X71745495Y-69949822D01*
X71774520Y-69903295D01*
X71796075Y-69853752D01*
X71808575Y-69800941D01*
X71811096Y-69763793D01*
X71806490Y-69713282D01*
X71792936Y-69666795D01*
X71770828Y-69625166D01*
X71740558Y-69589233D01*
X71702522Y-69559829D01*
X71657113Y-69537792D01*
X71618454Y-69526601D01*
X71576036Y-69520376D01*
X71545750Y-69519159D01*
X71499333Y-69522215D01*
X71457177Y-69531077D01*
X71419347Y-69545286D01*
X71375754Y-69571756D01*
X71340129Y-69605829D01*
X71312632Y-69646417D01*
X71293420Y-69692432D01*
X71282651Y-69742786D01*
X71280209Y-69782746D01*
X71281382Y-69790562D01*
X71414641Y-69790562D01*
X71419490Y-69745476D01*
X71432992Y-69706519D01*
X71460227Y-69671052D01*
X71493882Y-69651125D01*
X71537487Y-69642638D01*
X71545750Y-69642453D01*
X71585770Y-69647561D01*
X71623353Y-69665516D01*
X71650250Y-69694870D01*
X71665541Y-69734027D01*
X71668848Y-69767115D01*
X71664163Y-69808749D01*
X71649745Y-69849598D01*
X71629905Y-69884137D01*
X71602619Y-69920069D01*
X71575217Y-69950409D01*
X71542689Y-69982655D01*
X71524452Y-69999634D01*
X71487211Y-70034156D01*
X71457619Y-70061327D01*
X71427658Y-70088673D01*
X71398279Y-70115361D01*
X71361655Y-70148488D01*
X71330010Y-70177001D01*
X71300886Y-70203154D01*
X71287048Y-70215545D01*
X71287048Y-70332000D01*
X71811096Y-70332000D01*
G37*
G36*
X71953929Y-69959969D02*
G01*
X71993838Y-69965809D01*
X72032502Y-69972301D01*
X72071424Y-69978836D01*
X72079372Y-69980094D01*
X72103909Y-69947481D01*
X72140024Y-69923483D01*
X72182722Y-69912682D01*
X72199149Y-69911902D01*
X72238956Y-69916781D01*
X72279011Y-69934348D01*
X72310031Y-69962722D01*
X72331359Y-69999815D01*
X72342337Y-70043542D01*
X72343740Y-70067240D01*
X72339925Y-70108700D01*
X72325554Y-70152135D01*
X72300977Y-70187141D01*
X72266694Y-70212086D01*
X72223208Y-70225340D01*
X72198172Y-70227073D01*
X72156638Y-70221889D01*
X72117739Y-70204027D01*
X72088804Y-70175581D01*
X72069491Y-70138798D01*
X72061396Y-70108664D01*
X71923643Y-70108664D01*
X71933314Y-70158572D01*
X71951038Y-70203958D01*
X71976368Y-70244165D01*
X72008859Y-70278535D01*
X72048063Y-70306411D01*
X72093535Y-70327136D01*
X72131483Y-70337592D01*
X72172516Y-70343378D01*
X72201493Y-70344505D01*
X72247259Y-70341382D01*
X72289841Y-70332283D01*
X72328951Y-70317607D01*
X72364303Y-70297756D01*
X72395608Y-70273129D01*
X72422578Y-70244130D01*
X72444926Y-70211157D01*
X72462363Y-70174612D01*
X72474602Y-70134897D01*
X72481354Y-70092411D01*
X72482666Y-70062746D01*
X72479991Y-70019461D01*
X72472148Y-69979054D01*
X72459409Y-69941825D01*
X72435280Y-69897652D01*
X72403577Y-69860381D01*
X72364946Y-69830726D01*
X72320033Y-69809400D01*
X72269484Y-69797120D01*
X72228262Y-69794274D01*
X72188368Y-69797288D01*
X72147955Y-69807184D01*
X72111695Y-69822838D01*
X72089532Y-69835893D01*
X72098521Y-69772586D01*
X72103356Y-69732138D01*
X72107784Y-69691733D01*
X72112980Y-69654958D01*
X72426588Y-69654958D01*
X72426588Y-69531665D01*
X72003168Y-69531665D01*
X71998499Y-69572482D01*
X71993925Y-69612805D01*
X71989416Y-69652757D01*
X71984944Y-69692462D01*
X71980479Y-69732043D01*
X71975994Y-69771624D01*
X71971458Y-69811329D01*
X71966843Y-69851281D01*
X71962120Y-69891604D01*
X71957260Y-69932421D01*
X71953929Y-69959969D01*
G37*
G36*
X72918786Y-70181937D02*
G01*
X72905061Y-70139164D01*
X72891368Y-70097217D01*
X72878430Y-70058684D01*
X72864420Y-70018152D01*
X72852742Y-69984979D01*
X72697013Y-69531665D01*
X72540307Y-69531665D01*
X72557278Y-69578318D01*
X72571399Y-69617347D01*
X72587435Y-69661749D01*
X72605103Y-69710695D01*
X72624118Y-69763356D01*
X72644197Y-69818903D01*
X72665057Y-69876506D01*
X72686413Y-69935337D01*
X72707983Y-69994567D01*
X72729482Y-70053365D01*
X72750626Y-70110903D01*
X72771133Y-70166352D01*
X72790719Y-70218883D01*
X72809099Y-70267666D01*
X72825990Y-70311872D01*
X72833789Y-70332000D01*
X72999484Y-70332000D01*
X73295115Y-69531665D01*
X73146225Y-69531665D01*
X72990495Y-69978336D01*
X72976090Y-70019272D01*
X72962881Y-70056632D01*
X72948320Y-70098464D01*
X72933928Y-70141536D01*
X72921130Y-70181937D01*
X72918786Y-70181937D01*
G37*
D12*
G36*
X80359966Y-55712000D02*
G01*
X80859393Y-55712000D01*
X80859393Y-55587729D01*
X80501040Y-55587729D01*
X80501040Y-55362439D01*
X80824809Y-55362439D01*
X80824809Y-55236801D01*
X80501040Y-55236801D01*
X80501040Y-55038280D01*
X80851578Y-55038280D01*
X80851578Y-54911665D01*
X80359966Y-54911665D01*
X80359966Y-55712000D01*
G37*
G36*
X80949861Y-55480262D02*
G01*
X80955591Y-55520511D01*
X80971813Y-55569535D01*
X80997208Y-55612781D01*
X81031081Y-55649731D01*
X81072738Y-55679868D01*
X81108673Y-55697688D01*
X81148304Y-55711166D01*
X81191337Y-55720085D01*
X81237481Y-55724224D01*
X81253504Y-55724505D01*
X81300890Y-55721894D01*
X81345217Y-55714236D01*
X81386134Y-55701786D01*
X81423293Y-55684803D01*
X81456343Y-55663546D01*
X81493413Y-55628999D01*
X81521729Y-55587922D01*
X81540460Y-55540927D01*
X81547721Y-55502164D01*
X81549135Y-55474791D01*
X81545205Y-55425803D01*
X81533632Y-55384885D01*
X81508912Y-55343284D01*
X81473393Y-55310138D01*
X81437629Y-55288157D01*
X81395684Y-55268929D01*
X81347885Y-55251271D01*
X81321892Y-55242662D01*
X81265813Y-55225859D01*
X81228519Y-55213841D01*
X81189949Y-55198531D01*
X81154981Y-55177014D01*
X81130558Y-55143859D01*
X81124739Y-55110381D01*
X81133156Y-55070893D01*
X81157638Y-55039648D01*
X81197032Y-55019101D01*
X81235668Y-55012188D01*
X81250182Y-55011706D01*
X81292932Y-55015662D01*
X81333313Y-55029817D01*
X81367452Y-55057597D01*
X81389378Y-55096613D01*
X81394578Y-55113898D01*
X81530182Y-55113898D01*
X81521555Y-55065901D01*
X81505058Y-55022395D01*
X81480918Y-54983968D01*
X81449362Y-54951207D01*
X81410615Y-54924703D01*
X81364906Y-54905043D01*
X81326190Y-54895143D01*
X81283781Y-54889672D01*
X81253504Y-54888608D01*
X81209129Y-54891099D01*
X81167567Y-54898377D01*
X81129156Y-54910150D01*
X81083429Y-54932333D01*
X81044710Y-54961291D01*
X81013803Y-54996332D01*
X80991512Y-55036761D01*
X80978641Y-55081885D01*
X80975653Y-55118392D01*
X80979639Y-55163536D01*
X80991352Y-55203382D01*
X81010419Y-55238310D01*
X81036469Y-55268699D01*
X81069133Y-55294930D01*
X81108039Y-55317382D01*
X81152815Y-55336437D01*
X81190027Y-55348727D01*
X81203092Y-55352474D01*
X81255653Y-55367129D01*
X81295210Y-55378422D01*
X81335582Y-55392710D01*
X81371677Y-55413531D01*
X81396537Y-55447624D01*
X81402394Y-55483779D01*
X81395229Y-55527333D01*
X81374019Y-55562753D01*
X81339195Y-55588360D01*
X81298835Y-55601224D01*
X81257998Y-55604728D01*
X81216759Y-55601271D01*
X81173815Y-55588445D01*
X81138540Y-55566912D01*
X81111501Y-55537476D01*
X81093259Y-55500941D01*
X81087614Y-55480262D01*
X80949861Y-55480262D01*
G37*
G36*
X81970250Y-54912088D02*
G01*
X82015223Y-54914258D01*
X82059880Y-54920312D01*
X82100088Y-54931633D01*
X82140007Y-54949766D01*
X82164641Y-54965371D01*
X82196213Y-54994725D01*
X82220925Y-55030513D01*
X82238321Y-55071948D01*
X82246901Y-55110222D01*
X82249819Y-55151413D01*
X82249437Y-55166802D01*
X82243707Y-55211421D01*
X82231114Y-55253061D01*
X82211675Y-55290882D01*
X82185404Y-55324040D01*
X82152317Y-55351692D01*
X82128600Y-55365559D01*
X82090593Y-55380698D01*
X82049589Y-55390185D01*
X82005493Y-55395304D01*
X81966318Y-55397157D01*
X81924878Y-55397610D01*
X81830894Y-55397610D01*
X81830894Y-55712000D01*
X81688647Y-55712000D01*
X81688647Y-55274316D01*
X81830894Y-55274316D01*
X81950670Y-55274316D01*
X81958911Y-55274218D01*
X81998109Y-55270649D01*
X82039522Y-55259077D01*
X82077572Y-55234439D01*
X82101564Y-55196511D01*
X82108549Y-55152390D01*
X82107918Y-55138011D01*
X82095724Y-55095396D01*
X82067834Y-55064512D01*
X82031277Y-55047117D01*
X81991793Y-55038856D01*
X81944027Y-55036131D01*
X81830894Y-55036131D01*
X81830894Y-55274316D01*
X81688647Y-55274316D01*
X81688647Y-54911665D01*
X81926051Y-54911665D01*
X81970250Y-54912088D01*
G37*
G36*
X82331494Y-55481434D02*
G01*
X82339253Y-55531148D01*
X82354950Y-55577116D01*
X82378428Y-55618450D01*
X82409529Y-55654260D01*
X82448095Y-55683660D01*
X82493967Y-55705759D01*
X82533071Y-55717009D01*
X82576130Y-55723278D01*
X82607000Y-55724505D01*
X82653803Y-55721839D01*
X82697016Y-55714042D01*
X82736417Y-55701412D01*
X82771785Y-55684247D01*
X82812286Y-55654822D01*
X82844700Y-55618574D01*
X82868501Y-55576210D01*
X82883167Y-55528437D01*
X82887855Y-55489484D01*
X82888172Y-55475963D01*
X82884348Y-55432299D01*
X82873032Y-55392468D01*
X82854463Y-55356927D01*
X82828876Y-55326132D01*
X82796510Y-55300539D01*
X82757601Y-55280604D01*
X82740259Y-55274316D01*
X82773902Y-55252958D01*
X82806509Y-55222057D01*
X82830569Y-55185074D01*
X82844623Y-55142390D01*
X82847725Y-55108622D01*
X82843455Y-55063942D01*
X82830964Y-55023467D01*
X82810734Y-54987735D01*
X82783245Y-54957289D01*
X82748979Y-54932668D01*
X82708415Y-54914412D01*
X82662036Y-54903063D01*
X82610321Y-54899159D01*
X82571125Y-54901508D01*
X82523481Y-54911601D01*
X82481498Y-54929034D01*
X82445594Y-54953135D01*
X82416190Y-54983228D01*
X82393703Y-55018642D01*
X82378553Y-55058703D01*
X82371160Y-55102738D01*
X82370573Y-55114288D01*
X82499533Y-55114288D01*
X82510939Y-55072440D01*
X82537514Y-55038474D01*
X82576029Y-55019523D01*
X82607000Y-55015810D01*
X82646747Y-55021726D01*
X82682945Y-55042807D01*
X82705275Y-55079612D01*
X82709972Y-55113116D01*
X82702988Y-55154993D01*
X82678996Y-55189985D01*
X82640945Y-55211929D01*
X82599532Y-55221851D01*
X82560334Y-55224802D01*
X82552094Y-55224882D01*
X82552094Y-55336842D01*
X82583552Y-55336842D01*
X82624929Y-55339810D01*
X82669028Y-55351562D01*
X82705141Y-55372858D01*
X82731228Y-55404337D01*
X82745249Y-55446643D01*
X82747097Y-55472055D01*
X82741675Y-55512232D01*
X82722418Y-55552870D01*
X82690521Y-55584033D01*
X82654143Y-55601009D01*
X82610321Y-55607073D01*
X82565531Y-55601910D01*
X82529301Y-55587124D01*
X82497614Y-55559112D01*
X82477055Y-55521100D01*
X82468074Y-55481825D01*
X82331494Y-55481434D01*
G37*
G36*
X83532582Y-55712000D02*
G01*
X83532582Y-55592223D01*
X83187712Y-55592223D01*
X83224671Y-55559752D01*
X83265249Y-55526030D01*
X83307863Y-55490805D01*
X83350927Y-55453823D01*
X83392858Y-55414833D01*
X83432071Y-55373584D01*
X83466982Y-55329822D01*
X83496007Y-55283295D01*
X83517562Y-55233752D01*
X83530062Y-55180941D01*
X83532582Y-55143793D01*
X83527977Y-55093282D01*
X83514423Y-55046795D01*
X83492314Y-55005166D01*
X83462045Y-54969233D01*
X83424009Y-54939829D01*
X83378599Y-54917792D01*
X83339941Y-54906601D01*
X83297523Y-54900376D01*
X83267237Y-54899159D01*
X83220820Y-54902215D01*
X83178663Y-54911077D01*
X83140834Y-54925286D01*
X83097241Y-54951756D01*
X83061616Y-54985829D01*
X83034119Y-55026417D01*
X83014907Y-55072432D01*
X83004137Y-55122786D01*
X83001696Y-55162746D01*
X83002869Y-55170562D01*
X83136127Y-55170562D01*
X83140977Y-55125476D01*
X83154479Y-55086519D01*
X83181714Y-55051052D01*
X83215369Y-55031125D01*
X83258973Y-55022638D01*
X83267237Y-55022453D01*
X83307257Y-55027561D01*
X83344840Y-55045516D01*
X83371737Y-55074870D01*
X83387028Y-55114027D01*
X83390335Y-55147115D01*
X83385650Y-55188749D01*
X83371232Y-55229598D01*
X83351392Y-55264137D01*
X83324106Y-55300069D01*
X83296704Y-55330409D01*
X83264176Y-55362655D01*
X83245939Y-55379634D01*
X83208698Y-55414156D01*
X83179105Y-55441327D01*
X83149144Y-55468673D01*
X83119766Y-55495361D01*
X83083142Y-55528488D01*
X83051497Y-55557001D01*
X83022373Y-55583154D01*
X83008535Y-55595545D01*
X83008535Y-55712000D01*
X83532582Y-55712000D01*
G37*
G36*
X83912820Y-55480262D02*
G01*
X83918550Y-55520511D01*
X83934772Y-55569535D01*
X83960167Y-55612781D01*
X83994040Y-55649731D01*
X84035697Y-55679868D01*
X84071632Y-55697688D01*
X84111262Y-55711166D01*
X84154296Y-55720085D01*
X84200440Y-55724224D01*
X84216462Y-55724505D01*
X84263849Y-55721894D01*
X84308176Y-55714236D01*
X84349093Y-55701786D01*
X84386252Y-55684803D01*
X84419301Y-55663546D01*
X84456372Y-55628999D01*
X84484688Y-55587922D01*
X84503419Y-55540927D01*
X84510680Y-55502164D01*
X84512094Y-55474791D01*
X84508164Y-55425803D01*
X84496591Y-55384885D01*
X84471871Y-55343284D01*
X84436352Y-55310138D01*
X84400588Y-55288157D01*
X84358643Y-55268929D01*
X84310844Y-55251271D01*
X84284850Y-55242662D01*
X84228772Y-55225859D01*
X84191478Y-55213841D01*
X84152908Y-55198531D01*
X84117940Y-55177014D01*
X84093517Y-55143859D01*
X84087698Y-55110381D01*
X84096115Y-55070893D01*
X84120597Y-55039648D01*
X84159990Y-55019101D01*
X84198626Y-55012188D01*
X84213141Y-55011706D01*
X84255891Y-55015662D01*
X84296272Y-55029817D01*
X84330411Y-55057597D01*
X84352337Y-55096613D01*
X84357537Y-55113898D01*
X84493141Y-55113898D01*
X84484514Y-55065901D01*
X84468017Y-55022395D01*
X84443877Y-54983968D01*
X84412321Y-54951207D01*
X84373574Y-54924703D01*
X84327865Y-54905043D01*
X84289149Y-54895143D01*
X84246740Y-54889672D01*
X84216462Y-54888608D01*
X84172088Y-54891099D01*
X84130526Y-54898377D01*
X84092115Y-54910150D01*
X84046387Y-54932333D01*
X84007669Y-54961291D01*
X83976762Y-54996332D01*
X83954471Y-55036761D01*
X83941600Y-55081885D01*
X83938612Y-55118392D01*
X83942598Y-55163536D01*
X83954310Y-55203382D01*
X83973377Y-55238310D01*
X83999428Y-55268699D01*
X84032092Y-55294930D01*
X84070997Y-55317382D01*
X84115774Y-55336437D01*
X84152986Y-55348727D01*
X84166051Y-55352474D01*
X84218612Y-55367129D01*
X84258169Y-55378422D01*
X84298541Y-55392710D01*
X84334636Y-55413531D01*
X84359496Y-55447624D01*
X84365353Y-55483779D01*
X84358188Y-55527333D01*
X84336978Y-55562753D01*
X84302154Y-55588360D01*
X84261794Y-55601224D01*
X84220956Y-55604728D01*
X84179718Y-55601271D01*
X84136773Y-55588445D01*
X84101499Y-55566912D01*
X84074459Y-55537476D01*
X84056218Y-55500941D01*
X84050573Y-55480262D01*
X83912820Y-55480262D01*
G37*
G36*
X84601194Y-55481434D02*
G01*
X84608953Y-55531148D01*
X84624650Y-55577116D01*
X84648128Y-55618450D01*
X84679229Y-55654260D01*
X84717795Y-55683660D01*
X84763667Y-55705759D01*
X84802771Y-55717009D01*
X84845830Y-55723278D01*
X84876700Y-55724505D01*
X84923503Y-55721839D01*
X84966716Y-55714042D01*
X85006117Y-55701412D01*
X85041485Y-55684247D01*
X85081986Y-55654822D01*
X85114399Y-55618574D01*
X85138201Y-55576210D01*
X85152867Y-55528437D01*
X85157555Y-55489484D01*
X85157872Y-55475963D01*
X85154048Y-55432299D01*
X85142732Y-55392468D01*
X85124163Y-55356927D01*
X85098576Y-55326132D01*
X85066210Y-55300539D01*
X85027301Y-55280604D01*
X85009959Y-55274316D01*
X85043602Y-55252958D01*
X85076209Y-55222057D01*
X85100269Y-55185074D01*
X85114323Y-55142390D01*
X85117425Y-55108622D01*
X85113155Y-55063942D01*
X85100664Y-55023467D01*
X85080434Y-54987735D01*
X85052945Y-54957289D01*
X85018679Y-54932668D01*
X84978115Y-54914412D01*
X84931736Y-54903063D01*
X84880021Y-54899159D01*
X84840825Y-54901508D01*
X84793181Y-54911601D01*
X84751197Y-54929034D01*
X84715294Y-54953135D01*
X84685889Y-54983228D01*
X84663403Y-55018642D01*
X84648253Y-55058703D01*
X84640860Y-55102738D01*
X84640273Y-55114288D01*
X84769233Y-55114288D01*
X84780639Y-55072440D01*
X84807214Y-55038474D01*
X84845729Y-55019523D01*
X84876700Y-55015810D01*
X84916447Y-55021726D01*
X84952645Y-55042807D01*
X84974975Y-55079612D01*
X84979672Y-55113116D01*
X84972688Y-55154993D01*
X84948695Y-55189985D01*
X84910645Y-55211929D01*
X84869232Y-55221851D01*
X84830034Y-55224802D01*
X84821794Y-55224882D01*
X84821794Y-55336842D01*
X84853252Y-55336842D01*
X84894629Y-55339810D01*
X84938728Y-55351562D01*
X84974841Y-55372858D01*
X85000928Y-55404337D01*
X85014949Y-55446643D01*
X85016797Y-55472055D01*
X85011375Y-55512232D01*
X84992118Y-55552870D01*
X84960221Y-55584033D01*
X84923843Y-55601009D01*
X84880021Y-55607073D01*
X84835231Y-55601910D01*
X84799001Y-55587124D01*
X84767314Y-55559112D01*
X84746755Y-55521100D01*
X84737774Y-55481825D01*
X84601194Y-55481434D01*
G37*
D13*
%TO.C,GND*%
X66800000Y-61800000D02*
X69200000Y-61800000D01*
X66800000Y-64200000D02*
X66800000Y-61800000D01*
X69200000Y-61800000D02*
X69200000Y-64200000D01*
X69200000Y-64200000D02*
X66800000Y-64200000D01*
X66800000Y-56800000D02*
X69200000Y-56800000D01*
X66800000Y-59200000D02*
X66800000Y-56800000D01*
X69200000Y-56800000D02*
X69200000Y-59200000D01*
X69200000Y-59200000D02*
X66800000Y-59200000D01*
X97200000Y-70200000D02*
X94800000Y-70200000D01*
X97200000Y-67800000D02*
X97200000Y-70200000D01*
X94800000Y-70200000D02*
X94800000Y-67800000D01*
X94800000Y-67800000D02*
X97200000Y-67800000D01*
%TO.C,24V*%
X97200000Y-65200000D02*
X94800000Y-65200000D01*
X97200000Y-62800000D02*
X97200000Y-65200000D01*
X94800000Y-65200000D02*
X94800000Y-62800000D01*
X94800000Y-62800000D02*
X97200000Y-62800000D01*
%TO.C,5V*%
X66800000Y-51800000D02*
X69200000Y-51800000D01*
X66800000Y-54200000D02*
X66800000Y-51800000D01*
X69200000Y-51800000D02*
X69200000Y-54200000D01*
X69200000Y-54200000D02*
X66800000Y-54200000D01*
%TO.C,STEP DOWN 5V*%
D10*
X75275000Y-66525000D02*
X92275000Y-66525000D01*
X92275000Y-78525000D01*
X75275000Y-78525000D01*
X75275000Y-66525000D01*
%TO.C,LOGIC LEVEL CONV.*%
X83300000Y-30900000D02*
X98000000Y-30900000D01*
X98000000Y-43600000D01*
X83300000Y-43600000D01*
X83300000Y-30900000D01*
D13*
%TO.C,D5*%
X69200000Y-48200000D02*
X66800000Y-48200000D01*
X69200000Y-45800000D02*
X69200000Y-48200000D01*
X66800000Y-48200000D02*
X66800000Y-45800000D01*
X66800000Y-45800000D02*
X69200000Y-45800000D01*
%TO.C,D4*%
X66800000Y-40800000D02*
X69200000Y-40800000D01*
X66800000Y-43200000D02*
X66800000Y-40800000D01*
X69200000Y-40800000D02*
X69200000Y-43200000D01*
X69200000Y-43200000D02*
X66800000Y-43200000D01*
%TO.C,D3*%
X66800000Y-35800000D02*
X69200000Y-35800000D01*
X66800000Y-38200000D02*
X66800000Y-35800000D01*
X69200000Y-35800000D02*
X69200000Y-38200000D01*
X69200000Y-38200000D02*
X66800000Y-38200000D01*
%TO.C,D2*%
X66800000Y-30800000D02*
X69200000Y-30800000D01*
X66800000Y-33200000D02*
X66800000Y-30800000D01*
X69200000Y-30800000D02*
X69200000Y-33200000D01*
X69200000Y-33200000D02*
X66800000Y-33200000D01*
%TO.C,100\u00B5F 25V*%
X73620000Y-74250000D02*
G75*
G02*
X67380000Y-74250000I-3120000J0D01*
G01*
X67380000Y-74250000D02*
G75*
G02*
X73620000Y-74250000I3120000J0D01*
G01*
X72555000Y-71210251D02*
X71955000Y-71210251D01*
X72255000Y-70910251D02*
X72255000Y-71510251D01*
%TO.C,ESP32 S3*%
D14*
X91692000Y-47619000D02*
G75*
G02*
X91188000Y-47619000I-252000J0D01*
G01*
X91188000Y-47619000D02*
G75*
G02*
X91692000Y-47619000I252000J0D01*
G01*
X92572000Y-46476000D02*
G75*
G02*
X92068000Y-46476000I-252000J0D01*
G01*
X92068000Y-46476000D02*
G75*
G02*
X92572000Y-46476000I252000J0D01*
G01*
D15*
X73411000Y-64270000D02*
G75*
G02*
X71506000Y-62365000I0J1905000D01*
G01*
X92461000Y-62365000D02*
G75*
G02*
X90556000Y-64270000I-1905000J0D01*
G01*
X93971000Y-59384000D02*
G75*
G02*
X93471000Y-59884000I-500000J0D01*
G01*
X93471272Y-50888728D02*
G75*
G02*
X93970999Y-51388728I-291J-500018D01*
G01*
X71506000Y-48395000D02*
G75*
G02*
X73411000Y-46490000I1905001J-1D01*
G01*
X90556000Y-46490000D02*
G75*
G02*
X92461000Y-48395000I-1J-1905001D01*
G01*
X73411000Y-64270000D02*
X90556000Y-64270000D01*
X92461000Y-62365000D02*
X92461000Y-48395000D01*
D10*
X92461000Y-62365000D02*
X92461000Y-48395000D01*
D15*
X93471000Y-59884000D02*
X92461000Y-59884000D01*
X93971000Y-51388728D02*
X93971000Y-59384000D01*
X92461000Y-50885000D02*
X93471272Y-50888728D01*
X71506000Y-48395000D02*
X71506000Y-62365000D01*
X73411000Y-46490000D02*
X90556000Y-46490000D01*
%TD*%
M02*
